<svg width="388" height="300" viewBox="0 0 388 300" fill="none" xmlns="http://www.w3.org/2000/svg">
<rect width="388" height="300" fill="#F5F5F5"/>
<rect x="44" width="300" height="300" fill="#15665E"/>
<g filter="url(#filter0_g_0_1)">
<path d="M202.181 70.5572C206.52 69.2349 211.435 69.0709 216.478 69.4166C216.268 69.2456 217.666 70.0054 218.604 71.1851C219.62 72.3522 220.58 73.7792 221.472 75.2721C222.006 76.0717 224.13 80.4402 224.468 81.2222C224.766 81.8442 225.205 82.3512 225.616 83.317C226.166 84.6268 225.302 83.519 226.345 85.6471C226.616 86.2082 226.511 85.5887 227.05 86.731C227.277 87.1176 230.34 94.6605 230.463 95.1109C230.713 95.8221 230.637 96.519 230.698 96.7047C231.006 97.6401 231.219 97.5208 231.47 98.1431C232.196 99.9367 232.896 102.426 233.001 102.719C234.321 106.329 236.761 113.143 237.853 117.047C238.006 117.592 237.815 117.582 237.838 117.676C237.989 118.287 238.301 118.602 238.484 119.177C239.474 122.286 240.804 127.21 241.682 130.36C241.783 130.723 242.1 131.463 242.279 132.119C243.274 135.777 242.783 134.648 242.836 134.854C242.961 135.352 243.379 136.186 243.757 137.485C243.98 138.251 244.245 139.185 244.534 140.217C245.511 143.675 246.628 148.154 247.274 150.98C247.899 153.71 247.685 153.713 247.724 153.895C247.802 154.281 248.197 155.305 248.603 157.113C249.377 160.593 249.132 160.232 249.438 161.673C249.464 161.798 249.569 161.544 249.917 163.156C250.567 166.228 251.937 173.443 253.317 176.964C253.705 178.018 253.96 178.401 254.329 179.176C254.434 179.395 254.55 179.642 254.686 179.937C255.564 182.227 258.747 186.773 259.11 187.029C259.192 187.119 259.494 187.214 259.976 187.729C260.507 188.296 260.991 188.89 261.414 189.283C263.784 191.63 268.623 194.214 267.01 193.921C267.955 194.337 268.909 194.715 269.861 195.06C275.625 198.184 281.511 200.042 287.459 201.666C288.793 202.025 289.881 202.426 291.018 202.708C292.146 203.003 297.168 203.982 297.998 204.151C298.093 204.172 298.219 204.199 298.368 204.231C300.728 205.053 309.177 205.125 310.223 204.777C312.496 204.54 314.66 204.302 315.555 204.031C316.252 203.814 315.564 203.852 316.892 203.456C319.197 202.787 323.005 201.558 323.668 201.27C323.953 201.147 323.39 201.291 326.013 200.162C327.404 199.549 328.199 199.306 328.709 199.067C328.864 198.986 328.539 198.955 331.256 197.636C333.093 196.731 333.958 196.43 334.141 196.337C334.421 196.188 335.05 195.672 336.19 195.05C338.874 193.608 343.73 190.938 346.14 189.448C346.616 189.154 346.361 189.089 348.221 187.942C349.563 187.11 349.429 187.377 349.923 187.07C350.692 186.591 351.794 185.66 353.504 184.552C354.918 183.694 361.985 179.009 367.093 175.611V176.292C366.688 176.578 366.361 176.813 366.182 176.956C365.892 177.185 366.684 176.854 365.095 178.046C363.405 179.313 362.458 179.581 361.983 180.409C359.256 181.686 357.078 183.726 360.081 181.881C360.758 181.488 363.652 179.567 367.093 177.256V178.643C363.345 181.226 359.572 183.791 355.749 186.313C354.625 187.242 361.981 182.511 362.494 182.157C363.598 181.441 365.325 180.255 367.093 179.043V179.41C364.781 181.225 361.17 182.921 361.386 183.452C360.073 184.269 358.751 185.086 357.449 185.881C354.655 187.776 359.386 185.418 348.169 192.282C347.381 192.753 347.454 192.519 346.302 193.237C345.98 193.431 344.178 194.843 340.379 196.992C339.779 197.329 339.657 197.234 339.028 197.567C337.611 198.324 334.805 200.132 335.911 199.024C330.046 201.929 332.585 201.001 330.818 202.045C329.638 202.714 329.74 202.368 328.681 202.919C327.345 203.561 328.553 203.5 322.794 205.569C323.456 205.309 324.061 205.058 324.7 204.787C324.351 204.845 324.003 204.899 323.658 204.951C320.427 206.328 320.629 205.935 319.15 206.836C316.574 207.389 314.35 207.967 310.615 208.468C303.273 208.963 306.908 209.678 298.493 207.946C298.187 207.905 297.881 207.86 297.575 207.812C296.68 207.681 295.799 207.551 294.899 207.412C293.087 206.806 294.634 206.946 291.875 206.236C293.946 207.199 288.118 205.603 287.006 205.682C286.926 205.563 286.846 205.444 286.767 205.325C286.142 205.154 285.51 204.977 284.888 204.798C284.865 204.87 284.842 204.943 284.819 205.014C283.992 204.718 283.182 204.419 282.353 204.103C281.7 203.979 281.048 203.849 280.389 203.712C279.402 203.222 278.409 202.713 277.422 202.185C276.773 201.936 276.126 201.68 275.476 201.413C275.641 201.598 275.808 201.783 275.976 201.967C275.144 201.608 274.318 201.235 273.491 200.843C274.397 201.411 273.705 201.411 271.071 200.196C268.908 199.12 271.496 200.1 266.81 197.729C266.492 197.498 265.729 197.661 261.463 194.564C256.491 190.491 259.057 192.28 258.191 191.528C258.027 191.37 256.498 190.062 255.281 188.568C254.586 187.73 254.069 186.8 253.986 186.681C253.599 186.13 253.353 186.054 252.848 185.258C252.047 183.991 251.217 182.366 250.566 180.774C250.208 179.902 249.89 179.055 249.621 178.318C249.292 177.421 248.934 176.61 248.808 176.213C248.611 175.596 248.517 174.78 248.347 174.171C247.696 171.906 246.513 168.732 246.946 167.622C245.913 165.703 245.792 161.452 245.456 161.835C244.63 156.54 240.826 143.267 241.511 143.477C240.97 142.377 240.725 141.762 240.599 141.314C240.413 140.656 240.498 140.414 240.29 139.692C239.899 138.337 239.988 139.069 239.69 137.994C238.988 135.466 238.346 133.056 237.618 130.558C237.821 130.922 238.025 131.287 238.229 131.654C237.494 129.032 237.551 129.99 236.719 127.329C235.18 122.452 235.958 124.462 235.976 123.67C235.813 123.922 234.084 118.177 233.916 117.567C233.825 117.219 234.595 118.632 233.394 115.173C233.365 115.392 233.336 115.61 233.308 115.829C232.924 114.182 231.352 109.898 231.137 109.171C231.045 108.85 231.144 106.77 230.023 105.349C230.043 105.119 230.063 104.888 230.082 104.659C229.348 102.881 228.597 101.099 227.841 99.3551C227.893 99.0068 227.945 98.6595 227.997 98.314C227.786 97.7414 227.579 97.185 227.366 96.6187C227.369 97.0506 227.365 97.4676 227.364 97.8961C226.138 94.358 224.214 90.2412 224.39 89.3746C223.997 88.6746 223.598 87.9737 223.208 87.3072C223.163 86.7805 223.102 86.2244 223.05 85.6959C221.521 82.4207 221.381 82.4329 220.139 80.3717C220.298 80.3945 220.458 80.4192 220.617 80.4439C219.666 78.9688 217.945 76.216 216.688 74.5787C216.307 74.0479 215.87 73.454 215.58 73.0758C215.811 73.1186 216.052 73.1207 216.211 73.0279C216.183 73.0002 216.161 72.9682 216.146 72.9342C215.912 72.9331 215.685 72.9301 215.467 72.9283C215.348 72.7776 215.272 72.686 215.257 72.6881C215.216 72.6566 214.846 72.5851 214.913 72.7564C214.913 72.8046 214.993 72.8659 215.113 72.9254C211.702 72.8898 210.243 72.7725 208.837 72.8678C207.857 72.9532 207.433 73.1452 206.388 73.3228C204.893 73.5803 203.491 73.9044 202.734 74.1803C202.302 74.3376 202.274 74.5039 201.987 74.6207C200.666 75.2085 201.361 74.7143 200.032 75.4137C199.908 75.4854 199.051 76.1542 198.106 76.8775C197.561 77.2513 196.17 78.3612 196.075 78.4996C195.745 78.8794 195.984 78.8926 195.491 79.4361C195.259 79.7036 194.893 80.0742 194.299 80.689C194.408 80.6638 194.517 80.6395 194.625 80.6158C192.782 83.6455 192.208 84.2181 191.777 84.8795C191.724 84.97 191.35 85.8998 191.037 86.4332C190.513 87.3223 190.144 87.6329 190.028 87.8277C189.606 88.5457 188.309 91.0847 187.208 92.6617C187.866 92.5745 184.596 98.4707 183.279 99.4039C182.745 100.454 182.179 101.528 181.619 102.571C181.237 102.975 180.863 103.364 180.488 103.749C180.384 104.069 180.275 104.393 180.164 104.719C179.021 106.02 177.869 107.29 176.677 108.582C176.781 108.788 176.884 108.996 176.987 109.204C176.691 109.57 176.39 109.942 176.083 110.318C175.729 110.521 175.358 110.745 175.015 110.931C174.689 111.419 174.356 111.914 174.015 112.416C174.018 112.607 174.021 112.799 174.023 112.991C172.188 115.593 172.322 113.635 169.302 119.003C168.632 119.684 167.953 120.37 167.293 121.026C166.963 122.144 165.481 123.497 164.474 124.766C163.75 125.676 163.947 125.724 162.949 126.897C161.944 128.074 161.84 127.928 161.761 128.018C161.685 128.104 161.611 128.19 161.54 128.274C160.815 129.133 160.312 129.886 159.71 130.514C159.606 130.621 159.222 130.747 158.391 131.632C157.561 132.511 157.226 133.194 155.944 134.47C155.295 135.113 154.98 135.188 154.396 135.759C151.627 138.469 149.369 141.795 146.513 142.974C146.124 143.52 142.868 147.002 141.28 148.277C138.82 150.269 139.632 149.324 138.635 150.093C138.486 150.204 137.793 150.87 135.706 152.492C135.332 152.781 135.488 152.804 135.436 152.847C133.006 154.761 128.132 158.23 125.323 160.12C125.075 160.287 123.951 161.46 121.472 162.577C118.631 164.81 112.845 167.77 108.531 170.463C108.083 170.746 107.659 171.022 107.255 171.297C106.621 171.661 105.801 171.979 105.515 172.139C103.053 173.475 104.236 173.38 98.1377 175.743C98.6886 175.677 97.3879 176.487 95.3291 177.332C92.209 178.561 94.314 177.387 91.7842 178.351C91.8154 178.439 91.8467 178.528 91.8779 178.616C85.8447 180.35 84.6072 181.023 78.417 181.909C76.1879 182.198 72.9471 182.185 72.4326 182.202C72.2304 182.22 69.8813 182.527 69.6514 182.528C69.0972 182.543 68.6423 182.53 68.2129 182.512C67.7062 182.49 67.2417 182.462 66.6709 182.466C63.2783 182.494 59.2298 182.788 59.9629 182.255C59.0358 182.369 58.0865 182.48 57.1641 182.59C53.6346 182.015 51.0068 182.772 50.2607 182.213C49.6257 182.321 49.0133 182.428 48.3682 182.535C38.9499 182.41 29.3684 182.055 20 181.663V177.858C35.9282 178.417 52.2006 178.738 68.1738 178.528C73.157 178.472 78.2123 178.112 83.2148 177.057C91.0153 175.529 99.2353 171.49 106.727 167.252C111.872 164.375 116.905 161.281 121.534 158.2C122.062 157.849 123.054 157.027 124.178 156.258C124.421 156.101 127.449 154.225 128.419 153.505C127.272 153.862 131.261 151.354 132.399 150.444C133.851 149.309 136.726 146.803 140.069 144.093C143.088 141.628 142.366 142.433 142.537 142.303C143.621 141.43 143.806 140.931 144.577 140.199C146.49 138.408 153.281 132.101 158.707 125.821C162.173 121.858 165.246 118.149 166.779 116.243C167.752 115.034 167.93 115.058 168.149 114.783C168.745 114.033 169.452 112.885 170.388 111.67C172.076 109.487 174.049 107.051 174.952 105.788C177.081 102.868 180.797 97.0076 183.173 92.8883C183.848 91.7339 183.94 91.8941 184.245 91.3638C185.604 89.0642 188.592 82.9128 190.179 80.4332C190.908 79.2647 191.681 78.1551 192.522 77.1021C194.54 74.5653 197.126 72.6347 200.091 71.3355C200.383 71.2897 200.674 71.2511 200.967 71.2174C201.359 70.9867 201.766 70.7662 202.181 70.5572ZM210.452 64.4097C213.012 64.5556 215.437 64.5087 216.838 64.5621C218.086 64.6595 218.559 65.0409 218.229 65.1558C219.16 65.5331 219.887 66.0696 220.577 66.6744C220.652 66.5902 220.726 66.5056 220.801 66.4215C221.842 67.351 222.66 68.3355 223.461 69.4068C223.371 69.4738 223.28 69.541 223.189 69.608C223.807 70.44 224.395 71.322 224.962 72.2359C225.119 72.2771 225.266 72.3019 225.419 72.3365C227.021 75.0893 231.969 84.5195 229.4 80.5299C230.029 81.8827 230.614 83.2026 231.185 84.5328C231.258 84.4962 231.332 84.4591 231.405 84.4224C231.66 84.9883 231.922 85.5787 232.173 86.1539C232.028 86.0002 231.875 85.8262 231.726 85.6637C232.954 88.2419 233.597 90.9722 234.493 92.6031C234.109 91.436 233.703 90.2335 233.3 89.0699C234.101 91.3418 235.829 95.345 235.964 95.7262C236.386 96.8742 236.432 97.4902 236.863 98.7242C237.252 99.8388 237.318 99.647 237.386 99.8502C239.339 105.858 237.879 103.79 239.604 106.331C239.596 106.66 239.588 106.992 239.58 107.324C239.799 107.689 240.019 108.057 240.239 108.427C240.812 110.198 241.381 111.993 241.929 113.751C241.875 113.117 241.824 112.497 241.764 111.85C242.671 114.481 242.793 115.824 242.868 116.086C243.078 116.812 243.349 117.095 243.419 117.32C246.728 128.22 244.56 121.627 245.554 127.281C246.367 129.133 246.048 127.116 246.218 126.759C246.851 129.358 247.166 130.18 247.929 132.896C248.128 133.608 248.21 134.419 248.336 134.872C248.444 135.257 248.931 136.424 249.194 137.362C249.319 137.804 249.447 138.291 249.582 138.812C249.926 140.142 250.285 141.643 250.69 143.19C251.171 144.975 252.633 150.44 253.462 154.296C253.818 155.933 253.612 155.589 253.702 156.008C253.739 156.178 254.16 157.432 254.381 158.49C255.744 164.804 256.708 171.33 259.133 177.136C259.988 179.177 261.129 181.077 262.514 182.783C266.227 187.378 271.689 190.454 277.265 192.798C278.463 193.297 277.788 193.138 278.309 193.353C278.489 193.421 278.776 193.348 280.629 194.111C281.305 194.384 280.474 194.231 281.141 194.476C281.465 194.59 281.666 194.498 283.605 195.093C287.148 196.156 289.039 196.863 289.355 196.95C289.963 197.1 289.823 196.917 290.63 197.125C293.827 197.941 296.632 198.571 299.484 199.191C300.108 199.326 300.735 199.442 301.373 199.539C302.169 199.678 305.356 200.054 308.432 199.757C311.516 199.512 314.42 198.739 314.728 198.676C316.087 198.372 314.913 199.007 316.648 198.498C317.107 198.283 317.57 198.059 318.035 197.828C317.234 198.031 316.484 198.201 315.681 198.367C317.821 197.876 320.157 196.888 321.678 196.281C321.973 196.176 324.596 195.222 325.894 194.589C325.356 194.899 324.826 195.2 324.301 195.491C324.514 195.449 324.728 195.405 324.942 195.361C327.541 194.12 330.28 192.738 332.879 191.339C333.837 190.821 333.563 191.102 334.508 190.584C340.016 187.48 338.39 187.867 344.063 185.448C342.277 186.498 335.885 190.401 334.875 190.889C334.22 191.239 331.248 191.981 332.57 192.15C327.175 194.955 331.705 192.185 326.664 194.756C326.804 194.795 326.945 194.833 327.086 194.871C325.316 195.776 323.995 196.398 322.83 196.7C322.643 197.32 316.258 199.499 312.671 200.126C308.453 201.034 303.612 201.226 299.247 200.261C298.252 200.05 297.286 199.839 296.337 199.623C294.554 199.216 293.596 198.792 293.37 198.738C293.041 198.659 292.099 198.587 291.445 198.42C289.003 197.858 281.837 195.427 279.939 195.117C286.196 197.398 292.69 198.988 299.207 200.439C307.204 202.299 315.527 200.352 323.031 197.223C321.322 197.939 334.799 191.416 335.382 190.858C336.004 190.519 335.56 190.942 335.747 190.847C337.162 190.124 338.167 189.282 338.612 189.021C338.955 188.82 339.637 188.539 340.796 187.841C341.008 187.713 341.013 187.585 341.242 187.446C342.731 186.547 344.247 185.611 345.703 184.696C345.794 184.64 346.254 184.539 346.633 184.299C347.012 184.06 347.306 183.685 347.403 183.622C348.558 182.89 350.692 181.634 351.784 180.92C352.172 180.667 351.84 180.745 352.276 180.461C353.623 179.579 353.323 180.052 354.92 178.923C355.461 178.54 355.326 178.422 356.408 177.727C357.182 177.23 357.255 177.551 357.383 177.481C357.536 177.396 360.006 175.438 360.946 175.043C359.435 176.716 362.951 173.714 362.652 173.641C363.725 172.978 364.742 172.35 365.793 171.696C366.107 171.41 366.423 171.123 366.74 170.835C366.86 170.761 366.976 170.685 367.093 170.613V171.353C362.679 174.458 356.73 178.489 353.832 179.977C353.038 180.628 356.119 178.639 354.971 179.492C354.38 180.059 338.443 190.214 343.323 186.629C342.793 186.97 342.285 187.295 341.748 187.634C341.407 188.34 338.71 189.825 338.784 189.291C338.569 189.516 338.355 189.741 338.143 189.963C337.666 190.324 337.122 190.684 336.267 191.195C334.689 192.133 329.035 195.32 323.346 197.648C317.685 200.075 311.908 201.147 311.329 201.222C311.319 201.325 311.308 201.427 311.297 201.53C321.106 199.98 329.607 195.218 338.929 190.184C338.612 190.261 338.296 190.336 337.982 190.41C341.726 188.395 345.41 186.268 349.062 184.085C345.385 186.658 339.318 190.542 335.104 192.687C334.367 193.065 334.834 192.659 334.661 192.736C334.202 192.939 333.805 193.424 332.235 194.276C330.619 195.179 326.447 196.999 326.045 197.161C325.331 197.499 323.425 198.606 322.108 199.106C320.418 199.747 321.493 199.165 321.154 199.29C319.721 199.808 318.464 200.307 317.324 200.635C315.625 201.165 311.995 201.664 310.82 202.208C312.081 202.047 313.335 201.823 314.575 201.549C309.02 202.97 304.137 202.784 298.915 201.759C297.87 201.552 296.806 201.354 295.692 201.166C294.107 201.312 299.48 202.485 294.901 201.644C295.722 201.83 296.553 202.014 297.374 202.192C297.589 202.133 297.806 202.074 298.021 202.015C298.283 202.088 298.546 202.161 298.81 202.234C300 202.56 301.21 202.82 302.438 203.01C302.015 202.872 301.595 202.725 301.183 202.571C306.534 203.343 311.862 202.279 313.761 202.367C313.842 202.226 313.922 202.084 314.002 201.942C318.895 201.106 325.377 197.69 324.379 198.851C324.576 198.729 324.774 198.606 324.973 198.481C327.703 197.429 326.442 197.673 327.435 197.185C327.721 197.079 332.84 194.667 330.697 195.971C335.669 193.576 333.863 193.764 335.174 193.031C338.423 191.623 343.576 187.946 341.554 189.741C342.012 189.488 342.479 189.229 342.94 188.97C344.173 187.767 345.879 187.227 347.513 186.37C348.047 186.043 348.615 185.693 349.132 185.374C349.411 185.04 349.693 184.704 349.977 184.367C355.282 181.675 352.802 181.242 355.823 180.966C355.521 181.269 355.229 181.565 354.921 181.871C354.093 182.465 353.276 183.049 352.472 183.622C355.898 181.436 359.223 179.257 362.597 177.011C364.36 176.002 365.754 175.082 367.093 174.157V174.512C366.29 175.274 365.621 175.962 363.338 177.458C363.99 176.915 362.908 177.339 361.614 178.219C361.667 178.297 361.72 178.375 361.772 178.453C358.652 180.63 359.627 179.643 357.104 181.584C356.802 181.695 356.5 181.806 356.2 181.916C354.951 183.126 349.759 186.731 350.477 185.715C349.256 187.036 345.968 188.862 344.592 189.28C344.55 189.414 344.508 189.55 344.467 189.684C343.859 190.078 343.229 190.482 342.599 190.882C342.214 191.048 341.832 191.211 341.452 191.371C341.039 191.681 340.613 191.998 340.181 192.316C339.857 192.397 339.535 192.476 339.215 192.553C338.548 193.068 337.87 193.583 337.178 194.1C336.688 194.29 336.202 194.474 335.721 194.654C335.76 194.874 331.244 197.328 329.862 197.828C329.498 198.069 329.135 198.307 328.774 198.541C328.548 198.546 328.319 198.55 328.083 198.558C327.818 198.764 327.553 198.967 327.29 199.169C326.584 199.408 325.882 199.637 325.156 199.866C322.533 201.458 322.247 201.092 321.61 201.341C320.407 201.84 316.2 203.416 315.446 203.536C314.696 203.703 314.304 203.622 313.709 203.73C303.631 204.982 307.74 204.547 305.698 204.818C304.565 204.848 303.78 204.653 302.787 204.584C302.108 204.537 300.314 204.383 298.419 203.999C295.835 203.495 292.96 202.872 292.701 202.795C292.067 202.609 293.744 202.284 291.618 201.949C291.454 202.318 287.093 200.766 289.041 201.837C287.219 201.306 285.387 200.739 283.571 200.128C283.642 200.625 281.47 199.668 279.011 198.804C275.499 197.764 267.732 194.089 268.285 193.714C267.449 193.341 266.607 192.933 265.776 192.494C261.087 189.153 256.815 184.669 254.468 179.118C254.238 178.583 254.02 178.044 253.814 177.503C251.456 171.171 250.501 164.814 249.168 158.608C247.891 152.397 246.445 146.222 244.781 140.149C243.48 135.384 242.159 130.685 240.828 126.119C240.601 125.339 240.781 125.407 240.617 124.848C239.754 121.868 237.291 114.267 235.963 110.154C235.539 108.826 235.47 108.151 235.339 107.737C234.892 106.324 234.812 106.708 234.599 106.058C234.277 105.048 232.564 99.5697 231.903 97.7447C231.571 96.8087 231.042 95.8287 230.677 94.7252C230.647 94.6327 230.86 94.7444 230.834 94.6666C230.115 92.7209 230.428 93.9359 230.187 93.2838C228.444 88.6238 226.411 83.6738 224.053 78.9488C223.46 77.7553 222.628 75.9946 222.049 75.0142C221.835 74.6549 222.127 75.3566 221.378 74.1256C221.114 73.7024 221.158 73.475 220.87 73.0269C219.556 71.0625 218.69 70.7986 217.756 69.4244C217.263 69.0019 216.606 68.7213 216.526 68.7652C212.52 68.4655 207.732 68.7086 205.074 69.2633C204.262 69.4171 203.848 69.4131 203.09 69.609C202.55 69.7489 201.662 70.1631 200.872 70.4615C200.081 70.7572 198.784 71.1364 197.398 71.9693C195.926 72.8202 194.396 74.2754 194.132 74.5445C193.798 74.861 193.525 74.8856 193.202 75.2271C192.902 75.5462 192.463 76.0596 191.999 76.691C190.931 78.115 189.759 80.0991 189.079 81.2857C188.01 83.138 187.308 84.2788 186.944 84.9381C186.606 85.5611 186.346 86.3453 186.187 86.6392C185.946 87.0826 185.742 87.0967 185.429 87.6695C184.929 88.5818 184.489 89.6041 183.705 90.9801C176.522 103.632 167.559 114.864 158.341 125.503C149.108 136.065 138.611 145.233 127.458 153.307C124.939 155.112 123.584 156.237 119.75 158.727C118.187 159.73 118.748 159.149 117.555 159.963C117.022 160.325 117.233 160.356 116.554 160.797C113.543 162.76 109.874 164.777 108.521 165.553C108.016 165.845 107.513 166.299 106.518 166.878C106.463 166.91 106.406 166.942 106.349 166.974C98.3322 171.612 87.4712 176.78 76.8955 177.634C74.3994 177.914 71.3468 178.109 68.1709 178.158C64.4287 178.221 60.5036 178.261 57.1592 178.259C44.9467 178.29 31.9722 177.89 20 177.441V175.518C22.8515 175.628 25.5663 175.747 27.3545 175.807C28.9306 175.867 28.6735 176.022 29.1963 176.04C29.5288 176.048 29.4173 175.837 33.5664 175.998C35.6767 176.077 36.1971 176.245 37.2646 176.266C37.8294 176.277 37.7399 176.12 38.5605 176.138C43.3157 176.243 47.1787 176.351 51.8311 176.419C53.1277 176.436 53.1492 176.566 53.4414 176.566C54.5258 176.567 56.3926 176.358 59.1299 176.359C61.4032 176.36 64.8403 176.349 68.1523 176.33C71.4166 176.32 74.5617 176.135 76.4082 175.99C76.965 175.948 77.4287 176.049 77.8369 175.997C78.4513 175.916 78.6658 175.722 78.7725 175.706C80.8131 175.4 79.6107 175.736 80.9688 175.471C81.7005 175.318 82.4341 175.006 84.1133 174.592C86.3244 174.018 85.944 174.32 86.8594 174.042C86.9551 174.009 86.945 173.859 87.8389 173.577C91.2488 172.535 95.9467 170.416 98.8877 168.895C99.7377 168.463 100.421 168.227 101.588 167.606C102.257 167.25 103.793 166.414 105.662 165.356C110.453 162.698 117.244 158.339 118.005 157.862C118.118 157.795 117.114 158.726 118.909 157.536C119.381 157.111 119.844 156.687 120.31 156.26C121.265 155.796 122.203 155.335 123.153 154.856C122.84 154.469 127.778 150.819 128.031 151.265C128.588 150.879 129.141 150.492 129.688 150.105C130.588 148.96 131.414 148.508 133.401 146.657C133.802 146.481 134.201 146.305 134.599 146.128C134.634 146.004 134.67 145.879 134.706 145.753C136.092 145.158 137.652 143.324 137.866 143.136C138.714 142.409 139.399 141.954 139.797 141.605C141.263 140.336 144.292 137.415 145.973 135.896C146.052 135.826 146.097 136.023 146.576 135.596C147.45 134.812 147.345 134.564 148.67 133.681C148.841 133.408 149.011 133.135 149.178 132.863C149.443 132.654 149.706 132.443 149.968 132.235C151.338 130.826 152.683 129.394 154.001 127.938C153.003 129.441 154.534 128.056 155.664 126.447C156.045 125.904 155.523 126.22 155.648 126.039C155.699 125.965 156.294 125.302 157.078 124.411C158.913 122.336 161.74 119.07 162.064 118.798C162.291 118.437 162.515 118.078 162.735 117.722C162.956 117.632 163.176 117.542 163.395 117.453C163.508 117.252 163.621 117.053 163.732 116.854C165.361 115.204 168.673 110.247 169.324 109.424C169.689 108.973 169.781 109.665 171.381 107.44C171.333 107.283 171.285 107.126 171.237 106.97C171.603 106.444 171.959 105.927 172.306 105.419C173.036 104.438 174.189 103.201 174.363 103.223C174.503 102.862 174.64 102.503 174.771 102.149C175.61 101.511 178.481 97.0269 179.422 95.0982C179.837 94.6044 180.242 94.1202 180.641 93.6392C180.991 92.8426 181.313 92.0811 181.645 91.2896C182.586 89.5974 181.722 91.4623 181.942 91.1129C182.432 90.3621 184.311 86.3365 184.515 86.7633C184.806 86.2347 185.101 85.6977 185.389 85.1734C185.435 84.8559 185.492 84.5168 185.541 84.1949C186.388 83.4886 187.073 81.7954 189.087 78.8775C189.173 78.5806 189.262 78.2844 189.354 77.9888C189.938 77.3086 190.536 76.6599 191.16 76.0318C191.302 75.8901 191.444 75.7508 191.587 75.6158C191.61 75.3573 191.636 75.1008 191.672 74.8375C191.963 74.4755 192.261 74.1272 192.574 73.7847C193.452 73.3506 194.498 72.0102 195.29 71.6334C196.44 71.1144 195.701 71.76 194.014 73.2486C194.155 73.1133 199.748 69.4951 201.396 69.2486C201.283 69.2363 201.168 69.225 201.055 69.2144C199.543 69.7704 198.105 70.4742 196.777 71.3287C195.298 71.5021 199.141 69.3615 201.115 68.7633C201.289 68.707 202.22 68.1075 204.281 67.7056C205.076 67.5104 208.266 67.4618 208.873 67.4762C213.783 67.4679 210.166 67.0058 215.007 67.5699C214.395 67.3429 215.212 67.3973 216.617 67.5347C217.012 67.5698 217.714 67.8923 218.456 68.4732C218.814 68.5475 221.607 71.4986 221.711 71.776C222.733 73.221 221.441 71.7431 222.87 73.8648C223.089 74.0793 223.309 74.3021 223.531 74.5328C223.846 75.0688 224.123 75.5614 224.416 76.0953C225.552 79.6089 226.32 80.2142 226.929 81.3336C227.174 81.8027 226.73 81.2479 227.343 82.4947C227.569 82.9601 227.926 83.3917 228.504 84.69C230.251 88.6766 230.208 90.2702 232.244 93.7847C232.377 94.3974 232.511 95.0179 232.634 95.6158C232.882 95.9628 233.131 96.314 233.38 96.6685C234.168 99.7781 234.079 98.5721 234.467 99.6637C235.488 102.518 237.406 108.445 237.315 109.047C238.722 111.351 239.014 114.558 239.346 115.534C239.601 116.096 239.862 116.679 240.113 117.234C240.255 117.94 240.397 118.652 240.539 119.368C241.016 118.861 241.54 122.605 241.634 122.958C241.757 123.38 243.562 128.822 244.152 130.895C244.746 132.949 245.611 136.6 245.695 136.907C245.751 137.106 246.116 138.218 246.562 139.653C246.934 140.853 247.346 142.245 247.673 143.491C248.411 145.873 251.375 160.294 251.396 159.35C251.274 158.395 251.053 157.026 250.837 155.863C250.473 153.865 248.917 146.52 247.006 139.53C245.469 133.83 243.901 128.325 243.207 125.927C240.122 115.249 236.593 104.188 232.708 93.7437C232.478 93.1268 232.587 92.9782 232.391 92.4566C232.095 91.6683 231.152 89.6981 230.838 88.9195C229.684 86.0016 228.171 82.5114 227.445 80.9771C225.857 77.5931 224.745 75.2973 223.263 72.8902C222.836 72.2175 220.195 68.2997 217.872 67.0719C217.476 66.8241 217.084 66.6548 216.688 66.5826C216.67 66.5799 216.652 66.5775 216.635 66.5748C216.652 66.5755 216.671 66.576 216.688 66.5767C218.006 66.3179 221.082 69.207 222.094 70.7574C223.748 73.0395 224.358 74.4883 224.867 75.3707C225.338 76.1482 227.511 80.1097 228.354 82.0181C228.62 82.6022 228.521 82.7797 228.745 83.2818C229.969 86.0071 231.449 89.6477 232.535 92.0279C232.116 91.0483 234.352 97.2594 234.461 97.6129C234.661 98.1649 235.022 98.7129 235.434 99.8717C236.205 102.061 235.817 101.913 237.059 104.553C237.202 105.264 237.348 105.99 237.489 106.708C237.92 106.591 240.197 115.47 241.44 117.804C241.546 117.853 238.073 106.47 237.734 105.557C235.92 99.9604 232.843 91.7943 230.698 86.5299C230.077 84.9105 228.084 79.8812 227.882 79.5338C227.585 78.9346 227.713 79.5414 227.583 79.2857C224.874 74.1347 226.433 76.6253 226.158 75.8814C225.956 75.3627 224.799 73.6728 224.674 73.4801C224.469 73.1377 224.595 73.1862 224.612 73.1705C223.2 70.9295 224.272 73.1133 223.179 71.5357C223.008 71.2279 220.426 67.3878 218.703 66.524C218.119 66.1662 217.406 65.8773 216.743 65.8346C214.686 65.6799 212.876 65.6301 212.073 65.6324C210.26 65.619 206.9 65.9412 204.013 66.5582C202.825 66.8123 202.37 66.7625 201.192 67.1187C197.741 68.1267 192.978 70.734 189.812 74.9713C186.032 79.9295 183.461 85.7847 181.44 89.0308C180.551 90.5474 179.545 91.838 179.071 92.6519C178.768 93.2991 178.442 93.9747 178.126 94.6226C176.354 96.1703 176.483 97.0818 175.181 99.1441C174.381 100.403 173.773 100.92 173.671 101.07C172.911 102.172 172.581 102.801 171.982 103.664C171.281 104.674 170.212 105.973 169.954 106.345C169.796 106.565 170.55 106.053 167.716 109.755C164.817 113.51 161.821 117.138 158.688 120.811C160.375 120.066 160.802 118.702 162.06 117.131C162.388 116.72 162.276 117.057 162.561 116.702C163.365 115.701 164.828 113.688 165.533 112.844C166.285 111.947 166.27 112.446 167.084 111.228C167.126 111.164 166.883 111.279 167.084 110.987C169.047 108.116 169.937 107.317 172.519 103.751C174.451 101.528 183.587 86.2793 183.763 85.689C185.784 83.1612 176.391 99.4019 174.863 101.036C174.411 101.671 174.756 100.933 174.344 101.485C174.178 101.709 172.856 104.061 171.315 106.184C169.469 108.774 165.375 113.729 163.459 116.061C161.262 118.768 159.021 121.431 156.715 124.096C142.178 140.694 124.597 154.116 105.427 164.938C104.989 165.184 104.559 165.424 104.128 165.663C103.636 165.934 103.077 166.426 101.48 167.283C96.4597 169.97 91.1718 172.458 85.5049 173.948C79.8457 175.464 73.9675 175.958 68.1494 176.004C52.1428 176.172 35.9928 175.775 20 175.187V173.685C36.3133 174.268 52.2707 174.535 68.1328 174.334C76.4519 174.29 84.7232 173.095 92.3311 169.833C93.9651 169.278 101.651 165.707 102.983 164.374C104.013 163.417 98.8178 166.565 97.9023 166.988C97.2279 167.326 97.1188 167.196 96.6699 167.417C96.1928 167.65 96.6356 167.559 96.0762 167.832C93.7126 168.987 91.0548 170.067 88.8252 170.848C82.1889 173.241 75.1507 174.03 68.1309 174.094C52.0628 174.276 36.1517 173.985 20 173.307V172.651C20.7311 172.592 21.4557 172.534 22.1953 172.474C22.7001 172.625 23.2227 172.776 23.7432 172.926C23.8468 172.818 23.9513 172.709 24.0557 172.6C29.0232 172.87 34.3367 172.894 39.0928 173.01C42.4014 173.089 43.2101 173.147 46.1396 173.182C52.6853 173.244 46.1753 173.393 51.6133 173.688C51.3321 173.548 51.0454 173.408 50.7637 173.268C51.679 173.226 52.5545 173.182 53.4629 173.137C54.0971 173.253 54.7116 173.369 55.3369 173.484C58.1195 172.913 59.9214 173.378 60.2939 173.378C60.5958 173.376 61.6498 173.029 64.9395 173.306C63.5755 172.836 67.4331 173.286 67.7559 173.284C67.8018 173.284 67.9315 173.28 68.123 173.274C69.1621 173.251 71.9952 173.088 73.2617 172.998C74.4424 172.933 76.9437 172.811 78.6748 172.544C80.1906 172.311 80.0159 172.16 80.124 172.143C81.9776 171.793 80.8382 172.135 82.1787 171.871C83.5151 171.594 84.5034 171.186 84.7891 171.123C84.9328 171.091 84.4951 171.366 85.1533 171.203C86.9308 170.78 90.0071 169.576 91.9385 168.748C92.6224 168.463 93.5367 168.202 94.2969 167.856C95.4606 167.325 95.9273 166.903 96.5918 166.582C96.8266 166.468 98.4263 165.969 100.235 164.954C100.588 164.755 101.327 163.727 103.063 163.667C103.114 163.511 103.162 163.357 103.211 163.203C103.527 163.01 103.836 162.823 104.138 162.644C109.361 159.51 111.351 159.13 113.432 156.934C117.728 154.286 114.986 156.416 115.476 156.161C115.795 155.992 117.121 155.019 117.278 154.919C117.551 154.749 117.562 154.863 117.854 154.668C123.174 151.041 120.702 152.47 122.301 151.215C126.081 148.159 129.494 146.428 122.555 151.229C122.587 151.275 122.62 151.32 122.652 151.366C124.327 150.139 128.571 146.988 127.329 148.272C126.402 149.36 116.002 156.395 122.024 152.6C123.383 151.731 123.95 151.082 126.438 149.742C127.942 148.651 127.851 148.088 129.955 146.725C129.521 146.836 129.088 146.944 128.653 147.052C131.221 144.807 134.674 142.397 136.602 140.619C137.263 140.022 139.105 137.281 139.106 138.407C140.216 137.408 145.478 132.728 146.333 131.73C146.539 131.487 146.546 130.918 149.811 127.762C150.07 127.573 150.328 127.384 150.583 127.196C147.841 130.322 153.011 125.103 151.955 126.844C151.35 127.226 148.99 129.517 148.535 129.829C147.782 130.352 149.527 128.29 147.145 130.769C146.121 132.813 150.264 128.171 150.077 129.314C152.992 125.813 153.467 125.662 154.18 124.903C154.718 124.315 155.23 123.741 155.692 123.212C157.821 120.767 159.343 118.917 161.571 116.314C162.126 115.443 157.124 121.12 156.574 121.82C157.758 119.942 156.605 121.111 155.2 122.786C154.461 123.668 153.642 124.684 153.13 125.402C152.881 125.454 152.63 125.506 152.38 125.558C153.293 124.61 154.199 123.633 155.056 122.661C156.328 121.215 157.488 119.832 158.66 118.324C158.836 118.201 159.012 118.079 159.187 117.958C158.797 118.555 158.398 119.159 157.989 119.772C159.836 117.793 158.43 118.802 161.021 116.276C160.96 116.084 160.9 115.892 160.839 115.701C163.043 113.108 165.195 110.495 167.295 107.831C168.126 106.232 172.044 101.014 171.69 102.243C173.247 100.087 171.179 102.626 172.506 100.545C173.082 99.6403 174.242 97.8997 174.63 97.5221C174.858 97.9447 173.123 100.599 172.818 101.519C173.367 101.181 180.907 88.628 180.558 89.9263C181.202 88.9211 180.712 89.2845 181.691 87.4078C183.672 83.6718 186.444 78.4528 189.382 74.6344C190.552 73.0821 191.758 71.7979 192.733 70.7701C190.973 72.0547 189.878 73.2646 189.03 74.358C187.655 76.1673 186.852 77.6514 185.499 79.982C184.187 82.4515 175.959 96.9132 177.403 93.4508C177.125 94.0075 176.86 94.5339 176.57 95.0943C176.125 95.5509 175.693 95.9807 175.237 96.439C176.17 94.9748 177.086 93.4808 177.961 91.9976C178.292 91.7025 178.618 91.4122 178.939 91.1275C178.954 90.9196 178.973 90.7056 178.991 90.4898C179.351 89.8421 179.696 89.2079 180.045 88.5592C180.041 88.7921 180.036 89.0274 180.029 89.2642C180.611 88.2914 181.173 87.3285 181.746 86.3326C181.469 86.5245 181.187 86.7233 180.906 86.9185C183.454 82.2293 182.647 83.8492 184.34 81.3785C185.472 79.4515 183.313 82.5868 185.657 78.4439C187.782 74.9607 187.557 75.8275 188.862 74.2252C189.376 73.638 190.105 72.7236 191.54 71.357C191.567 71.2304 191.597 71.1037 191.626 70.9771C192.892 69.9456 194.268 69.0494 195.708 68.3111C195.477 68.3365 195.241 68.3668 195.01 68.399C197.875 66.5733 202.351 65.1675 203.501 65.3521C200.176 65.9447 200.442 66.679 201.289 66.5084C202.142 66.2448 209.299 64.6897 216.772 65.4351C220.74 66.2051 222.646 69.9015 224.371 72.3512C226.024 74.9741 227.123 77.1785 227.678 78.275C230.514 84.0366 232.093 88.5895 234.468 93.9635C233.426 90.0983 227.721 77.3667 226.393 75.0347C226.275 74.7921 226.845 74.5786 225.414 73.4205C224.548 71.8803 223.518 70.2452 222.227 68.6871C220.913 67.2053 219.404 65.3809 216.8 65.066C214.549 64.9209 212.213 64.8474 209.838 64.9351C210.039 64.7589 210.246 64.5834 210.452 64.4097ZM298.867 201.143C298.848 201.173 298.906 201.216 299.024 201.267C299.973 201.799 305.039 202.223 305.082 202.029C305.095 201.974 303.024 201.864 302.733 201.79C302.732 201.789 302.729 201.789 302.728 201.789C302.61 201.764 303.235 201.716 302.278 201.581C301.196 201.502 300.119 201.366 299.045 201.174C298.986 201.164 298.926 201.154 298.867 201.143ZM309.475 201.587C309.285 201.617 305.904 201.808 305.738 201.785C303.69 202.134 310.771 201.809 309.475 201.587ZM292.733 200.084C293.776 200.206 294.806 200.318 295.842 200.424C294.632 200.143 293.423 199.853 292.218 199.551C292.388 199.729 292.561 199.906 292.733 200.084ZM211.079 59.0025C213.186 58.9826 215.249 59.0822 217.232 59.2359C222.559 59.9715 224.244 62.5067 225.932 64.1431C227.518 65.9277 228.66 67.6409 229.722 69.357C231.772 72.7147 233.419 76.1121 234.924 79.4517C237.915 86.1488 240.402 92.8955 242.727 99.6295C242.799 99.6094 242.872 99.589 242.944 99.5689C244.219 104.172 245.199 105.561 245.63 108.28C246.235 109.829 246.84 111.407 247.431 112.962C249.936 121.112 252.279 129.246 254.543 137.43C256.36 143.976 257.925 150.601 259.292 157.173C260.694 163.72 261.768 170.154 263.906 175.108C268.501 186.399 285.341 190.787 300.591 194.192C303.826 194.907 307.086 194.932 310.516 194.351C311.971 194.083 312.358 194.202 314.808 193.521C317.493 192.765 321.309 191.082 324.87 189.36C328.007 187.88 332.744 185.46 336.213 183.421C336.985 182.971 337.504 182.541 337.594 182.488C338.116 182.178 338.231 182.295 338.738 181.993C339.329 181.64 339.988 181.098 340.692 180.67C343.286 179.1 346.066 177.255 346.401 177.041C347.998 176.026 348.397 175.948 348.535 175.862C350.29 174.735 349.564 175.04 350.005 174.76C352.259 173.324 354.038 172.564 356.941 170.189C356.935 170.352 356.921 170.52 356.91 170.686C359.276 169.17 357.546 169.922 357.984 169.548C358.168 169.401 363.217 165.994 363.632 165.71C364.995 164.796 365.12 164.919 365.24 164.839C365.37 164.754 366.131 164.178 367.093 163.474V165.421C364.034 167.547 359.303 170.801 358.969 170.986C359.42 170.566 359.875 170.143 360.334 169.716C359.649 170.173 358.97 170.624 358.299 171.068C359.203 170.364 360.123 169.646 361.056 168.917C359.168 169.283 355.336 172.817 355.37 173.252C355.39 173.453 358.273 172.061 355.977 173.928C356.371 173.718 356.769 173.505 357.169 173.291C357.902 172.705 358.631 172.121 359.343 171.546C358.806 171.854 358.295 172.144 357.74 172.462C357.899 172.291 358.068 172.111 358.219 171.945C359.564 170.93 361.008 169.84 362.352 168.814C363.102 168.347 363.041 168.58 363.562 168.258C365.633 166.977 366.601 166.349 367.093 165.999V166.838C365.106 168.266 363.286 169.598 363.031 169.77C362.61 170.072 354.857 175.164 354.475 175.372C354.273 175.488 354.359 174.764 352.998 176.382C352.476 176.742 351.972 177.088 351.431 177.458C351.456 177.307 351.483 177.156 351.509 177.005C348.574 179.436 349.551 178.519 346.518 180.51C339.295 185.241 328.258 191.801 319.777 194.971C317.879 195.68 317.203 196.065 314.938 196.713C312.814 197.432 307.301 197.676 308.539 198.067C303.856 197.893 303.068 198.409 300.831 197.561C300.541 197.583 300.249 197.601 299.955 197.614C299.917 197.6 299.879 197.587 299.842 197.574C297.265 196.693 296.337 196.766 293.411 196.087C292.139 195.783 293.678 195.828 291.027 195.535C290.543 195.378 290.062 195.22 289.586 195.061C289.72 195.012 289.854 194.963 289.988 194.914C287.152 194.206 286.994 194.088 287.224 194.483C285.891 194.035 284.562 193.563 283.259 193.067C283.064 193.109 282.865 193.148 282.667 193.188C282.936 193.435 290.987 195.984 299.795 197.785C307.538 199.63 315.82 196.79 317.786 196.076C322.705 194.837 331.974 189.743 335.656 187.601C337.137 186.772 337.906 186.592 340.064 185.325C342.203 184.069 344.748 182.224 345.889 181.488C349.627 179.189 367.142 167.361 355.413 175.626C355.823 175.486 356.215 175.359 356.619 175.222C361.168 171.692 359.54 173.076 363.487 170.424C364.381 169.824 365.885 168.703 367.093 167.885V168.307C364.645 170.007 362.101 171.634 359.987 173.076C359.743 173.245 356.696 175.587 355.028 176.62C353.508 177.56 354.295 176.466 351.358 179.049C348.712 180.148 347.537 181.468 346.953 181.903C345.913 182.671 345.626 182.543 344.519 183.203C343.33 183.909 342.555 184.59 342.398 184.688C340.771 185.767 332.084 190.792 331.576 190.865C331.908 190.635 332.242 190.402 332.579 190.166C330.24 191.344 330.872 191.296 330.265 191.654C329.806 191.891 329.352 192.123 328.903 192.348C329.056 192.209 329.209 192.069 329.362 191.928C326.651 193.293 328.822 192.481 324.897 194.308C322.389 195.455 319.695 196.227 319.447 196.328C319.379 196.358 320.235 196.2 319.191 196.598C317.497 197.268 314.441 198.108 314.072 197.976C313.322 198.181 313.317 198.331 313.252 198.386L313.149 198.442C312.202 198.841 304.006 199.663 302.526 199.161C301.565 199.056 300.588 198.896 299.598 198.678C295.968 197.879 292.159 196.957 288.475 195.954C287.987 195.82 288.329 195.79 287.842 195.656C287.048 195.457 283.015 194.405 282.433 194.198C280.942 193.758 277.192 192.2 276.608 191.974C276.528 191.949 277.676 192.626 276.229 192.052C274.635 191.396 275.574 191.574 275.488 191.535C272.348 189.989 270.404 188.992 268.461 187.67C267.831 187.242 266.824 186.261 266.004 185.599C265.909 185.524 265.989 185.798 265.894 185.725C264.622 184.726 263.821 183.419 263.399 182.891C262.372 181.578 262.787 182.404 262.729 182.342C262.025 181.471 261.218 180.2 260.421 178.711C260.108 178.126 259.828 177.545 259.571 176.95C256.902 170.606 256.046 164.359 254.362 156.602C254.138 155.533 254.006 154.23 253.97 154.065C253.856 153.555 253.721 153.742 253.396 152.274C252.711 149.196 252.008 146.331 251.226 143.308C251.068 142.7 251.152 142.383 251.035 141.928C250.867 141.277 250.447 139.995 250.034 138.686C249.464 136.88 248.945 135.096 249.227 134.961C247.903 132.01 247.705 129.869 246.981 127.414C245.274 121.58 242.377 112.507 240.505 106.728C240.12 105.529 240.05 104.898 239.829 104.222C239.461 103.034 236.949 96.1428 236.821 95.7877C236.593 95.0588 237.337 95.2912 235.473 91.8424C234.637 89.7703 234.941 89.8939 234.786 89.4596C233.543 86.0112 231.608 82.956 232.337 83.3736C230.506 79.4901 229.015 77.1489 228.593 75.3346C228.399 75.4691 227.359 73.7158 226.125 71.5513C227.738 73.5372 227.926 73.1132 230.557 78.6334C230.595 78.7175 230.371 78.6295 230.409 78.7135C230.761 79.4719 231.603 81.0925 232.181 82.4351C232.769 83.8031 232.33 83.0847 232.564 83.6197C232.776 84.1067 232.915 84.0265 233.222 84.7457C234.205 87.0616 235.054 89.0968 235.582 90.4498C235.905 91.2759 236.131 92.2594 236.38 92.9215C237.337 95.425 239.356 100.76 240.425 103.996C240.648 104.67 240.411 104.45 240.89 105.922C240.945 106.095 241.307 106.661 241.768 107.952C242.231 109.253 242.469 110.252 242.756 111.09C242.992 111.781 243.044 111.467 243.501 112.873C243.932 114.071 247.915 127.599 248.077 128.354C248.353 129.421 248.306 129.99 248.517 130.631C248.554 130.743 248.799 130.879 248.925 131.267C249.521 133.101 250.254 135.585 251.042 138.405C253.055 145.465 254.958 154.6 256.043 160C257.286 165.921 258.325 171.629 260.455 176.574C263.813 184.624 272.041 189.514 281.201 192.758C281.479 192.823 281.75 192.882 282.025 192.942C280.527 192.416 279.057 191.855 277.611 191.241C277.638 191.152 277.665 191.063 277.692 190.974C275.767 190.125 275.947 190.417 275.94 190.566C275.251 190.187 274.584 189.801 273.922 189.396C273.148 189.421 268.806 186.665 266.96 184.935C265.694 183.869 264.29 182.515 263.765 181.834C262.657 180.399 262.897 180.295 262.81 180.184C262.674 180.004 261.299 178.17 260.616 176.505C260.58 176.42 260.544 176.336 260.51 176.253C259.488 173.616 259.664 173.269 258.391 169.479C257.298 164.448 256.17 158.566 254.866 152.903C255.387 153.93 253.982 148.874 253.413 146.603C252.766 143.946 252.051 141.173 251.273 138.34C248.003 126.402 244.156 113.218 240.423 102.091C239.819 100.291 239.524 98.9538 239.159 97.9459C238.966 97.4124 238.698 97.2447 238.459 96.5055C238.416 96.3727 238.563 96.2347 238.079 94.8346C236.932 91.3788 233.241 83.0532 232.549 80.8062C231.041 77.5096 229.391 74.1614 227.405 70.9459C226.382 69.306 225.288 67.6964 223.866 66.107C222.387 64.6208 220.824 62.605 217.019 62.1178C211.655 61.7431 205.914 61.7936 200.278 63.5094C199.921 63.5389 199.565 63.5738 199.206 63.6168C197.193 64.4119 190.041 67.9714 186.771 72.5816C186.09 73.4361 185.51 74.2396 185.042 74.9342C180.403 82.2513 176.399 90.8883 172.427 96.5211C171.607 97.7538 170.827 98.6982 170.032 99.8355C169.679 100.341 169.368 101.023 169.003 101.533C164.923 107.287 158.74 114.71 154.081 120.102C153.802 120.427 153.519 120.754 153.234 121.084C143 132.795 131.59 142.532 118.481 151.549C113.537 154.929 108.447 158.093 103.231 161.031C97.6236 164.182 92.0701 167.133 86.2881 168.933C80.5165 170.764 74.4043 171.389 68.1055 171.456C52.0171 171.67 36.0768 171.333 20 170.755V167.244C31.8251 167.644 43.0777 167.937 53.5537 167.987C58.3856 168.022 63.2095 168.021 68.0713 167.984C74.191 167.942 79.9171 167.369 85.2949 165.691C90.6836 164.045 96.064 161.239 101.613 158.151C107.511 154.864 113.23 151.292 118.716 147.472C119.709 146.78 120.397 146.473 120.844 146.155C125.105 143.16 131.847 137.615 135.689 134.192C140.037 130.4 145.86 124.821 150.874 119.04C155.458 113.782 159.664 108.634 162.543 104.972C165.172 101.655 167.707 98.1115 168.918 96.981C169.81 95.7143 169.993 94.8385 170.201 94.4928C170.204 94.4893 170.207 94.4855 170.21 94.482C170.882 93.3847 172.803 90.7824 173.169 90.1412C173.22 90.0494 172.68 90.4863 173.638 89.0435C173.722 88.9126 173.795 89.1191 174.539 87.8638C174.746 87.55 176.949 83.1494 177.628 81.8433C178.885 79.5816 181.064 75.17 184.526 70.818C187.541 66.9486 191.762 64.043 194.779 62.6334C195.797 62.146 196.354 61.8033 197.457 61.3844C198.025 61.1683 198.916 60.9845 199.092 60.9312C199.853 60.6368 203.14 59.4109 202.125 60.5894C205.584 59.8403 204.52 59.7961 204.566 59.565C208.376 58.9959 210.129 59.4981 211.079 59.0025ZM342.652 195.233C340.134 196.648 336.197 198.665 337.142 198.553C338.736 197.663 340.336 196.736 341.887 195.81C342.141 195.619 342.396 195.427 342.652 195.233ZM303.098 196.809C299.41 196.465 304.223 197.249 302.519 197.253C303.233 197.323 303.951 197.363 304.667 197.376C304.136 197.203 303.608 197.013 303.098 196.809ZM304.168 196.899C306.287 196.635 308.427 197.036 309.498 196.775C309.726 196.719 309.232 196.586 308.797 196.587C308.49 196.68 304.024 196.614 303.662 196.525C303.828 196.651 303.997 196.776 304.168 196.899ZM306.616 196.054C305.554 195.926 303.743 195.829 303.695 196.075C304.712 196.236 305.743 196.335 306.789 196.375C306.573 196.315 306.798 196.079 306.616 196.054ZM296.169 194.961C295.443 195.032 293.743 194.925 295.291 195.543C295.293 195.543 295.295 195.543 295.297 195.544C295.583 195.658 296.798 195.969 297.158 196.114C299.911 196.419 298.942 195.876 296.169 194.961ZM330.323 193.832C327.837 194.91 327.074 196.084 329.921 194.321C330.005 194.267 330.427 193.788 330.323 193.832ZM322.118 191.904C319.991 192.812 317.825 193.625 315.688 194.267C316.798 194.468 318.293 193.447 320.225 193.131C320.913 192.862 321.548 192.603 322.226 192.315C322.227 192.314 322.229 192.314 322.23 192.313C322.193 192.177 322.155 192.04 322.118 191.904ZM336.239 189.21C333.392 190.86 330.521 192.432 327.595 193.873C327.679 193.769 327.763 193.665 327.848 193.561C330.659 192.165 333.422 190.649 336.166 189.058C336.19 189.108 336.215 189.159 336.239 189.21ZM284.21 192.018C282.418 191.195 281.617 191.388 281.89 191.519C283.453 192.237 285.152 192.442 284.21 192.018ZM288.013 191.726C279.915 189.393 284.373 191.118 287.2 191.7C287.763 191.812 288.088 191.829 288.013 191.726ZM327.232 189.857C328.459 189.24 329.712 188.236 327.28 189.405C324.95 190.491 324.266 191.31 327.232 189.857ZM264.229 188.657C265.046 189.345 265.898 189.993 266.764 190.598C266.755 190.502 265.772 189.797 265.454 189.478C265.455 189.479 265.458 189.481 265.459 189.482C265.105 189.13 265.328 189.186 264.656 188.581C264.515 188.607 264.372 188.632 264.229 188.657ZM260.776 182.319C260.325 182.448 266.032 188.229 266.865 188.317C262.896 184.717 264.249 186.604 260.776 182.319ZM353.384 186.113C353.154 185.951 351.626 186.83 349.838 188.186C349.971 188.191 350.105 188.196 350.239 188.2C351.084 187.398 352.583 186.907 355.55 184.901C355.478 184.792 355.406 184.682 355.334 184.573C354.676 185.093 354.026 185.607 353.384 186.113ZM345.177 184.288C347.358 182.643 351.861 179.688 350.522 181.14C347.935 182.544 346.486 183.708 342.828 185.813C343.3 185.413 343.789 185.001 344.26 184.597C344.262 184.596 344.265 184.595 344.267 184.593C344.568 184.493 344.872 184.391 345.177 184.288ZM349.688 179.334C349.453 179.497 348.748 180.017 348.704 180.041C348.582 180.102 348.611 179.86 347.789 180.365C345.841 181.548 343.638 183.6 349.789 179.469C349.755 179.424 349.721 179.379 349.688 179.334ZM362.08 175.597C359.278 177.498 356.981 179.208 353.793 181.046C356.605 178.938 358.222 178.248 360.909 176.053C360.911 176.052 360.913 176.051 360.914 176.05C361.301 175.901 361.69 175.75 362.08 175.597ZM364.368 177.846C363.854 178.197 363.342 178.543 362.836 178.886C362.733 179.103 362.621 179.328 362.514 179.547C363.398 178.96 364.23 178.404 365.105 177.818C364.859 177.828 364.613 177.837 364.368 177.846ZM347.716 177.791C349.7 176.569 348.863 176.672 348.726 176.743C347.847 177.187 344.535 179.737 347.716 177.791ZM367.093 173.795C366.678 174.048 366.492 174.022 366.122 174.273C363.753 175.885 361.67 177.721 361.122 177.47C363.421 176.095 365.289 174.394 365.643 174.184C365.772 174.108 366.337 173.859 367.093 173.427V173.795ZM357.866 176.294C362.659 172.994 357.812 176.722 356.558 177.357C355.783 177.756 357.387 176.623 357.866 176.294ZM359.9 174.564C363.168 172.695 354.076 178.711 356.809 176.648C356.929 176.56 359.759 174.65 359.9 174.564ZM120.536 160.47C124.43 157.528 116.329 162.425 115.355 163.023C115.23 163.108 115.353 163.262 114.56 163.787C113.697 164.361 110.311 166.346 107.186 168.068C105.203 169.168 103.318 170.189 102.326 170.767C102.244 170.666 102.161 170.563 102.078 170.462C101.014 171.17 99.9296 171.871 98.8281 172.554C98.5573 172.476 95.0419 174.441 95.6914 173.585C94.5613 174.279 93.4024 174.951 92.21 175.591C92.2361 175.632 92.2628 175.672 92.2891 175.712C93.5257 175.204 94.737 174.662 95.9248 174.094C95.9597 174.161 95.9944 174.227 96.0293 174.294C97.7854 173.311 104.882 169.711 104.767 170.037C105.088 169.734 105.393 169.438 105.71 169.135C106.28 168.877 106.806 168.621 107.341 168.345C110.046 166.95 112.392 165.358 115.441 163.761C115.663 163.515 115.881 163.27 116.103 163.022C116.318 162.975 116.535 162.928 116.75 162.88C118.019 162.092 119.284 161.286 120.536 160.47ZM58.748 175.318C59.3996 175.467 60.7184 175.322 61.2139 175.344C61.3312 175.35 60.4185 175.477 61.5264 175.511C61.8393 175.426 62.1579 175.34 62.4688 175.254C61.2151 175.278 60.0017 175.299 58.748 175.318ZM356.443 171.679C352.612 174.376 353.476 173.483 353.284 173.598C349.889 175.594 352.986 174.864 356.443 171.679ZM367.093 170.19C365.291 171.396 363.486 172.599 361.651 173.811C362.08 173.351 362.513 172.887 362.949 172.42C364.191 171.684 365.41 170.959 366.672 170.201C365.993 170.693 365.32 171.18 364.655 171.661C365.47 171.143 366.281 170.625 367.093 170.107V170.19ZM203.221 63.691C207.269 62.8908 208.836 62.7363 212.922 62.8472C213.277 62.8602 214.322 63.2359 215.003 62.8463C215.956 62.9694 216.553 63.0524 216.946 63.0963C218.968 63.5333 218.258 62.9227 220.875 64.4937C223.881 66.7812 225.311 69.3821 226.843 71.8638C227.592 73.2931 223.651 67.7965 223.186 67.5152C222.691 66.929 222.317 66.2173 221.746 65.6803C220.431 64.362 218.264 63.4007 216.93 63.3189C216.773 63.2931 216.652 63.2628 216.577 63.2242C214.025 63.2601 217.193 63.3622 216.859 63.525C215.183 63.3269 213.477 63.172 211.748 63.0992C210.913 63.4291 201.209 63.9207 201.975 64.4947C201.195 64.5964 200.414 64.7285 199.634 64.8951C196.597 66.6432 194.523 67.0632 190.79 69.9898C191.09 69.8224 191.402 69.6545 191.708 69.5006C191.585 69.5399 188.757 72.4886 189.57 71.234C188.793 72.2101 188.279 72.8829 187.839 73.4215C186.842 74.6766 186.21 75.0925 185.155 77.4283C184.119 79.2667 184.476 78.0355 182.659 81.2818C181.597 83.2101 180.475 85.6252 179.297 87.7164C179.031 88.1884 178.763 88.3136 178.514 88.7457C178.273 89.1627 178.299 89.4478 177.998 89.9683C177.389 91.0235 176.468 92.3104 176.062 92.981C175.72 93.5498 175.319 94.4725 174.436 95.8717C171.32 100.716 172.064 99.1575 171.51 99.858C170.891 100.613 170.715 101.354 169.536 102.931C169.416 103.091 169.581 102.571 169.203 103.103C168.906 103.519 168.927 103.816 167.915 105.237C167.578 105.809 161.08 114.166 160.015 115.38C158.723 116.962 156.172 119.836 154.263 121.974C153.814 122.478 153.389 122.951 153.061 123.321C152.412 124.05 151.821 124.926 151.11 125.691C148.772 128.232 144.856 132.145 141.616 135.095C138.729 137.791 133.207 141.998 131.693 143.561C127.366 147.051 126.103 147.593 125.77 147.853C124.856 148.518 124.536 148.966 123.384 149.806C117.662 153.976 110.987 158.305 103.924 162.262C98.2241 165.457 92.4218 168.497 86.5557 170.277C80.7046 172.092 74.7836 172.632 69.4521 172.753C69.0143 172.763 68.5694 172.77 68.1182 172.775C52.0814 172.976 36.093 172.634 20 172.054V171.094C20.0284 171.095 20.0574 171.095 20.0869 171.096C21.6209 171.143 19.9415 171.254 23.3535 171.439C25.0507 171.534 30.9566 171.606 32.3936 171.643C33.8365 171.685 35.4149 171.853 37.4111 171.891C40.2524 171.951 46.4807 171.99 49.377 171.975C49.5487 171.975 49.97 171.816 50.3975 171.824C51.2836 171.839 51.0209 172.037 51.6885 172.063C52.3556 172.106 63.9324 172.099 65.9004 172.066C66.7914 172.06 67.5084 172.002 68.1104 171.962C68.4135 171.941 68.6837 171.922 68.9307 171.919C69.4991 171.909 69.5666 172.075 70.1533 172.06C70.3357 172.055 71.8637 171.866 73.3838 171.765C74.8405 171.735 80.2228 171.166 80.8281 170.988C81.2279 170.91 80.7692 170.887 81.9443 170.647C83.0092 170.423 83.743 170.395 84.3467 170.24C85.7476 169.878 87.2519 169.272 88.6963 168.749C92.8342 167.182 92.683 167.322 92.9346 167.247C93.6244 166.958 93.8245 166.672 94.0449 166.566C94.9819 166.125 97.2563 164.956 98.084 164.509C99.1165 163.961 99.636 163.872 100.728 163.281C101.332 162.952 102.313 162.316 103.535 161.572C103.988 161.296 104.468 161.008 104.967 160.72C109.115 158.334 113.941 155.291 117.831 152.664C118.997 151.877 119.256 151.88 119.61 151.641C121.481 150.375 122.404 149.498 122.926 149.127C126.681 146.491 133.264 141.637 136.488 138.843C137.829 137.744 143.392 132.581 146.396 129.545C146.744 129.199 146.505 129.607 146.875 129.209C147.751 128.26 147.501 128.164 147.963 127.701C148.184 127.479 148.793 127.048 149.437 126.388C151.237 124.542 152.662 122.926 153.805 121.578C154.828 120.37 155.609 119.422 156.271 118.647C162.283 111.6 168.079 104.303 173.165 96.7008C178.473 89.1854 181.705 80.9417 187.502 73.1558C189.315 70.848 191.529 68.8464 193.984 67.316C196.086 65.9953 198.895 64.5334 202.515 63.8433C202.641 63.891 202.768 63.9396 202.894 63.9888C203.002 63.8894 203.111 63.7894 203.221 63.691ZM112.21 160.374C112.891 159.676 107.671 162.922 105.1 164.355C104.619 164.629 104.241 164.841 104.017 164.963C103.357 165.324 102.521 165.646 102.115 165.863C101.679 166.096 101.158 166.565 100.085 167.124C99.7751 167.297 96.1842 168.915 94.6426 169.62C94.8546 169.596 95.0625 169.573 95.2725 169.548C97.165 168.683 99.0281 167.747 100.864 166.78C100.697 166.911 100.533 167.04 100.363 167.171C102.835 165.96 103.92 165.152 105.148 164.442L105.68 164.144C105.839 164.059 106.098 164.07 106.681 163.742C108.027 162.999 111.829 160.781 112.21 160.374ZM364.832 165.719C366.551 163.947 358.648 169.332 361.645 168.122C362.042 167.877 362.442 167.629 362.844 167.379L364.832 165.719ZM365.367 166.119C367.214 164.833 366.533 164.761 366.041 165.043C365.188 165.532 363.308 166.919 364.268 166.529C364.456 166.447 366.243 165.02 365.367 166.119ZM118.446 155.199C117.459 155.16 109.384 160.789 104.547 163.372C104.181 163.573 103.839 163.756 103.526 163.92C103.326 164.152 103.806 163.953 104.632 163.524C106.424 162.605 109.721 160.587 110.753 159.979C111.513 159.547 115.679 157.377 118.524 155.228C118.499 155.218 118.472 155.209 118.446 155.199ZM125.991 156.159C124.182 157.485 123.155 158.319 123.331 157.877C122.867 158.231 122.398 158.586 121.927 158.939C122.606 159.09 123.18 158.818 126.522 156.013C126.346 156.062 126.168 156.111 125.991 156.159ZM122.04 153.784C121.213 154.415 120.395 155.03 119.559 155.649C120.272 155.226 120.983 154.799 121.686 154.371C121.806 154.174 121.926 153.977 122.045 153.781C122.043 153.782 122.041 153.783 122.04 153.784ZM117.342 154.533C118.94 153.437 120.213 152.609 119.998 153.008C119.143 153.584 118.278 154.157 117.415 154.72C117.391 154.658 117.366 154.595 117.342 154.533ZM136.722 148.245C134.683 150.23 133.596 150.696 133.062 151.089L131.797 152.008C130.534 152.919 129.293 153.791 128.04 154.621C128.733 154.319 129.416 154.02 130.107 153.711C132.37 152.009 134.599 150.261 136.792 148.467C136.769 148.393 136.745 148.319 136.722 148.245ZM136.772 142.378C134.27 144.93 126.754 150.074 124.588 151.987C124.452 152.111 125.932 151.234 123.832 153.076C125.513 151.814 126.67 150.884 126.665 150.615C127.206 150.31 127.758 149.992 128.3 149.679C129.086 149.019 129.887 148.339 130.662 147.667C130.705 147.909 130.773 147.847 131.927 146.752C132.524 146.353 133.136 145.937 133.731 145.53C133.911 145.266 134.09 145.001 134.271 144.734C134.843 144.438 135.406 144.145 135.974 143.844C137.766 142.168 136.458 142.928 136.772 142.378ZM132.332 143.808C132.586 143.832 125.362 149.338 127.717 147.243C129.275 146.117 130.807 144.978 132.332 143.808ZM142.614 143.882C145.553 140.871 142.916 143.256 142.727 143.038C142.068 143.728 141.392 144.424 140.723 145.106C139.26 146.081 139.793 145.462 140.144 145.085L140.348 144.859C140.291 144.793 140.337 144.73 139.622 145.266C139.233 145.896 138.837 146.529 138.432 147.163C140.865 145.231 140.309 145.528 142.614 143.882ZM139.879 138.572C142.689 135.533 135.842 141.892 135.469 142.129C135.116 142.446 130.479 145.875 130.277 146.155C129.676 147.101 132.569 144.648 133.636 143.95C135.367 142.822 133.165 144.909 136.925 141.586C136.816 141.776 136.707 141.967 136.6 142.155C138.86 140.273 137.777 140.502 138.137 140.108C138.251 139.985 139.647 138.824 139.879 138.572ZM156.227 123.673C155.45 124.57 154.64 125.483 153.822 126.386C152.023 128.356 150.238 129.879 146.929 133.657C146.013 134.485 146.169 134.016 146.054 134.111C145.712 134.604 133.411 145.542 139.351 140.967C140.808 139.685 142.264 138.366 143.685 137.037C142.014 137.6 146.33 134.469 146.651 134.153C148.206 132.756 149.96 130.741 151.01 129.658C151.923 128.719 152.546 128.245 153.165 127.573C154.159 126.494 155.398 125.112 156.438 123.857C157.655 122.394 158.572 121.195 158.688 120.811C157.891 121.746 157.08 122.688 156.227 123.673ZM133.082 137.991C132.2 138.806 131.308 139.615 130.402 140.42C131.131 139.879 131.839 139.346 132.561 138.795C132.736 138.526 132.91 138.258 133.082 137.991ZM144.729 134.522C143.35 135.128 143.506 135.739 139.575 138.962C139.323 139.296 139.07 139.629 138.813 139.964C140.323 138.634 141.813 137.28 143.278 135.902L144.729 134.522ZM152.891 133.872C151.33 135.313 149.745 136.723 148.138 138.105C147.494 138.974 147.321 139.489 149.433 137.643C149.434 137.642 149.436 137.64 149.438 137.639C149.31 137.174 151.466 135.556 152.313 134.654C152.508 134.392 152.698 134.134 152.891 133.872ZM246.426 137.022C246.549 136.771 246.673 136.52 246.797 136.269C246.597 135.722 246.398 135.174 246.194 134.617C246.276 135.431 246.349 136.219 246.426 137.022ZM136.129 135.38C135.783 135.781 135.432 136.183 135.077 136.586C135.637 136.125 136.182 135.674 136.736 135.209C137.069 134.854 137.398 134.499 137.723 134.146C137.198 134.556 136.663 134.971 136.129 135.38ZM152.797 133.763C152.901 133.734 156.765 129.957 155.823 130.478C155.349 130.77 152.601 133.86 152.797 133.763ZM176.858 105.147C177.216 102.756 169.432 115.3 170.489 112.249C170.488 112.25 170.487 112.252 170.486 112.253C170.116 112.755 169.709 113.299 169.349 113.781C169.482 114.013 169.615 114.245 169.748 114.478C168.183 115.5 167.171 117.694 164.647 120.084C164.503 120.376 164.356 120.671 164.208 120.967C163.735 121.409 161.408 124.104 159.41 126.43C157.447 128.723 155.801 130.593 156.891 129.694C157.814 128.935 159.366 126.861 159.588 126.584C159.595 126.575 159.602 126.567 159.606 126.562C160.134 125.981 160.959 125.351 161.776 124.373C162.236 123.822 163.112 122.4 164.061 121.261C166.26 118.641 170.73 114.17 172.934 110.151C173.188 109.937 173.438 109.728 173.691 109.513C175.668 106.757 174.812 107.532 176.858 105.147ZM248.688 122.16C248.845 122.316 249.001 122.472 249.157 122.628C248.756 121.677 248.341 120.69 247.935 119.737C248.186 120.538 248.437 121.346 248.688 122.16ZM156.961 120.153C155.418 121.834 159.332 116.508 159.496 117.054C158.675 118.071 157.811 119.126 156.961 120.153ZM171.191 103.42C167.959 108.008 164.921 111.531 161.846 115.752C162.513 115.835 172.241 102.374 171.191 103.42ZM176.607 108.106C174.926 109.821 173.833 111.81 171.52 114.679C171.581 114.721 171.643 114.763 171.705 114.805C172.515 113.485 175.025 110.394 176.607 108.106ZM167.966 99.6217C165.498 102.614 165.787 102.621 165.293 103.292C165.053 103.611 164.826 103.759 164.702 103.846C164.675 103.868 164.648 103.89 164.621 103.913C164.033 104.7 162.152 107.51 162.284 107.47C163.256 106.391 164.178 105.358 165.118 104.279C165.002 104.184 164.886 104.089 164.771 103.994C164.949 103.881 165.126 103.768 165.303 103.656C165.736 102.983 166.183 102.284 166.597 101.621C166.928 101.389 167.29 101.112 167.63 100.863C167.747 100.445 167.859 100.03 167.966 99.6217ZM170.028 103.352C169.238 104.523 168.403 105.727 167.589 106.882C167.543 106.85 167.497 106.817 167.451 106.785C168.311 105.663 169.191 104.492 170.028 103.352ZM180.572 99.1539C185.602 92.6567 185.776 89.9027 178.758 101.797C178.757 101.799 178.757 101.802 178.756 101.803C178.425 101.959 178.091 102.117 177.756 102.277C178.152 102.534 176.864 104.505 179.084 102.018C179.436 101.481 179.798 100.923 180.137 100.392C180.272 99.9982 180.432 99.5617 180.572 99.1539ZM180.73 94.0387C179.519 96.0124 178.011 98.1295 177.454 99.4019C178.341 98.1325 179.248 96.7916 180.098 95.4947C180.316 95.0028 180.528 94.5142 180.73 94.0387ZM185.207 91.8638C186.013 90.4907 186.361 89.2967 185.997 89.7818C185.33 90.6748 184.133 93.6817 185.207 91.8638ZM211.732 60.148C213.578 60.2007 215.386 60.3431 217.137 60.5279C217.148 60.5289 217.16 60.5298 217.172 60.5308C217.158 60.5528 217.144 60.5753 217.131 60.5972C217.097 60.713 217.065 60.8292 217.031 60.9449C216.092 60.8379 215.143 60.7441 214.179 60.6695C213.838 60.7211 213.496 60.7748 213.155 60.8316C214.355 61.0197 215.532 61.2416 216.685 61.484C216.812 61.4878 216.939 61.4925 217.064 61.4967C219.926 61.7273 221.582 63.0266 222.895 64.068C222.371 63.5231 221.802 62.9925 221.068 62.4781C224.977 65.116 223.626 64.8471 225.64 67.3453C226.388 68.1143 227.099 68.9248 227.753 69.7056C228.452 71.047 229.048 72.3453 229.617 73.6705C230.788 75.7339 230.961 75.8898 230.358 74.3961C231.066 75.3739 231.393 76.627 232.076 77.8961C232.13 77.9953 232.185 77.7339 232.229 77.8228C235.37 84.3422 234.707 84.2094 235.153 85.2525C235.453 85.9885 236.91 88.8672 237.019 88.8883C237.151 88.8937 235.226 82.4717 239.018 92.2496C237.462 87.0268 234.68 81.4757 235.742 85.3619C235.179 83.726 231.925 76.8491 231.641 76.3678C231.342 75.7154 231.645 75.8704 231.226 75.0357C230.94 74.5323 230.063 73.5428 228.038 69.524C227.662 69.075 227.297 68.6591 226.886 68.1988C226.614 67.7026 226.36 67.2478 226.038 66.7301C226.941 67.5412 227.772 68.3686 228.552 69.1803C225.831 65.7617 224.159 61.5454 217.824 60.4107C217.598 60.3745 217.373 60.3471 217.151 60.3287C215.161 60.1416 214.182 60.0704 215.117 59.9254C214.442 59.8915 213.765 59.8665 213.083 59.8521C212.629 59.9458 212.185 60.0444 211.732 60.148ZM223.077 80.2066C221.576 78.8629 223.94 81.9488 224.54 84.7594C224.573 83.7316 226.266 87.6368 226.383 87.8746C226.326 87.3557 226.269 86.8422 226.213 86.3365C225.357 84.7257 224.473 83.1321 223.573 81.6051C223.406 81.1279 223.241 80.6611 223.077 80.2066ZM188.215 86.6822C189.815 83.4514 190.977 81.7599 190.169 82.2711C190.168 82.2725 190.167 82.2745 190.166 82.276C189.298 83.7902 188.45 85.3965 187.57 87.0435C187.786 86.9212 188.001 86.8001 188.215 86.6822ZM190.146 75.234C195.719 67.7912 205.849 65.7945 214.399 66.2535C214.936 66.3688 215.469 66.4901 215.998 66.6168C206.564 65.8058 196.112 67.6398 190.317 75.3697C188.197 78.0493 186.518 81.0679 184.839 84.1314C185.325 83.0817 185.82 82.0201 186.326 80.982C187.469 79 188.707 77.0471 190.146 75.234ZM210.625 70.106C209.977 70.0985 208.826 69.9642 208.37 70.0318C208.099 70.1289 207.828 70.2295 207.564 70.3326C207.175 70.0326 202.309 71.1971 200.763 72.1451C200.568 72.1239 200.372 72.1057 200.175 72.0904C199.576 72.3946 198.995 72.7278 198.443 73.0865C198.469 72.9647 198.496 72.8422 198.524 72.7203C198.136 73.0641 197.767 73.4205 197.418 73.7887C195.917 75.0106 196.565 73.8973 195.523 74.9537C194.427 76.164 196.614 74.6307 196.708 74.8551C197.644 73.9846 200.192 72.4615 201.509 72.0347C202.273 71.8012 201.426 72.2798 204.697 71.0689C205.471 71.002 206.253 70.9683 207.042 70.9635C208.452 70.6336 209.927 70.3962 211.45 70.2349C211.734 70.3632 212.019 70.4952 212.301 70.6285C212.445 70.622 216.047 70.4922 215.881 70.4019C216.036 70.439 216.209 70.4754 216.396 70.5113C215.346 70.3401 217.103 71.1133 218.538 73.3092C218.751 73.4809 218.97 73.6673 219.192 73.8668C217.449 71.7089 218.734 73.0997 218.354 72.3658C218.172 72.0001 217.508 71.0601 217.233 70.6568C217.348 70.893 216.609 70.4727 216.343 70.2965C214.228 70.1623 211.846 70.1007 210.625 70.106ZM228.765 69.8873C229.006 70.4009 229.235 70.909 229.468 71.44C230.032 72.2613 230.583 73.108 231.099 73.9244C230.911 73.4513 230.69 72.9274 230.479 72.4351C229.947 71.6065 229.35 70.7078 228.765 69.8873ZM215.467 72.9283C215.501 72.9723 215.539 73.0223 215.58 73.0758C215.406 73.0434 215.237 72.9865 215.113 72.9254C215.229 72.9266 215.347 72.9273 215.467 72.9283ZM210.349 60.1383C207.317 60.3194 205.12 60.4004 203.578 60.6441C202.355 60.8476 202.505 60.9527 202.412 60.9674C202.408 60.9683 202.404 60.9694 202.399 60.9703C199.54 61.5795 198.61 61.7959 196.477 62.6422C191.07 64.9996 188.672 67.7245 185.69 70.6724C186.779 69.8702 190.253 65.9501 195.249 63.5865C200.182 61.1146 205.841 60.4063 208.622 60.5513C209.196 60.4035 209.771 60.266 210.349 60.1383ZM193.188 66.1539C195.197 64.7536 192.427 66.3553 192.02 66.4254C191.853 66.4396 193.745 65.0183 191.136 66.4635C190.133 67.1809 190.684 66.9421 190.6 67.0064C189.959 67.4968 189.307 67.9191 189.086 68.1334C185.184 72.2947 187.947 69.7224 187.999 69.6754C188.176 69.69 187.261 70.8371 188.798 69.5055C189.65 68.611 190.564 67.7753 191.539 67.0035C192.083 66.6982 192.629 66.4177 193.188 66.1539ZM198.082 61.568C194.867 62.7153 191.725 64.4595 189.039 66.7408C188.95 66.8918 188.861 67.0444 188.774 67.1969C191.5 64.4011 198.293 61.7733 198.082 61.568ZM202.706 61.6129C200.143 62.1812 197.571 63.0533 195.141 64.3092C197.639 63.1869 200.237 62.467 202.799 62.0513C202.768 61.9054 202.737 61.7588 202.706 61.6129ZM215.632 59.3521C214.951 59.2725 212.048 59.1468 212.392 59.3082C213.656 59.4248 214.896 59.5804 216.107 59.7603C216.468 59.7411 216.841 59.7249 217.197 59.7096C217.726 59.7252 218.245 59.7859 218.743 59.8814C218.294 59.7678 217.766 59.6627 217.205 59.6051C216.524 59.5005 215.777 59.3646 215.632 59.3521Z" fill="white"/>
</g>
<defs>
<filter id="filter0_g_0_1" x="0" y="39" width="387.093" height="190.044" filterUnits="userSpaceOnUse" color-interpolation-filters="sRGB">
<feFlood flood-opacity="0" result="BackgroundImageFix"/>
<feBlend mode="normal" in="SourceGraphic" in2="BackgroundImageFix" result="shape"/>
<feTurbulence type="fractalNoise" baseFrequency="0.12870012223720551 0.12870012223720551" numOctaves="3" seed="5749" />
<feDisplacementMap in="shape" scale="40" xChannelSelector="R" yChannelSelector="G" result="displacedImage" width="100%" height="100%" />
<feMerge result="effect1_texture_0_1">
<feMergeNode in="displacedImage"/>
</feMerge>
</filter>
</defs>
</svg>
