<svg width="303" height="158" viewBox="0 0 303 158" fill="none" xmlns="http://www.w3.org/2000/svg">
<rect width="303" height="158" fill="#F5F5F5"/>
<g style="mix-blend-mode:darken" filter="url(#filter0_g_0_1)">
<path d="M158.31 31.6458C161.386 30.7167 164.932 30.5634 168.643 30.7982C168.818 30.925 169.405 31.2898 169.82 31.8382C170.539 32.6579 171.249 33.7056 171.907 34.8099C172.301 35.3977 173.855 38.6752 174.108 39.263C174.332 39.7289 174.702 40.0895 175.005 40.8177C175.41 41.8059 174.683 41.0074 175.489 42.597C175.699 43.016 175.653 42.5355 176.068 43.39C176.24 43.6737 178.564 49.3552 178.656 49.6995C178.841 50.2382 178.711 50.7918 178.756 50.932C178.98 51.6406 179.195 51.5302 179.39 51.9984C179.953 53.3477 180.446 55.2424 180.525 55.4613C181.533 58.1832 183.421 63.3196 184.22 66.2806C184.332 66.6935 184.146 66.6992 184.162 66.7708C184.268 67.2351 184.552 67.459 184.691 67.8939C185.445 70.2431 186.419 73.978 187.074 76.3636C187.151 76.6385 187.413 77.1911 187.547 77.6878C188.286 80.458 187.879 79.6163 187.917 79.7718C188.007 80.1496 188.364 80.7698 188.652 81.7523C188.822 82.3318 189.025 83.0373 189.244 83.8187C189.983 86.427 190.821 89.8063 191.306 91.9388C191.774 93.9975 191.566 94.0117 191.594 94.1488C191.652 94.4403 191.986 95.2047 192.297 96.5696C192.89 99.1973 192.669 98.9328 192.902 100.024C192.922 100.118 193.037 99.9185 193.305 101.139C193.804 103.459 194.813 108.985 195.892 111.739C196.194 112.559 196.412 112.85 196.708 113.451C196.793 113.622 196.886 113.818 196.993 114.05C197.687 115.857 200.176 119.47 200.461 119.669C200.525 119.741 200.789 119.792 201.169 120.198C201.588 120.643 201.956 121.123 202.288 121.432C204.157 123.279 207.956 125.232 206.63 125.119C207.385 125.416 208.143 125.68 208.897 125.918C213.363 128.345 217.881 129.751 222.425 130.985C223.443 131.258 224.266 131.591 225.133 131.804C225.994 132.028 229.828 132.728 230.458 132.856C230.531 132.872 230.626 132.893 230.739 132.917C232.586 133.559 239.199 133.611 240.009 133.342C241.781 133.163 243.474 133.033 244.166 132.812C244.705 132.635 244.164 132.634 245.189 132.318C246.97 131.785 249.916 130.877 250.425 130.656C250.643 130.56 250.203 130.647 252.216 129.779C253.283 129.308 253.903 129.148 254.294 128.964C254.412 128.902 254.145 128.836 256.226 127.833C257.631 127.145 258.307 126.948 258.447 126.876C258.662 126.763 259.123 126.336 259.994 125.863C262.043 124.765 265.763 122.77 267.598 121.639C267.961 121.416 267.742 121.327 269.158 120.458C270.18 119.829 270.097 120.063 270.474 119.831C271.059 119.469 271.873 118.723 273.173 117.883C274.204 117.259 279.17 113.99 283 111.463V112.185C282.961 112.215 282.926 112.241 282.896 112.265C282.679 112.445 283.305 112.228 282.11 113.151C280.841 114.131 280.08 114.272 279.776 114.985C277.643 115.861 276.055 117.511 278.354 116.136C278.827 115.869 280.695 114.644 283 113.11V114.512C280.435 116.279 277.851 118.034 275.233 119.765C274.4 120.501 280.01 116.924 280.398 116.659C281.052 116.239 281.987 115.601 283 114.907V115.315C281.349 116.418 279.416 117.303 279.616 117.734C278.612 118.344 277.599 118.955 276.602 119.55C274.483 121.009 278.159 119.308 269.58 124.503C268.977 124.86 269.012 124.648 268.134 125.199C267.888 125.347 266.544 126.473 263.629 128.115C263.168 128.372 263.059 128.271 262.574 128.523C261.483 129.094 259.355 130.541 260.156 129.596C255.63 131.804 257.621 131.168 256.272 132.005C255.369 132.543 255.422 132.219 254.607 132.658C253.575 133.172 254.552 133.176 250.044 134.767C250.56 134.56 251.031 134.36 251.527 134.145C251.249 134.175 250.972 134.202 250.697 134.227C248.186 135.34 248.324 134.979 247.188 135.773C245.146 136.17 243.391 136.626 240.41 137.033C234.539 137.441 237.432 138.105 230.686 136.594C230.439 136.565 230.192 136.533 229.946 136.497C229.26 136.413 228.585 136.329 227.895 136.238C226.518 135.733 227.714 135.789 225.605 135.236C227.167 136.073 222.716 134.816 221.832 134.963C221.776 134.851 221.719 134.739 221.664 134.626C221.184 134.495 220.698 134.359 220.219 134.221C220.197 134.293 220.174 134.365 220.151 134.437C219.517 134.196 218.896 133.953 218.259 133.697C217.749 133.617 217.24 133.534 216.725 133.443C215.971 133.03 215.212 132.602 214.457 132.159C213.953 131.963 213.451 131.761 212.945 131.55C213.065 131.718 213.186 131.885 213.309 132.052C212.663 131.764 212.021 131.466 211.378 131.152C212.069 131.632 211.515 131.677 209.446 130.721C207.741 129.872 209.825 130.575 206.103 128.73C205.847 128.546 205.228 128.736 201.799 126.258C197.785 122.982 199.876 124.394 199.18 123.786C199.048 123.659 197.79 122.618 196.796 121.404C196.228 120.722 195.823 119.951 195.756 119.855C195.44 119.406 195.215 119.361 194.801 118.712C194.146 117.678 193.472 116.348 192.945 115.049C192.661 114.351 192.41 113.675 192.195 113.089C191.933 112.376 191.63 111.741 191.53 111.427C191.374 110.939 191.33 110.288 191.196 109.811C190.685 108.031 189.668 105.607 190.15 104.727C189.22 103.282 189.302 100.028 188.951 100.338C188.361 96.3202 185.389 86.4043 186.067 86.5189C185.605 85.7086 185.404 85.2518 185.309 84.9154C185.168 84.4186 185.265 84.225 185.107 83.68C184.81 82.6567 184.851 83.2168 184.627 82.4046C184.099 80.4942 183.626 78.6702 183.076 76.7835C183.252 77.0517 183.428 77.3214 183.604 77.5921C183.056 75.6088 183.047 76.3477 182.409 74.3411C181.23 70.6638 181.857 72.1693 181.928 71.554C181.751 71.7649 180.454 67.4249 180.334 66.9603C180.269 66.6953 180.922 67.7404 179.992 65.137C179.949 65.3088 179.906 65.4808 179.862 65.6527C179.603 64.4007 178.379 61.183 178.225 60.6331C178.159 60.3901 178.409 58.7632 177.426 57.7405C177.462 57.5594 177.499 57.3779 177.535 57.1976C176.956 55.8676 176.364 54.5353 175.77 53.2337C175.848 52.9577 175.927 52.6825 176.005 52.4085C175.846 51.978 175.691 51.5596 175.531 51.1341C175.498 51.4716 175.461 51.7983 175.426 52.1331C174.519 49.4671 173.024 46.4076 173.272 45.7113C172.957 45.1967 172.637 44.6824 172.324 44.1946C172.329 43.7848 172.323 43.3522 172.323 42.9407C171.175 40.5063 171.045 40.5289 170.088 39.0316C170.236 39.0324 170.384 39.0348 170.532 39.0374C169.79 37.9719 168.481 35.9764 167.621 34.8734C167.488 34.692 167.361 34.5063 167.248 34.3382C165.098 34.3359 164.151 34.214 163.22 34.2777C162.529 34.3392 162.236 34.5185 161.516 34.6458C160.485 34.8306 159.539 35.0261 159.038 35.2122C158.752 35.3186 158.751 35.4731 158.564 35.5511C157.707 35.9408 158.137 35.5752 157.28 36.0296C157.2 36.0766 156.685 36.5578 156.084 37.0081C155.739 37.2384 154.798 37.8981 154.734 37.9905C154.521 38.2377 154.728 38.2897 154.396 38.6331C154.23 38.8161 153.962 39.0615 153.511 39.472C153.606 39.4668 153.7 39.462 153.795 39.4583C152.544 41.6212 152.022 42.0302 151.702 42.5111C151.663 42.5763 151.414 43.2855 151.175 43.6849C150.775 44.3491 150.456 44.5649 150.367 44.7113C150.042 45.2498 149.068 47.1965 148.188 48.388C148.798 48.3736 146.316 52.9349 145.192 53.5814C144.804 54.4019 144.391 55.2417 143.982 56.057C143.671 56.3555 143.365 56.6417 143.06 56.9251C142.997 57.1832 142.933 57.4446 142.865 57.7073C141.948 58.6784 141.025 59.6239 140.073 60.5843C140.192 60.7711 140.311 60.9591 140.429 61.1468C140.197 61.4246 139.962 61.7062 139.723 61.9905C139.421 62.1235 139.105 62.2715 138.812 62.3909C138.569 62.7684 138.32 63.1515 138.064 63.5394C138.089 63.7023 138.115 63.8667 138.139 64.0306C136.76 66.0412 136.652 64.3796 134.529 68.6263C134.001 69.1325 133.465 69.6419 132.944 70.1282C132.776 71.0497 131.594 72.0407 130.836 73.0159C130.291 73.7157 130.473 73.78 129.713 74.6751C128.947 75.5735 128.837 75.4346 128.776 75.5032C128.719 75.5686 128.662 75.6342 128.608 75.6986C128.052 76.3625 127.687 76.9609 127.219 77.4398C127.138 77.5213 126.807 77.5867 126.166 78.2659C125.527 78.9395 125.305 79.4982 124.313 80.472C123.811 80.9627 123.54 80.9918 123.09 81.428C120.953 83.4946 119.357 86.1982 117.004 86.9232C116.727 87.3638 114.301 90.1155 113.079 91.0882C111.186 92.6084 111.779 91.8463 111.009 92.429C110.894 92.5129 110.373 93.0368 108.772 94.2767C108.486 94.4981 108.622 94.5374 108.582 94.5706C106.72 96.0371 102.972 98.677 100.818 100.121C100.629 100.249 99.8092 101.21 97.8535 101.982C95.7134 103.749 91.2173 105.91 87.9443 108.023C87.6053 108.243 87.2863 108.462 86.9824 108.682C86.4988 108.962 85.8581 109.183 85.6387 109.306C83.7499 110.339 84.7105 110.331 79.9336 112.06C80.378 112.045 79.3845 112.706 77.7734 113.364C75.3291 114.322 76.9525 113.335 74.9717 114.097C75.0029 114.185 75.0342 114.274 75.0654 114.362C70.3086 115.673 69.3409 116.288 64.4863 116.983C62.7391 117.21 60.2163 117.154 59.8174 117.166C59.6629 117.18 57.8379 117.47 57.6621 117.47C57.2333 117.482 56.8825 117.468 56.5508 117.45C56.1656 117.426 55.8126 117.397 55.3789 117.401C52.8014 117.421 49.7256 117.714 50.2832 117.182C49.5788 117.295 48.8573 117.407 48.1562 117.518C45.4754 116.944 43.4778 117.706 42.9121 117.15C42.4296 117.259 41.9649 117.369 41.4746 117.477C34.3555 117.374 27.0739 117.096 20 116.791V112.979C32.0538 113.394 44.4118 113.629 56.5117 113.465C60.3231 113.421 64.2116 113.145 68.0781 112.33C74.114 111.148 80.4514 108.027 86.1406 104.812C90.0615 102.623 93.8976 100.27 97.4297 97.929C97.8321 97.6626 98.5713 97.0126 99.4287 96.43C99.6119 96.3121 101.952 94.925 102.692 94.3763C101.761 94.5724 104.851 92.7297 105.718 92.0335C106.823 91.1664 108.984 89.219 111.549 87.1741C113.867 85.3123 113.339 85.9549 113.472 85.8568C114.307 85.2015 114.41 84.7776 114.994 84.2152C116.444 82.8382 121.624 78.038 125.775 73.2454C128.413 70.2375 130.756 67.421 131.923 65.971C132.664 65.0517 132.828 65.0924 132.995 64.8831C133.449 64.3126 133.957 63.4168 134.669 62.4925C135.954 60.8307 137.487 58.9952 138.176 58.0316C139.799 55.8066 142.602 51.3097 144.415 48.1644C144.93 47.2829 145.033 47.4238 145.266 47.0189C146.303 45.2595 148.538 40.5618 149.704 38.7425C150.243 37.878 150.811 37.0674 151.428 36.3001C152.878 34.4919 154.702 33.1457 156.813 32.2064C157.03 32.1927 157.246 32.1846 157.462 32.18C157.734 31.9951 158.018 31.8165 158.31 31.6458ZM164.303 25.847C166.258 26.0094 168.103 25.9257 169.17 25.9544C170.198 26.0295 170.57 26.3432 170.287 26.4827C171.03 26.784 171.597 27.2049 172.133 27.6741C172.207 27.5899 172.283 27.5055 172.357 27.4212C173.171 28.1481 173.801 28.9077 174.416 29.7308C174.326 29.7979 174.235 29.8658 174.145 29.9329C174.617 30.5698 175.066 31.2431 175.498 31.9398C175.641 31.9571 175.776 31.9613 175.915 31.9739C177.091 34.1055 180.984 41.2054 178.887 38.2415C179.364 39.2691 179.808 40.2718 180.241 41.2816C180.315 41.2459 180.39 41.2098 180.464 41.1741C180.66 41.6029 180.86 42.0509 181.054 42.4866C180.927 42.3768 180.795 42.2515 180.665 42.1351C181.628 44.0803 182.027 46.1859 182.765 47.4007C182.486 46.5105 182.191 45.5934 181.897 44.7054C182.482 46.4392 183.843 49.4567 183.945 49.7464C184.266 50.6174 184.262 51.0988 184.588 52.0355C184.881 52.8814 184.961 52.7256 185.011 52.8802C186.463 57.4481 185.196 55.9315 186.692 57.7962C186.661 58.0547 186.628 58.3146 186.597 58.5745C186.785 58.8444 186.973 59.1162 187.161 59.39C187.593 60.7334 188.023 62.0944 188.437 63.428C188.428 62.9379 188.422 62.4579 188.408 61.9573C189.111 63.9477 189.138 64.9864 189.193 65.1849C189.348 65.7364 189.595 65.9382 189.648 66.1087C192.154 74.375 190.474 69.388 191.074 73.7191C191.751 75.105 191.57 73.5596 191.76 73.2708C192.211 75.249 192.467 75.8669 193.042 77.9271C193.192 78.4672 193.221 79.0918 193.316 79.4349C193.398 79.7276 193.802 80.6025 194.002 81.3128C194.096 81.6478 194.191 82.018 194.291 82.4134C194.546 83.424 194.809 84.5657 195.117 85.7396C195.483 87.0935 196.617 91.2363 197.246 94.1624C197.516 95.4041 197.33 95.1496 197.398 95.4681C197.427 95.5984 197.782 96.5407 197.949 97.3421C198.982 102.131 199.704 107.067 201.512 111.41C202.145 112.928 202.991 114.341 204.021 115.61C206.784 119.028 210.884 121.31 215.077 123.076C215.978 123.451 215.459 123.356 215.852 123.519C215.987 123.57 216.22 123.471 217.608 124.064C218.116 124.276 217.478 124.192 217.98 124.378C218.225 124.465 218.39 124.357 219.855 124.796C222.533 125.581 223.947 126.168 224.186 126.232C224.645 126.342 224.548 126.172 225.158 126.327C227.575 126.94 229.697 127.41 231.855 127.876C232.321 127.976 232.787 128.062 233.263 128.133C233.856 128.236 236.225 128.514 238.519 128.292C240.819 128.108 242.995 127.529 243.225 127.486C244.247 127.272 243.384 127.818 244.688 127.433C245.028 127.254 245.37 127.069 245.714 126.877C245.107 127.017 244.54 127.13 243.935 127.241C245.546 126.896 247.291 126.121 248.435 125.666C248.656 125.588 250.644 124.9 251.621 124.42C251.222 124.666 250.828 124.905 250.438 125.137C250.603 125.116 250.768 125.094 250.935 125.071C252.888 124.119 254.955 123.076 256.921 122.021C257.645 121.63 257.451 121.867 258.166 121.476C262.335 119.134 261.043 119.329 265.451 117.683C264.088 118.461 259.265 121.438 258.497 121.802C257.999 122.063 255.663 122.461 256.753 122.755C252.672 124.876 256.049 122.689 252.252 124.652C252.368 124.702 252.484 124.752 252.601 124.801C251.269 125.499 250.275 125.979 249.38 126.169C249.284 126.742 244.432 128.327 241.732 128.806C238.555 129.499 234.911 129.664 231.618 128.947C230.864 128.789 230.133 128.63 229.414 128.467C228.064 128.161 227.348 127.798 227.177 127.757C226.928 127.698 226.205 127.681 225.71 127.555C223.859 127.13 218.461 125.229 216.989 125.095C221.725 126.822 226.642 128.025 231.579 129.124C237.617 130.528 243.905 129.06 249.584 126.692C248.269 127.186 258.462 122.246 258.906 121.826C259.379 121.571 259.06 121.924 259.203 121.854C260.283 121.32 261.018 120.635 261.354 120.438C261.614 120.285 262.144 120.095 263.021 119.566C263.181 119.469 263.17 119.349 263.344 119.243C264.471 118.563 265.62 117.855 266.723 117.161C266.792 117.119 267.16 117.075 267.447 116.894C267.735 116.712 267.938 116.395 268.011 116.348C268.886 115.794 270.516 114.864 271.343 114.324C271.637 114.131 271.369 114.167 271.7 113.951C272.72 113.285 272.523 113.688 273.726 112.822C274.133 112.527 274.007 112.403 274.83 111.881C275.419 111.507 275.516 111.815 275.614 111.763C275.733 111.701 277.57 110.168 278.31 109.909C277.237 111.285 279.832 108.91 279.575 108.809C280.395 108.318 281.174 107.853 281.979 107.368C282.208 107.141 282.439 106.912 282.672 106.682C282.784 106.616 282.892 106.547 283 106.482V107.217C279.665 109.578 275.174 112.62 272.938 113.676C272.351 114.191 274.691 112.692 273.831 113.354C273.392 113.79 261.326 121.514 264.969 118.704C264.569 118.965 264.185 119.214 263.78 119.474C263.575 120.096 261.519 121.202 261.523 120.709C261.371 120.898 261.219 121.086 261.068 121.273C260.716 121.561 260.309 121.842 259.663 122.234C258.473 122.954 254.186 125.368 249.869 127.129C245.576 128.965 241.194 129.773 240.754 129.838C240.75 129.939 240.745 130.041 240.74 130.142C248.212 128.987 254.634 125.319 261.736 121.563C261.484 121.602 261.233 121.639 260.984 121.675C263.838 120.175 266.648 118.589 269.435 116.96C266.669 118.945 262.084 121.923 258.868 123.522C258.305 123.804 258.646 123.467 258.512 123.523C258.159 123.669 257.883 124.083 256.694 124.735C255.47 125.425 252.283 126.774 251.979 126.898C251.438 127.157 250.012 128.054 249.009 128.435C247.721 128.922 248.527 128.443 248.269 128.537C247.177 128.928 246.226 129.326 245.356 129.574C244.059 129.973 241.281 130.288 240.397 130.8C241.362 130.682 242.321 130.515 243.27 130.31C239.029 131.424 235.283 131.203 231.287 130.445C230.493 130.293 229.683 130.152 228.835 130.026C227.603 130.254 231.687 131.13 228.198 130.541C228.822 130.681 229.453 130.819 230.077 130.952C230.246 130.883 230.416 130.814 230.585 130.744C230.783 130.803 230.982 130.862 231.182 130.92C232.094 131.185 233.022 131.399 233.966 131.559C233.643 131.431 233.323 131.297 233.009 131.157C237.127 131.733 241.197 130.895 242.678 131.077C242.734 130.941 242.79 130.805 242.845 130.668C246.603 130.06 251.492 127.344 250.794 128.377C250.941 128.276 251.089 128.173 251.237 128.071C253.332 127.299 252.342 127.425 253.096 127.046C253.317 126.961 257.221 125.162 255.614 126.196C259.414 124.405 257.967 124.415 258.96 123.852C261.465 122.847 265.319 119.959 263.846 121.424C264.196 121.236 264.552 121.044 264.905 120.851C265.792 119.857 267.142 119.539 268.401 118.918C268.808 118.672 269.241 118.408 269.634 118.167C269.829 117.887 270.026 117.605 270.224 117.323C274.331 115.406 272.222 114.735 274.704 114.815C274.486 115.062 274.276 115.304 274.054 115.553C273.431 116.012 272.817 116.463 272.212 116.906C274.817 115.255 277.344 113.609 279.908 111.913C281.115 111.262 282.087 110.643 283 110.021V110.508C282.527 110.993 281.938 111.528 280.577 112.409C281.061 111.982 280.205 112.251 279.225 112.92C279.277 112.998 279.329 113.075 279.382 113.153C277.022 114.817 277.725 114.013 275.84 115.529C275.6 115.598 275.361 115.668 275.123 115.736C274.216 116.716 270.3 119.497 270.786 118.632C269.918 119.726 267.392 121.072 266.301 121.317C266.281 121.438 266.261 121.56 266.241 121.681C265.781 121.985 265.304 122.296 264.827 122.605C264.528 122.719 264.23 122.831 263.935 122.941C263.627 123.189 263.309 123.441 262.987 123.695C262.73 123.737 262.474 123.778 262.219 123.818C261.725 124.233 261.221 124.649 260.707 125.066C260.325 125.195 259.946 125.32 259.571 125.441C259.624 125.649 256.183 127.529 255.113 127.885C254.84 128.081 254.569 128.275 254.299 128.466C254.116 128.45 253.932 128.434 253.742 128.42C253.547 128.593 253.351 128.765 253.157 128.935C252.61 129.103 252.065 129.262 251.503 129.421C249.533 130.739 249.275 130.374 248.788 130.566C247.868 130.949 244.642 132.226 244.055 132.317C243.473 132.443 243.161 132.344 242.7 132.425C234.877 133.339 238.066 133.1 236.477 133.326C235.591 133.357 234.98 133.172 234.205 133.121C233.676 133.088 232.273 132.975 230.791 132.684C228.825 132.316 226.631 131.858 226.435 131.796C225.952 131.648 227.271 131.234 225.643 131.022C225.496 131.392 222.194 130.119 223.647 131.06C222.26 130.644 220.865 130.201 219.48 129.723C219.503 130.205 217.862 129.407 215.974 128.75C213.287 127.966 207.24 125.181 207.719 124.798C207.058 124.53 206.391 124.233 205.73 123.909C202.095 121.285 198.703 117.77 196.847 113.392C196.667 112.976 196.497 112.557 196.337 112.136C193.035 102.227 192.216 92.9576 189.491 83.7503C188.512 80.1423 187.518 76.5845 186.518 73.1282C186.347 72.5378 186.518 72.5783 186.396 72.1556C185.746 69.899 183.859 64.1581 182.862 61.0462C182.544 60.0416 182.526 59.5191 182.429 59.2054C182.096 58.1357 181.991 58.4413 181.831 57.9505C181.59 57.1875 180.338 53.0321 179.843 51.6517C179.594 50.9439 179.159 50.2172 178.895 49.3802C178.872 49.3093 179.071 49.38 179.052 49.3206C178.514 47.8504 178.718 48.7795 178.537 48.2874C177.235 44.7668 175.701 41.0332 173.941 37.4896C173.5 36.5945 172.903 35.2655 172.475 34.5355C172.317 34.268 172.506 34.8043 171.953 33.8909C171.759 33.5775 171.826 33.387 171.616 33.055C170.66 31.6017 169.915 31.5039 169.386 30.4876C169.182 30.308 168.94 30.197 168.844 30.1566C165.839 29.9458 162.311 30.1505 160.373 30.556C159.779 30.6686 159.471 30.6411 158.918 30.7845C158.524 30.887 157.891 31.2257 157.32 31.4417C156.749 31.6557 155.798 31.8945 154.801 32.4954C153.742 33.1093 152.658 34.171 152.468 34.3646C152.228 34.5918 151.997 34.5756 151.765 34.8226C151.549 35.0532 151.235 35.4279 150.904 35.889C150.13 36.9447 149.283 38.4217 148.777 39.3099C147.984 40.6949 147.434 41.5491 147.159 42.0472C146.904 42.5182 146.739 43.1295 146.618 43.3529C146.436 43.6895 146.245 43.6804 146.007 44.1155C145.628 44.8092 145.315 45.5996 144.718 46.6488C139.242 56.3063 132.417 64.8526 125.409 72.928C118.357 80.9817 110.358 87.9489 101.858 94.0843C99.9383 95.4559 98.9237 96.3361 95.9971 98.221C94.8043 98.98 95.2081 98.502 94.3047 99.1282C93.9006 99.4066 94.0797 99.4588 93.5635 99.7962C91.2749 101.296 88.4661 102.805 87.4365 103.396C87.0528 103.618 86.6868 103.993 85.9307 104.438C85.8892 104.462 85.8464 104.487 85.8027 104.512C79.7309 108.033 71.3296 112.022 63.1924 112.683C61.2742 112.899 58.935 113.053 56.5078 113.095C53.669 113.149 50.6915 113.186 48.1543 113.186C38.9065 113.214 29.0606 112.908 20 112.568V110.645C22.1567 110.727 24.2093 110.819 25.5615 110.867C26.7563 110.914 26.5597 111.07 26.9561 111.083C27.2085 111.09 27.1244 110.878 30.2715 111.01C31.8709 111.075 32.2638 111.241 33.0732 111.255C33.5015 111.262 33.4342 111.106 34.0566 111.12C37.6616 111.2 40.59 111.294 44.1172 111.352C45.1001 111.367 45.1152 111.497 45.3369 111.496C46.1591 111.496 47.5742 111.285 49.6494 111.285C51.3729 111.287 53.9791 111.278 56.4902 111.267C58.9728 111.263 61.3685 111.128 62.7783 111.03C63.2035 111.001 63.5621 111.116 63.874 111.076C64.3438 111.013 64.5018 110.825 64.583 110.813C66.1408 110.579 65.2276 110.871 66.2646 110.66C66.8233 110.539 67.375 110.258 68.6562 109.937C70.3432 109.492 70.0662 109.773 70.7646 109.555C70.8376 109.529 70.8195 109.38 71.502 109.163C74.1058 108.363 77.6834 106.74 79.9189 105.584C80.5653 105.256 81.096 105.098 81.9834 104.626C82.492 104.356 83.6577 103.72 85.0752 102.916C88.7113 100.895 93.8647 97.5806 94.4482 97.2269C94.5358 97.1762 93.8014 97.9299 95.165 97.0238C95.5108 96.6824 95.8508 96.3423 96.1914 95.9993C96.9371 95.677 97.6695 95.3565 98.4121 95.0218C98.1023 94.6254 101.841 91.8389 102.108 92.2806C102.535 91.9914 102.957 91.7012 103.376 91.4114C104.007 90.4712 104.654 90.1544 106.132 88.7073C106.453 88.5951 106.773 88.4824 107.092 88.3695C107.107 88.2608 107.123 88.1517 107.14 88.0423C108.253 87.666 109.376 86.1981 109.539 86.054C110.181 85.5 110.718 85.1729 111.02 84.9075C112.131 83.9414 114.409 81.6971 115.697 80.555C115.758 80.502 115.821 80.6813 116.188 80.3607C116.859 79.7715 116.737 79.5398 117.794 78.9202C117.911 78.6996 118.027 78.4794 118.142 78.2601C118.35 78.1077 118.557 77.9541 118.763 77.8021C119.801 76.7279 120.819 75.6369 121.817 74.5267C121.11 75.7171 122.303 74.6901 123.122 73.429C123.398 73.0031 122.969 73.2146 123.06 73.0726C123.097 73.014 123.549 72.5103 124.146 71.8353C125.542 70.2654 127.699 67.799 127.961 67.6038C128.123 67.3209 128.283 67.0397 128.439 66.7611C128.628 66.7098 128.816 66.6584 129.003 66.6077C129.082 66.4497 129.16 66.2918 129.237 66.1351C130.511 64.9121 132.94 61.0813 133.44 60.4622C133.721 60.1217 133.882 60.7181 135.089 59.0198C135.027 58.8817 134.965 58.7433 134.903 58.6058C135.178 58.2037 135.445 57.8082 135.704 57.4193C136.261 56.676 137.182 55.768 137.345 55.807C137.433 55.5191 137.519 55.2343 137.601 54.9525C138.298 54.5099 140.46 51.0838 141.136 49.5931C141.47 49.2292 141.797 48.8724 142.119 48.5179C142.363 47.8979 142.584 47.305 142.813 46.6898C143.522 45.3996 142.903 46.8394 143.074 46.5755C143.454 46.007 144.816 42.9112 145.052 43.2845C145.273 42.8836 145.497 42.4764 145.715 42.0794C145.726 41.826 145.746 41.5558 145.759 41.2991C146.481 40.811 146.973 39.5082 148.511 37.3441C148.556 37.1099 148.604 36.8756 148.655 36.6419C149.113 36.1476 149.58 35.6799 150.065 35.2288C150.174 35.1284 150.284 35.0301 150.394 34.9349C150.381 34.7199 150.37 34.5057 150.368 34.2855C150.579 34.0138 150.796 33.7519 151.024 33.4945C151.733 33.2355 152.443 32.1772 153.051 31.9261C153.929 31.5857 153.416 32.1152 152.19 33.2132C152.337 33.163 156.398 30.4995 157.615 30.3089C157.528 30.2881 157.441 30.2678 157.354 30.2484C156.243 30.6673 155.191 31.1929 154.226 31.8265C153.052 31.8192 155.906 30.2769 157.363 29.8138C157.491 29.7704 158.164 29.2687 159.704 28.9739C160.299 28.8302 162.689 28.8783 163.142 28.8939C166.814 28.9263 164.107 28.4597 167.735 28.9876C167.279 28.7682 167.892 28.8162 168.95 28.928C169.126 28.9505 169.572 29.1427 170.101 29.5482C170.337 29.5756 172.453 31.7082 172.538 31.9222C173.311 32.9961 172.285 31.9301 173.369 33.5071C173.549 33.6582 173.73 33.8167 173.913 33.9808C174.149 34.3833 174.359 34.753 174.579 35.1546C175.289 37.8757 175.974 38.2764 176.448 39.1155C176.639 39.4663 176.265 39.0663 176.735 40.0032C176.909 40.3529 177.211 40.6636 177.649 41.6429C178.977 44.653 178.803 45.9124 180.489 48.514C180.569 48.9853 180.649 49.4622 180.721 49.9222C180.934 50.1752 181.147 50.4318 181.361 50.6907C181.884 53.0701 181.892 52.13 182.185 52.9564C182.955 55.1176 184.393 59.6112 184.262 60.0853C185.468 61.7827 185.53 64.2619 185.786 64.9984C185.997 65.4186 186.212 65.8548 186.419 66.2698C186.509 66.8095 186.599 67.3533 186.689 67.9007C187.19 67.4743 187.45 70.3516 187.519 70.6185C187.61 70.9393 189.018 75.0478 189.464 76.6175C189.913 78.1727 190.529 80.9461 190.594 81.18C190.636 81.3305 190.923 82.1704 191.271 83.2542C191.561 84.1592 191.881 85.2105 192.128 86.1527C192.686 87.9567 194.873 98.8735 194.953 98.1468C194.878 97.4196 194.725 96.3803 194.57 95.4984C194.309 93.9822 193.149 88.4228 191.716 83.1302C190.563 78.8105 189.383 74.6385 188.862 72.8216C186.546 64.7285 183.869 56.3527 180.942 48.4437C180.769 47.9765 180.887 47.8505 180.739 47.4554C180.516 46.8581 179.767 45.3815 179.53 44.7923C178.66 42.5835 177.523 39.9415 176.976 38.7816C175.777 36.2236 174.957 34.4797 173.844 32.6644C173.529 32.1572 171.473 29.2327 169.828 28.3529C169.553 28.1663 169.287 28.0375 169.021 27.9749C169.007 27.9725 168.994 27.9705 168.98 27.9681C168.994 27.9685 169.007 27.9686 169.021 27.9691C169.893 27.7374 172.248 29.8552 173.01 31.0277C174.26 32.7431 174.694 33.8545 175.079 34.5198C175.434 35.106 177.109 38.0853 177.748 39.5296C177.95 39.9713 177.838 40.1223 178.008 40.5023C178.934 42.5636 180.056 45.3177 180.915 47.1058C180.585 46.367 182.257 51.0849 182.338 51.348C182.489 51.7659 182.798 52.1678 183.109 53.0452C183.693 54.7036 183.326 54.6166 184.34 56.5911C184.427 57.1369 184.516 57.6941 184.602 58.2445C185.026 58.1219 186.618 64.892 187.68 66.6224C187.765 66.6295 185.179 58.0182 184.925 57.3265C183.562 53.0821 181.207 46.9053 179.6 42.9114C179.135 41.6838 177.683 37.8494 177.527 37.5843C177.3 37.1307 177.365 37.6061 177.266 37.4124C175.19 33.5237 176.435 35.3765 176.245 34.803C176.104 34.4034 175.193 33.1446 175.097 32.9964C174.941 32.7357 175.054 32.7625 175.071 32.7474C173.997 31.0506 174.757 32.7392 173.918 31.553C173.789 31.3244 171.858 28.397 170.553 27.7454C170.111 27.4761 169.574 27.2589 169.076 27.2269C167.518 27.1102 166.146 27.071 165.538 27.0736C164.164 27.0651 161.624 27.3571 159.444 27.8255C158.547 28.0183 158.194 27.9437 157.304 28.2142C154.693 28.9797 151.099 30.9621 148.717 34.1683C145.87 37.9226 143.93 42.3634 142.387 44.8187C141.707 45.9656 140.901 46.9186 140.546 47.5374C140.332 48.0371 140.1 48.5582 139.876 49.0589C138.394 50.1449 138.615 50.9129 137.64 52.4857C137.041 53.4457 136.541 53.8108 136.464 53.9241C135.889 54.7597 135.657 55.2506 135.207 55.9066C134.679 56.6751 133.85 57.6451 133.658 57.93C133.539 58.0991 134.165 57.7473 132.015 60.555C129.816 63.4007 127.539 66.1468 125.162 68.929C126.589 68.4903 126.812 67.3703 127.76 66.1751C128.008 65.8616 127.946 66.1373 128.161 65.8665C128.768 65.1057 129.853 63.5607 130.394 62.9251C130.97 62.2497 131.015 62.672 131.612 61.7318C131.643 61.6829 131.434 61.7509 131.583 61.5267C133.033 59.3194 133.749 58.7456 135.709 56.0404C137.176 54.3547 144.084 42.7671 144.231 42.3323C145.858 40.4602 138.726 52.7955 137.56 54.0306C137.214 54.5108 137.449 53.9325 137.131 54.347C137.003 54.5153 136.051 56.3361 134.885 57.9515C133.488 59.9215 130.348 63.6555 128.896 65.4251C127.232 67.4792 125.532 69.4997 123.783 71.5208C112.743 84.1268 99.3867 94.288 84.8398 102.498C84.5078 102.685 84.1822 102.867 83.8555 103.048C83.4825 103.254 83.0768 103.659 81.8643 104.31C74.3573 108.611 65.3434 111.113 56.4863 110.942C44.3583 111.063 32.1136 110.756 20 110.312V108.809C32.3633 109.243 44.452 109.429 56.4707 109.271C62.7654 109.234 69.0013 108.333 74.751 105.875C75.9837 105.459 81.8344 102.822 82.79 101.714C83.5282 100.916 79.6284 103.355 78.9365 103.674C78.4264 103.929 78.3264 103.795 77.9873 103.962C77.6272 104.138 77.9737 104.094 77.5518 104.3C75.7666 105.175 73.7568 105.98 72.0771 106.571C67.0788 108.38 61.7755 108.98 56.4678 109.031C44.2935 109.174 32.2384 108.95 20 108.433V107.78C20.5598 107.713 21.1146 107.647 21.6807 107.579C22.0619 107.725 22.4564 107.871 22.8496 108.017C22.9291 107.908 23.0089 107.798 23.0889 107.689C26.8505 107.913 30.8751 107.899 34.4766 107.99C36.9822 108.052 37.5938 108.106 39.8125 108.131C44.77 108.173 39.8383 108.341 43.957 108.622C43.7442 108.483 43.5277 108.343 43.3145 108.203C44.0078 108.159 44.6704 108.114 45.3584 108.068C45.8387 108.183 46.3037 108.298 46.7773 108.412C48.8866 107.838 50.2514 108.305 50.5322 108.305C50.7615 108.303 51.5591 107.955 54.0488 108.237C53.0158 107.765 55.9364 108.22 56.1816 108.22C56.2163 108.22 56.3146 108.217 56.46 108.211C57.2438 108.188 59.3777 108.047 60.3301 107.98C61.2185 107.932 63.1016 107.867 64.4014 107.664C65.5391 107.489 65.4005 107.335 65.4814 107.322C66.8703 107.056 66.0221 107.344 67.0273 107.147C68.0301 106.941 68.762 106.601 68.9766 106.557C69.0855 106.534 68.7664 106.778 69.2617 106.659C70.5977 106.351 72.8936 105.416 74.3447 104.795C74.8585 104.582 75.559 104.415 76.1318 104.156C77.0091 103.757 77.3424 103.401 77.8438 103.159C78.0207 103.075 79.2558 102.757 80.6182 101.981C80.8843 101.829 81.375 100.933 82.7822 101.056C82.8074 100.915 82.8304 100.774 82.8545 100.633C83.092 100.484 83.324 100.341 83.5508 100.203C87.4789 97.8043 89.0828 97.6761 90.5566 95.8597C93.8154 93.8768 91.7834 95.5517 92.1611 95.3675C92.4074 95.2456 93.3988 94.4927 93.5176 94.4183C93.7249 94.2924 93.7462 94.3989 93.9668 94.2513C97.988 91.5045 96.0915 92.5478 97.2842 91.5745C100.1 89.2085 102.771 88.0259 97.498 91.6175C97.5303 91.663 97.5625 91.7087 97.5947 91.7542C98.8534 90.8159 102.066 88.4378 101.169 89.4642C100.502 90.3297 92.6087 95.6267 97.2109 92.8167C98.2495 92.1728 98.648 91.64 100.588 90.7025C101.73 89.8804 101.586 89.3562 103.209 88.3646C102.854 88.4142 102.501 88.4616 102.146 88.5091C104.052 86.7666 106.71 85.0037 108.152 83.64C108.648 83.1818 109.903 80.9545 110.041 81.9613C110.872 81.1963 114.875 77.6858 115.509 76.9183C115.661 76.731 115.589 76.2224 118.082 73.8665C118.288 73.7331 118.492 73.5997 118.695 73.4671C116.652 75.8574 120.59 71.9413 119.869 73.3284C119.378 73.5843 117.571 75.2974 117.21 75.5169C116.611 75.8845 117.893 74.2883 116.103 76.1722C115.451 77.8421 118.528 74.2742 118.506 75.2542C120.657 72.55 121.07 72.4868 121.612 71.9134C122.022 71.4699 122.41 71.0357 122.761 70.6351C124.375 68.7855 125.521 67.3789 127.222 65.4173C127.615 64.7366 123.79 69.0037 123.385 69.5433C124.222 68.071 123.327 68.9374 122.27 70.2103C121.714 70.8801 121.106 71.658 120.737 72.2181C120.522 72.233 120.305 72.2483 120.089 72.263C120.785 71.5522 121.475 70.8172 122.124 70.0843C123.09 68.9921 123.966 67.944 124.84 66.7913C124.984 66.7072 125.127 66.6227 125.27 66.5394C124.99 67.0044 124.704 67.4763 124.41 67.9534C125.834 66.4767 124.687 67.1724 126.721 65.3187C126.644 65.1476 126.566 64.9765 126.488 64.806C128.167 62.8524 129.805 60.8832 131.405 58.8753C131.968 57.6154 134.956 53.6898 134.775 54.68C135.96 53.0532 134.348 54.9418 135.331 53.3519C135.758 52.6616 136.632 51.344 136.949 51.0745C137.206 51.4501 135.904 53.4659 135.729 54.2025C136.165 53.9582 141.811 44.4174 141.649 45.4583C142.15 44.7039 141.726 44.9487 142.454 43.5198C143.927 40.6757 146.073 36.7451 148.287 33.8314C149.17 32.6453 150.073 31.6542 150.791 30.8363C149.426 31.7943 148.581 32.7167 147.936 33.555C146.891 34.9389 146.309 36.0888 145.283 37.8597C144.285 39.7419 138.073 50.6903 139.074 48.015C138.875 48.4431 138.687 48.8484 138.479 49.2796C138.115 49.6079 137.761 49.9155 137.39 50.2445C138.091 49.1351 138.78 48.0034 139.437 46.8802C139.714 46.6737 139.989 46.4709 140.259 46.2718C140.25 46.1029 140.245 45.9289 140.239 45.7542C140.507 45.2622 140.765 44.7802 141.024 44.2874C141.045 44.4771 141.065 44.6689 141.084 44.8616C141.528 44.1281 141.958 43.4024 142.396 42.6507C142.154 42.7784 141.908 42.9105 141.664 43.0404C143.584 39.4874 142.993 40.7236 144.337 38.8821C145.203 37.4212 143.5 39.7733 145.27 36.6107C146.88 33.9433 146.754 34.6336 147.768 33.4232C148.167 32.9775 148.729 32.2785 149.826 31.2249C149.835 31.1151 149.845 31.0049 149.856 30.8948C150.843 30.1136 151.91 29.4384 153.024 28.887C152.836 28.8877 152.645 28.8932 152.455 28.8997C154.665 27.5013 158.097 26.3809 158.993 26.6068C156.434 27.0214 156.684 27.7259 157.338 27.6224C157.997 27.4494 163.435 26.2697 169.105 26.8284C172.189 27.4307 173.615 30.2401 174.936 32.098C176.195 34.0881 177.031 35.7586 177.453 36.5902C179.61 40.9604 180.76 44.4293 182.632 48.4769C181.9 45.5251 177.526 35.8856 176.553 34.0902C176.467 33.9041 177.023 33.6728 175.797 32.8695C174.374 30.6688 173.088 27.3882 169.133 26.4583C167.423 26.3533 165.646 26.3023 163.838 26.3675C163.989 26.1931 164.146 26.0194 164.303 25.847ZM231.281 129.838C231.265 129.869 231.307 129.908 231.396 129.952C232.107 130.403 235.978 130.712 236.01 130.538C236.02 130.48 234.443 130.396 234.223 130.333C234.221 130.333 234.22 130.333 234.219 130.333C234.127 130.312 234.608 130.247 233.88 130.136C233.056 130.087 232.236 129.995 231.416 129.86C231.371 129.852 231.326 129.846 231.281 129.838ZM239.349 130.142C239.204 130.157 236.633 130.305 236.51 130.292C234.949 130.623 240.344 130.369 239.349 130.142ZM226.609 129.119C227.408 129.182 228.197 129.236 228.989 129.286C228.072 129.073 227.156 128.853 226.242 128.624C226.364 128.789 226.486 128.955 226.609 129.119ZM265.325 126.691C263.391 127.758 260.354 129.282 261.12 129.27C262.343 128.582 263.567 127.868 264.752 127.156C264.942 127.002 265.133 126.847 265.325 126.691ZM164.766 20.4427C166.421 20.4285 168.031 20.5079 169.564 20.6282C174.461 21.3217 175.808 23.5394 177.213 24.8695C178.515 26.3372 179.416 27.6975 180.252 29.0491C181.861 31.6905 183.125 34.3118 184.28 36.8812C186.573 42.0296 188.463 47.1749 190.229 52.307C190.301 52.2858 190.373 52.2647 190.445 52.2435C191.348 55.7723 192.208 56.7904 192.438 58.8919C192.919 60.0631 193.402 61.2563 193.873 62.432C195.765 68.6342 197.536 74.8158 199.252 81.0316C200.635 86.0264 201.833 91.0943 202.874 96.0941C203.937 101.076 204.77 105.91 206.285 109.383C209.147 116.841 221.418 120.374 232.963 122.877C235.204 123.368 237.429 123.389 239.858 122.98C240.891 122.789 241.172 122.922 242.939 122.431C244.878 121.886 247.658 120.607 250.3 119.33C252.624 118.234 256.183 116.461 258.791 114.935C259.371 114.598 259.748 114.253 259.815 114.213C260.208 113.982 260.315 114.104 260.697 113.877C261.142 113.613 261.622 113.181 262.152 112.861C264.107 111.684 266.199 110.285 266.451 110.124C267.658 109.362 267.98 109.336 268.084 109.271C269.41 108.425 268.843 108.626 269.177 108.416C270.884 107.342 272.276 106.839 274.424 104.976C274.437 105.125 274.444 105.279 274.454 105.431C276.252 104.3 274.897 104.799 275.22 104.503C275.355 104.388 279.179 101.818 279.493 101.605C280.527 100.918 280.646 101.046 280.737 100.987C280.873 100.898 281.904 100.088 283 99.3021V99.8275C282.951 99.8616 282.902 99.8959 282.853 99.93C282.901 100.214 282.951 100.499 283 100.784V101.283C280.783 102.833 276.484 105.794 276.203 105.942C276.531 105.606 276.863 105.267 277.197 104.925C276.677 105.269 276.162 105.607 275.653 105.941C276.327 105.393 277.013 104.836 277.708 104.269C276.174 104.391 273.384 107.219 273.462 107.626C273.502 107.815 275.744 106.855 274.044 108.321C274.349 108.171 274.655 108.019 274.964 107.866C275.509 107.408 276.05 106.951 276.578 106.501C276.166 106.725 275.773 106.934 275.347 107.165C275.46 107.025 275.58 106.878 275.687 106.742C276.692 105.956 277.773 105.115 278.777 104.322C279.351 103.976 279.327 104.184 279.726 103.947C283.204 101.87 282.6 102.097 283 101.701V102.684C281.324 103.896 279.669 105.134 279.454 105.28C279.137 105.506 273.249 109.334 272.957 109.486C272.802 109.571 272.793 108.91 271.844 110.255C271.45 110.529 271.071 110.793 270.663 111.075C270.668 110.938 270.672 110.801 270.677 110.664C268.515 112.588 269.222 111.847 266.935 113.359C261.49 116.95 253.145 121.874 246.839 124.239C245.428 124.768 244.936 125.088 243.261 125.57C241.681 126.105 237.64 126.174 238.561 126.608C235.14 126.352 234.559 126.95 232.946 126.195C232.732 126.231 232.514 126.263 232.295 126.292C232.268 126.281 232.241 126.27 232.214 126.259C230.283 125.522 229.568 125.643 227.359 125.14C226.399 124.915 227.58 124.868 225.56 124.739C225.197 124.614 224.837 124.488 224.48 124.362C224.587 124.305 224.693 124.248 224.799 124.191C222.661 123.675 222.547 123.576 222.698 123.948C221.7 123.597 220.707 123.229 219.735 122.844C219.581 122.899 219.424 122.953 219.268 123.007C219.461 123.215 225.506 125.123 232.167 126.47C237.817 127.805 243.921 125.698 245.39 125.151C249.063 124.289 256.005 120.396 258.788 118.792C259.907 118.172 260.515 118.085 262.148 117.134C263.766 116.192 265.662 114.755 266.522 114.197C269.34 112.457 282.603 103.514 273.767 109.826C274.092 109.742 274.403 109.669 274.724 109.588C278.115 106.839 276.915 107.934 279.909 105.935C280.681 105.419 282.038 104.372 283 103.763V104.168C281.052 105.54 278.979 106.83 277.288 107.986C277.103 108.115 274.828 109.934 273.558 110.702C272.399 111.403 272.93 110.476 270.781 112.541C268.708 113.264 267.884 114.361 267.448 114.701C266.673 115.299 266.422 115.148 265.581 115.641C264.678 116.168 264.116 116.719 263.997 116.793C262.767 117.61 256.206 121.412 255.816 121.44C256.061 121.256 256.308 121.07 256.557 120.882C254.785 121.754 255.293 121.776 254.839 122.053C254.493 122.232 254.151 122.406 253.812 122.576C253.921 122.458 254.03 122.34 254.14 122.222C252.1 123.252 253.755 122.684 250.802 124.058C248.915 124.92 246.878 125.448 246.694 125.527C246.643 125.55 247.297 125.465 246.517 125.768C245.25 126.277 242.969 126.904 242.684 126.757C242.047 126.939 242.145 127.106 242.061 127.131C241.697 127.421 235.264 128.098 234.137 127.717C233.425 127.642 232.702 127.525 231.969 127.364C229.224 126.76 226.348 126.06 223.567 125.309C223.199 125.209 223.466 125.157 223.099 125.057C222.501 124.909 219.448 124.162 219.009 124.009C217.883 123.686 215.075 122.498 214.633 122.341C214.568 122.322 215.419 122.871 214.325 122.451C213.123 121.972 213.851 122.055 213.787 122.025C211.443 120.849 209.976 120.141 208.523 119.162C208.052 118.845 207.33 118.082 206.715 117.602C206.643 117.546 206.676 117.78 206.604 117.728C205.645 117 205.105 115.981 204.799 115.589C204.051 114.614 204.313 115.256 204.271 115.211C203.749 114.568 203.17 113.619 202.58 112.522C202.348 112.091 202.14 111.663 201.95 111.224C199.952 106.506 199.294 101.779 198.021 95.8929C197.852 95.0812 197.787 94.0833 197.76 93.9583C197.673 93.5714 197.529 93.7222 197.283 92.6087C196.765 90.2715 196.229 88.0954 195.636 85.8001C195.516 85.3385 195.618 85.0881 195.53 84.7425C195.403 84.2473 195.069 83.2778 194.744 82.2874C194.297 80.9215 193.899 79.5697 194.185 79.4476C193.072 77.241 193.015 75.5904 192.466 73.7288C191.169 69.3059 188.95 62.4307 187.543 58.0413C187.254 57.1308 187.232 56.6411 187.066 56.1282C186.79 55.226 184.865 49.9996 184.773 49.7279C184.61 49.1715 185.31 49.2976 183.776 46.722C183.133 45.1511 183.418 45.2227 183.304 44.8919C182.381 42.2606 180.786 39.9861 181.451 40.2571C180.027 37.3121 178.831 35.5565 178.606 34.1175C178.41 34.2452 177.588 32.9234 176.657 31.2493C177.972 32.7267 178.171 32.3829 180.167 36.6097C180.196 36.6739 179.989 36.6234 180.019 36.6878C180.285 37.2681 180.946 38.4959 181.384 39.5198C181.83 40.5631 181.471 40.0259 181.65 40.4339C181.812 40.8039 181.952 40.7284 182.186 41.2757C182.936 43.0386 183.592 44.5829 183.994 45.6116C184.24 46.2397 184.38 46.9992 184.569 47.5023C185.297 49.4053 186.855 53.4495 187.663 55.9075C187.832 56.4192 187.617 56.2639 187.978 57.3831C188.02 57.5141 188.332 57.932 188.688 58.9095C189.047 59.8946 189.209 60.6585 189.431 61.2933C189.613 61.8161 189.687 61.5674 190.035 62.6331C190.364 63.542 193.364 73.8185 193.48 74.389C193.682 75.2005 193.599 75.6455 193.765 76.1302C193.795 76.2142 194.024 76.3057 194.123 76.5989C194.591 77.9857 195.154 79.868 195.752 82.0062C197.284 87.3722 198.7 94.3295 199.522 98.4222C200.464 102.914 201.256 107.209 202.834 110.849C205.271 116.674 211.284 120.276 218.163 122.704C218.374 122.744 218.579 122.781 218.788 122.818C217.666 122.423 216.567 122.004 215.489 121.545C215.518 121.457 215.548 121.368 215.577 121.281C214.145 120.645 214.258 120.914 214.238 121.056C213.731 120.761 213.241 120.461 212.757 120.148C212.142 120.239 208.956 118.149 207.613 116.888C206.688 116.109 205.644 115.148 205.264 114.651C204.463 113.605 204.683 113.499 204.621 113.418C204.524 113.287 203.493 111.987 202.995 110.781C202.968 110.718 202.942 110.654 202.917 110.593C202.165 108.644 202.373 108.373 201.358 105.56C200.579 101.785 199.7 97.3201 198.704 93.0179C199.166 93.7845 198.036 89.954 197.604 88.2269C197.113 86.2058 196.572 84.096 195.983 81.9417C193.514 72.8831 190.617 62.8725 187.802 54.4124C187.346 53.044 187.159 52.0151 186.881 51.2493C186.733 50.8439 186.486 50.732 186.31 50.1683C186.278 50.0669 186.431 49.9476 186.069 48.8802C185.213 46.2474 182.335 39.9348 181.881 38.181C180.725 35.6629 179.46 33.1013 177.919 30.6126C177.124 29.3424 176.274 28.0892 175.138 26.8216C173.944 25.6465 172.72 23.9543 169.351 23.5101C165.237 23.2291 160.778 23.2636 156.351 24.6155C156.065 24.6234 155.781 24.6367 155.492 24.6556C153.933 25.3419 148.265 28.1408 145.676 31.7786C145.144 32.4439 144.692 33.0697 144.329 33.6097C140.726 39.3119 137.795 45.7386 134.798 49.9954C134.182 50.9233 133.573 51.6194 132.976 52.4759C132.71 52.8565 132.503 53.3897 132.229 53.7738C129.157 58.1101 124.462 63.6915 120.942 67.7659C120.731 68.0116 120.519 68.2594 120.304 68.5081C112.614 77.311 104.01 84.6498 94.1348 91.4437C90.4094 93.9909 86.5743 96.3749 82.6445 98.5902C74.1769 103.601 66.0113 106.548 56.4424 106.392C44.2496 106.56 32.198 106.311 20 105.877V102.37C28.9925 102.664 37.4855 102.876 45.4355 102.917C49.0878 102.945 52.7332 102.947 56.4082 102.921C65.6424 103.05 72.5099 100.613 81.0264 95.7113C85.4501 93.2527 89.7398 90.5796 93.8545 87.721C94.6 87.2025 95.1387 87.0044 95.4736 86.7659C98.6713 84.5241 103.703 80.341 106.582 77.7825C109.841 74.9475 114.201 70.7704 117.942 66.4642C121.401 62.5044 124.57 58.6368 126.745 55.8978C128.732 53.4153 130.636 50.7645 131.618 49.97C132.29 49.0239 132.358 48.3229 132.51 48.0618C132.512 48.0594 132.514 48.0565 132.516 48.054C133.007 47.2258 134.491 45.3126 134.762 44.8314C134.801 44.7614 134.344 45.0584 135.076 43.9886C135.141 43.8922 135.23 44.0663 135.786 43.1292C135.941 42.8951 137.535 39.5719 138.048 38.5784C138.991 36.8746 140.666 33.4829 143.432 30.015C145.874 26.8897 149.316 24.527 151.757 23.388C152.581 22.9936 153.024 22.7002 153.914 22.3616C154.373 22.1869 155.097 22.0576 155.237 22.015C155.85 21.7775 158.461 20.7054 157.689 21.8284C160.441 21.2203 159.582 21.1238 159.613 20.8997C162.647 20.4411 164.02 20.9317 164.766 20.4427ZM234.624 125.358C231.976 125.151 235.423 125.752 234.192 125.817C234.708 125.862 235.226 125.886 235.742 125.89C235.361 125.724 234.985 125.546 234.624 125.358ZM235.39 125.421C236.906 125.116 238.447 125.571 239.224 125.348C239.388 125.3 239.024 125.149 238.709 125.138C238.483 125.197 235.293 125.112 235.036 125.059C235.151 125.181 235.269 125.302 235.39 125.421ZM255.103 124.125C253.204 124.907 252.703 125.955 254.826 124.55C254.889 124.507 255.183 124.094 255.103 124.125ZM229.538 123.874C228.978 123.985 227.68 123.975 228.833 124.497C228.834 124.498 228.836 124.498 228.837 124.498C229.05 124.595 229.966 124.835 230.233 124.958C232.327 125.114 231.611 124.626 229.538 123.874ZM237.138 124.565C236.383 124.422 235.111 124.359 235.07 124.609C235.787 124.744 236.517 124.837 237.264 124.886C237.109 124.824 237.267 124.591 237.138 124.565ZM259.434 120.365C257.284 121.616 255.118 122.807 252.912 123.898C252.97 123.807 253.027 123.717 253.085 123.626C255.203 122.569 257.287 121.421 259.357 120.215C259.383 120.265 259.408 120.315 259.434 120.365ZM248.387 121.493C246.81 122.163 245.213 122.76 243.653 123.226C244.505 123.504 245.559 122.629 247.026 122.499C247.535 122.301 248.006 122.11 248.509 121.897C248.51 121.896 248.512 121.896 248.513 121.896C248.471 121.762 248.429 121.627 248.387 121.493ZM204.821 120.557C205.449 121.086 206.103 121.585 206.768 122.049C206.774 121.962 206.017 121.419 205.779 121.164C205.78 121.165 205.782 121.166 205.783 121.167C205.52 120.886 205.706 120.911 205.198 120.439C205.073 120.479 204.947 120.518 204.821 120.557ZM220.55 121.75C219.231 121.083 218.596 121.342 218.797 121.446C219.949 122.015 221.244 122.094 220.55 121.75ZM223.492 121.191C217.452 119.504 220.744 120.855 222.871 121.222C223.294 121.292 223.542 121.286 223.492 121.191ZM273.243 119.32C273.036 119.144 271.862 119.792 270.524 120.862C270.636 120.88 270.748 120.899 270.859 120.917C271.473 120.263 272.664 119.967 274.912 118.432C274.84 118.323 274.769 118.213 274.697 118.104C274.207 118.515 273.722 118.92 273.243 119.32ZM252.225 120.042C253.141 119.581 254.041 118.76 252.218 119.618C250.473 120.412 250.011 121.127 252.225 120.042ZM202.501 115.43C202.123 115.547 206.464 119.909 207.111 119.943C204.151 117.185 205.12 118.669 202.501 115.43ZM266.243 116.724C267.862 115.429 271.268 113.189 270.319 114.387C268.33 115.403 267.258 116.324 264.473 117.89C264.818 117.568 265.177 117.236 265.521 116.911C265.522 116.91 265.524 116.909 265.525 116.909C265.763 116.848 266.003 116.787 266.243 116.724ZM279.318 110.549C277.194 111.989 275.472 113.314 273.025 114.663C275.128 113.023 276.398 112.566 278.393 110.839C278.394 110.838 278.395 110.837 278.396 110.836C278.702 110.742 279.01 110.646 279.318 110.549ZM269.427 112.618C269.251 112.744 268.727 113.147 268.691 113.165C268.597 113.209 268.595 112.987 267.97 113.365C266.49 114.248 264.893 115.907 269.526 112.755C269.493 112.71 269.46 112.664 269.427 112.618ZM280.318 113.673C280.257 113.862 280.188 114.057 280.123 114.248C280.795 113.804 281.428 113.384 282.094 112.941C281.889 112.922 281.684 112.903 281.48 112.883C281.09 113.149 280.703 113.413 280.318 113.673ZM283 109.584C282.849 109.634 282.722 109.663 282.545 109.783C280.747 111.002 279.214 112.465 278.729 112.172C280.494 111.159 281.862 109.8 282.134 109.647C282.218 109.6 282.548 109.474 283 109.248V109.584ZM275.883 110.719C279.506 108.209 275.886 111.108 274.913 111.556C274.313 111.838 275.521 110.97 275.883 110.719ZM96.8438 99.9241C99.7755 97.6193 93.5451 101.278 92.8086 101.743C92.7135 101.809 92.8319 101.964 92.2295 102.371C91.5754 102.816 88.9862 104.319 86.5996 105.628C85.089 106.463 83.6492 107.242 82.8955 107.695C82.8182 107.59 82.7412 107.486 82.6641 107.381C81.8646 107.95 81.048 108.515 80.2148 109.067C79.9917 108.959 77.3095 110.544 77.7637 109.777C76.9095 110.349 76.0286 110.905 75.1182 111.439C75.1423 111.48 75.1673 111.522 75.1914 111.563C76.1476 111.161 77.0817 110.733 77.9951 110.287C78.0289 110.354 78.0629 110.421 78.0967 110.488C79.4367 109.668 84.8836 106.936 84.8184 107.243C85.0514 106.989 85.2713 106.739 85.5 106.485C85.9402 106.298 86.3449 106.11 86.7549 105.905C88.8323 104.862 90.5995 103.61 92.958 102.442C93.1154 102.235 93.2703 102.03 93.4277 101.822C93.602 101.801 93.7762 101.779 93.9502 101.758C94.9199 101.158 95.8869 100.545 96.8438 99.9241ZM268.341 110.109C267.663 110.42 265.209 112.418 267.622 110.967C269.127 110.057 268.448 110.059 268.341 110.109ZM277.384 109.35C279.897 107.991 272.997 112.528 275.042 110.928C275.13 110.861 277.277 109.411 277.384 109.35ZM49.3604 110.244C49.8542 110.393 50.8543 110.249 51.2295 110.272C51.3162 110.278 50.627 110.403 51.4658 110.438C51.7031 110.353 51.945 110.267 52.1807 110.182C51.2304 110.205 50.3106 110.226 49.3604 110.244ZM283 106.057C281.595 106.988 280.189 107.917 278.759 108.852C279.065 108.476 279.373 108.097 279.685 107.715C280.638 107.176 281.574 106.646 282.543 106.09C282.031 106.467 281.525 106.839 281.023 107.207C281.684 106.798 282.341 106.386 283 105.976V106.057ZM274.178 106.295C271.295 108.353 271.915 107.626 271.768 107.711C269.174 109.176 271.66 108.846 274.178 106.295ZM158.698 24.9495C161.839 24.3194 163.051 24.1797 166.194 24.2864C166.468 24.2984 167.266 24.6657 167.792 24.2679C168.522 24.3795 168.978 24.4525 169.278 24.4896C171.013 24.8669 170.437 24.3409 172.61 25.638C175.061 27.5025 176.116 29.5189 177.299 31.4349C177.846 32.5538 174.742 28.3627 174.372 28.1321C173.986 27.6743 173.725 27.0829 173.27 26.6517C172.23 25.5979 170.416 24.7943 169.262 24.7122C169.142 24.6892 169.051 24.6597 168.994 24.6224C167.038 24.6968 169.465 24.7524 169.204 24.9193C167.926 24.7505 166.621 24.6136 165.292 24.5404C164.668 24.934 157.149 25.1332 157.756 25.682C157.147 25.7403 156.535 25.8228 155.921 25.9329C153.604 27.4156 151.965 27.6505 149.016 29.9124C149.261 29.7937 149.515 29.675 149.764 29.5677C149.673 29.6029 147.487 31.9201 148.07 30.8929C147.483 31.6737 147.088 32.2006 146.744 32.6185C145.971 33.5822 145.434 33.8767 144.694 35.7152C143.914 37.1303 144.125 36.1581 142.742 38.6321C141.934 40.0993 141.119 41.9423 140.232 43.5218C140.032 43.8783 139.794 43.9518 139.605 44.2777C139.424 44.5922 139.479 44.8278 139.253 45.221C138.796 46.018 138.077 46.9738 137.773 47.4808C137.517 47.9108 137.245 48.6253 136.583 49.6839C134.249 53.3513 134.768 52.1463 134.335 52.6654C133.853 53.2245 133.776 53.822 132.88 55.0081C132.788 55.1282 132.878 54.7109 132.595 55.1136C132.372 55.4281 132.424 55.6798 131.667 56.7581C131.416 57.1911 126.512 63.5151 125.707 64.4339C124.731 65.6302 122.783 67.7866 121.331 69.3978C120.991 69.7758 120.67 70.1312 120.422 70.4105C119.933 70.9604 119.515 71.6458 118.979 72.223C117.214 74.1393 114.256 77.0904 111.809 79.3167C109.627 81.3508 105.408 84.4644 104.311 85.7015C101.048 88.3447 100.057 88.7044 99.8047 88.8997C99.1138 89.3999 98.8961 89.7711 98.0273 90.4075C93.7121 93.5638 88.6722 96.8347 83.3369 99.8226C79.0256 102.239 74.6595 104.519 70.2764 105.845C65.9045 107.199 61.4744 107.603 57.46 107.695C57.1303 107.702 56.7951 107.709 56.4551 107.712C44.3023 107.867 32.2041 107.611 20 107.176V106.222C20.0313 106.223 20.0636 106.222 20.0967 106.223C21.258 106.255 19.9849 106.382 22.5684 106.534C23.854 106.613 28.3252 106.637 29.4121 106.665C30.5044 106.697 31.6986 106.855 33.21 106.881C35.3612 106.923 40.0756 106.934 42.2676 106.913C42.3976 106.912 42.7165 106.754 43.04 106.76C43.711 106.773 43.5114 106.972 44.0176 106.996C44.5239 107.034 53.2846 107.022 54.7744 106.998C55.449 106.994 55.9916 106.938 56.4473 106.899C56.6752 106.879 56.8779 106.862 57.0635 106.859C57.4903 106.852 57.5416 107.018 57.9824 107.007C58.1202 107.003 59.2653 106.825 60.4023 106.75C61.4951 106.728 65.5155 106.338 65.9629 106.206C66.2605 106.149 65.9128 106.102 66.7871 105.924C67.5792 105.758 68.1343 105.776 68.584 105.66C69.6272 105.392 70.7361 104.91 71.8115 104.52C74.8968 103.352 74.8069 103.499 74.9951 103.445C75.5136 103.232 75.6448 102.978 75.8096 102.898C76.5094 102.564 78.2136 101.68 78.8359 101.342C79.6118 100.928 80.0223 100.897 80.8457 100.451C81.3014 100.204 82.0311 99.7038 82.9482 99.1312C83.2873 98.9194 83.6486 98.6994 84.0244 98.4818C87.1512 96.6778 90.7861 94.3772 93.7207 92.3968C94.6006 91.8038 94.8169 91.8366 95.085 91.6575C96.4992 90.7065 97.1707 90.0104 97.5645 89.7308C100.398 87.7467 105.404 84.137 107.84 82.0335C108.853 81.2058 113.028 77.2898 115.295 75.0052C115.557 74.7455 115.399 75.0736 115.675 74.7698C116.327 74.0475 116.096 73.9341 116.445 73.5863C116.613 73.4201 117.096 73.118 117.583 72.6234C118.946 71.2386 120.017 70.0193 120.873 69.0013C121.644 68.0854 122.231 67.366 122.732 66.7806C127.282 61.459 131.663 55.9533 135.501 50.2279C139.515 44.5587 141.904 38.4103 146.407 32.3538C147.825 30.55 149.561 28.9792 151.486 27.7806C153.131 26.7467 155.324 25.5723 158.148 25.0657C158.251 25.1191 158.353 25.1732 158.454 25.2279C158.534 25.1346 158.616 25.042 158.698 24.9495ZM89.9248 98.932C90.4084 98.3529 86.4599 100.825 84.5127 101.914C84.1488 102.122 83.863 102.284 83.6924 102.376C83.1914 102.648 82.5443 102.867 82.2363 103.031C81.9057 103.207 81.5292 103.597 80.7148 104.02C80.4808 104.151 77.7372 105.336 76.5713 105.876C76.7386 105.873 76.9024 105.87 77.0684 105.866C78.5051 105.211 79.9192 104.503 81.3125 103.772C81.1897 103.879 81.0699 103.985 80.9453 104.092C82.8296 103.192 83.6328 102.545 84.5615 102.002C84.6937 101.925 84.8279 101.848 84.9678 101.774C84.9667 101.774 84.966 101.776 84.9648 101.777C85.0858 101.713 85.2983 101.75 85.7412 101.502C86.7636 100.941 89.6543 99.2692 89.9248 98.932ZM280.497 101.751C281.73 100.313 275.745 104.377 278.108 103.602C278.412 103.421 278.718 103.239 279.025 103.055L280.497 101.751ZM280.989 102.18C282.386 101.205 281.808 101.062 281.43 101.266C280.773 101.619 279.36 102.683 280.117 102.433C280.265 102.38 281.597 101.267 280.989 102.18ZM94.5195 94.8089C93.6893 94.6525 87.6283 98.9856 83.96 100.931C83.6827 101.083 83.4236 101.221 83.1855 101.343C83.0465 101.541 83.4167 101.402 84.0459 101.083C85.4102 100.401 87.8976 98.8616 88.6816 98.4066C89.2583 98.0838 92.4588 96.5116 94.5879 94.845C94.5652 94.8329 94.5422 94.821 94.5195 94.8089ZM100.942 96.5404C99.5675 97.5593 98.8003 98.2186 98.8984 97.8294C98.5485 98.1054 98.1955 98.3812 97.8398 98.6566C98.4259 98.8727 98.8728 98.6764 101.374 96.4661C101.23 96.491 101.086 96.5157 100.942 96.5404ZM109.155 90.5325C107.638 92.0973 106.766 92.4008 106.356 92.6976L105.385 93.3909C104.415 94.0781 103.463 94.735 102.498 95.3558C103.05 95.1571 103.593 94.9608 104.145 94.7552C105.87 93.4532 107.57 92.1162 109.241 90.7435C109.212 90.6735 109.184 90.6025 109.155 90.5325ZM97.3594 93.9085C96.739 94.3959 96.1252 94.8715 95.4971 95.3499C96.0443 95.0385 96.5894 94.7237 97.1289 94.4085C97.2073 94.241 97.2851 94.0729 97.3623 93.9056C97.3613 93.9064 97.3604 93.9078 97.3594 93.9085ZM93.5264 94.0687C94.7302 93.2345 95.698 92.6183 95.5645 92.9613C94.917 93.3948 94.2623 93.8265 93.6084 94.2503C93.5812 94.19 93.5536 94.129 93.5264 94.0687ZM108.51 85.2405C106.656 87.2291 100.882 91.0297 99.29 92.5462C99.1903 92.6448 100.333 92.0085 98.7803 93.4603C100.048 92.492 100.916 91.7747 100.881 91.5277C101.302 91.311 101.732 91.0844 102.153 90.8616C102.741 90.3497 103.339 89.8234 103.919 89.303C103.984 89.5286 104.035 89.4796 104.887 88.6204C105.348 88.3287 105.821 88.0235 106.281 87.7249C106.403 87.5073 106.525 87.2885 106.648 87.0687C107.101 86.8685 107.548 86.6711 107.999 86.4671C109.337 85.1689 108.305 85.699 108.51 85.2405ZM113.723 87.2825C115.918 84.9259 113.912 86.7563 113.722 86.5384C113.232 87.0803 112.73 87.6267 112.231 88.1624C110.706 89.1027 111.892 87.9205 111.882 87.8929C111.881 87.8938 111.879 87.8949 111.878 87.8958C111.822 87.83 111.855 87.78 111.302 88.179C111.04 88.7018 110.772 89.2259 110.497 89.7523C112.367 88.2903 111.921 88.4931 113.723 87.2825ZM104.884 86.0013C105.095 86.0445 99.6293 90.2005 101.376 88.5716C102.56 87.7297 103.724 86.8772 104.884 86.0013ZM110.728 82.2015C112.785 79.8264 107.647 84.6805 107.362 84.8616C107.095 85.0997 103.55 87.6499 103.415 87.8841C103.016 88.6709 105.183 86.7872 106.012 86.2855C107.358 85.4747 105.72 87.0901 108.546 84.5472C108.475 84.7051 108.404 84.8636 108.334 85.0198C110.051 83.5978 109.148 83.6769 109.41 83.3655C109.494 83.2683 110.558 82.3979 110.728 82.2015ZM123.295 71.098C122.706 71.7779 122.092 72.471 121.473 73.1566C120.109 74.6524 118.708 75.7576 116.265 78.6888C115.563 79.3103 115.643 78.9151 115.554 78.9847C115.289 79.3483 105.985 87.6708 110.559 84.2816C111.662 83.3063 112.766 82.3033 113.841 81.2923C112.454 81.5914 115.834 79.3307 116.081 79.0931C117.272 78.0457 118.574 76.4881 119.371 75.6683C120.065 74.9574 120.561 74.6184 121.03 74.1077C121.784 73.2885 122.723 72.239 123.507 71.2816C124.422 70.1663 125.103 69.2452 125.162 68.929C124.557 69.6375 123.942 70.3511 123.295 71.098ZM121.536 79.5892C120.326 80.6743 119.098 81.7343 117.854 82.7718C117.393 83.4681 117.3 83.9052 118.935 82.515C118.936 82.5141 118.937 82.5129 118.938 82.512C118.769 82.0842 120.475 80.9066 121.119 80.2113C121.26 80.0035 121.397 79.7977 121.536 79.5892ZM114.444 79.1878C113.319 79.5592 113.519 80.111 110.512 82.513C110.334 82.7818 110.156 83.0495 109.976 83.3187C111.495 81.9737 112.985 80.5961 114.444 79.1878ZM104.819 80.8538C104.166 81.4762 103.505 82.0944 102.834 82.7093C103.387 82.3105 103.925 81.9177 104.473 81.5111C104.59 81.2918 104.705 81.0723 104.819 80.8538ZM191.304 81.2239C191.441 81.0215 191.579 80.8188 191.716 80.6165C191.555 80.2047 191.393 79.7923 191.229 79.3734C191.257 79.9996 191.279 80.6065 191.304 81.2239ZM107.106 78.8958C106.859 79.2101 106.608 79.526 106.354 79.8421C106.777 79.5 107.188 79.1641 107.607 78.8177C107.85 78.5427 108.09 78.268 108.326 77.9945C107.925 78.2941 107.515 78.5972 107.106 78.8958ZM121.441 79.4827C121.533 79.4593 124.516 76.6113 123.741 76.9583C123.351 77.1546 121.274 79.5472 121.441 79.4827ZM139.858 57.7044C139.902 55.7197 134.203 65.4595 134.829 62.9954C134.828 62.9964 134.827 62.9973 134.826 62.9984C134.547 63.3824 134.24 63.7984 133.968 64.1673C134.116 64.3807 134.265 64.5948 134.412 64.8089C133.107 65.499 132.443 67.2551 130.443 69.0101C130.347 69.2443 130.25 69.4803 130.151 69.7171C129.776 70.0402 127.995 72.0819 126.479 73.8538C124.979 75.6117 123.734 77.0555 124.601 76.3978C125.335 75.8423 126.487 74.222 126.656 74.0081C126.662 74.0014 126.666 73.9955 126.67 73.9915C127.075 73.5522 127.742 73.1059 128.361 72.3597C128.71 71.9395 129.331 70.8187 130.053 69.9525C131.726 67.9599 135.259 64.6518 136.82 61.4935C137.029 61.3408 137.233 61.1923 137.44 61.0394C138.941 58.9289 138.241 59.4876 139.858 57.7044ZM194.485 69.5277C194.628 69.6388 194.771 69.75 194.913 69.8616C194.582 69.1469 194.242 68.4051 193.907 67.6888C194.1 68.2966 194.292 68.9101 194.485 69.5277ZM123.532 68.1575C122.348 69.4162 125.226 65.3116 125.44 65.803C124.823 66.5751 124.172 67.377 123.532 68.1575ZM139.957 60.1751C138.603 61.4386 137.825 63.0016 136.046 65.1839C136.107 65.2267 136.168 65.27 136.229 65.3128C136.814 64.2786 138.755 61.9342 139.957 60.1751ZM134.453 55.6097C132.018 59.0931 129.677 61.7282 127.402 64.9691C127.992 65.1002 135.271 54.8336 134.453 55.6097ZM133.379 55.4183C132.791 56.31 132.169 57.2273 131.562 58.1077C131.517 58.075 131.47 58.0428 131.425 58.0101C132.077 57.1631 132.744 56.2782 133.379 55.4183ZM131.055 52.056C129.148 54.2638 129.417 54.3073 129.045 54.8109C128.864 55.0512 128.675 55.149 128.573 55.2073C128.551 55.2228 128.53 55.2387 128.508 55.2542C128.065 55.846 126.69 57.9987 126.811 57.9759C127.562 57.1795 128.276 56.4178 129.004 55.6214C128.887 55.5276 128.77 55.4339 128.653 55.3402C128.802 55.2662 128.95 55.1925 129.098 55.1195C129.412 54.6049 129.737 54.071 130.037 53.5648C130.312 53.4095 130.61 53.2211 130.893 53.053C130.95 52.717 131.005 52.3843 131.055 52.056ZM142.644 53.0853C146.664 48.2179 146.503 45.9367 141.245 55.0999C141.245 55.1012 141.244 55.1026 141.243 55.1038C140.954 55.1984 140.663 55.2941 140.37 55.3909C140.765 55.6502 139.789 57.1636 141.571 55.3196C141.839 54.9079 142.113 54.4797 142.371 54.0726C142.454 53.7577 142.557 53.4105 142.644 53.0853ZM142.246 48.8568C141.321 50.3577 140.149 51.9531 139.773 52.9534C140.456 51.9922 141.154 50.9764 141.809 49.9935C141.96 49.6093 142.107 49.2281 142.246 48.8568ZM146.223 47.5286C146.843 46.4805 147.052 45.5392 146.757 45.8997C146.217 46.5619 145.397 48.9158 146.223 47.5286ZM165.279 21.5892C166.72 21.6423 168.121 21.7653 169.469 21.9202C169.479 21.9212 169.49 21.9222 169.501 21.9232C169.489 21.9452 169.476 21.9675 169.464 21.9896C169.436 22.1059 169.408 22.2228 169.38 22.3392C168.658 22.2481 167.926 22.1663 167.179 22.0999C166.914 22.1544 166.648 22.2114 166.384 22.2698C167.314 22.4519 168.221 22.6596 169.104 22.8831C169.203 22.8849 169.301 22.8869 169.397 22.889C171.962 23.0954 173.359 24.2209 174.449 25.0677C173.952 24.5315 173.395 23.9999 172.598 23.4769C176.332 25.9414 174.987 25.652 176.64 27.7288C177.254 28.3206 177.834 28.9409 178.369 29.5355C178.891 30.5986 179.327 31.6182 179.739 32.6546C180.654 34.2375 180.806 34.3469 180.373 33.181C180.953 33.9168 181.15 34.9082 181.688 35.8743C181.731 35.9491 181.806 35.7336 181.841 35.8011C184.271 40.7884 183.669 40.7171 184.007 41.5169C184.233 42.0814 185.409 44.2554 185.511 44.2571C185.642 44.2542 184.286 39.3019 187.183 46.763C186.077 42.7518 183.867 38.5359 184.565 41.555C184.149 40.3047 181.63 35.0529 181.411 34.6732C181.187 34.1688 181.46 34.267 181.139 33.6234C180.916 33.2308 180.159 32.5351 178.654 29.3538C178.346 29.0111 178.046 28.6936 177.709 28.3402C177.506 27.9417 177.315 27.5739 177.068 27.1536C177.824 27.7728 178.518 28.3997 179.17 29.012C176.958 26.3822 175.836 22.8293 170.095 21.7962C169.89 21.7631 169.685 21.7379 169.483 21.721C167.949 21.5671 167.186 21.5018 167.914 21.348C167.39 21.3217 166.864 21.3015 166.333 21.2904C165.979 21.3861 165.632 21.4857 165.279 21.5892ZM172.888 38.5931C171.602 37.6758 173.522 39.8943 173.84 42.0618C173.965 41.2453 175.231 44.1774 175.325 44.3529C175.316 43.9488 175.307 43.549 175.299 43.1546C174.621 41.9593 173.926 40.7796 173.22 39.6556C173.108 39.2931 172.997 38.9384 172.888 38.5931ZM148.538 43.595C149.723 41.132 150.599 39.9123 149.905 40.2308C149.905 40.2317 149.904 40.2328 149.903 40.2337C149.264 41.3591 148.629 42.571 147.966 43.8226C148.157 43.7449 148.349 43.6691 148.538 43.595ZM149.051 34.431C153.24 28.8528 160.829 27.3589 167.294 27.68C167.698 27.7895 168.1 27.9037 168.498 28.0218C161.368 27.4098 153.557 28.7893 149.223 34.5667C147.629 36.5797 146.363 38.8544 145.09 41.1751C145.441 40.3713 145.799 39.559 146.165 38.765C147.03 37.267 147.966 35.7954 149.051 34.431ZM162.819 31.4368C162.624 31.5276 162.429 31.6202 162.24 31.7152C161.942 31.4286 158.453 32.3512 157.402 33.0511C157.255 33.0103 157.107 32.971 156.957 32.9349C156.54 33.1589 156.139 33.4035 155.76 33.6634C155.764 33.554 155.769 33.4432 155.775 33.3333C155.519 33.6039 155.279 33.8822 155.056 34.1663C154.037 35.0447 154.392 34.1474 153.695 34.9222C152.967 35.805 154.55 34.8075 154.647 35.015C155.277 34.407 157.017 33.3237 157.943 33.0208C158.485 32.8549 157.901 33.2953 160.191 32.3226C160.748 32.3014 161.312 32.3035 161.882 32.3265C162.888 32.0476 163.958 31.8343 165.074 31.6761C165.282 31.805 165.492 31.9361 165.698 32.0687C165.775 32.069 167.369 31.9653 168.048 31.8763C167.914 31.9794 168.736 32.4428 169.458 33.5872C169.626 33.6969 169.799 33.818 169.976 33.9505C168.697 32.4382 169.666 33.3899 169.428 32.846C169.317 32.5801 168.918 31.9387 168.764 31.6439C168.765 31.6802 168.73 31.6919 168.674 31.6888C167.101 31.5972 165.36 31.5494 164.47 31.5433C163.995 31.5326 163.151 31.3807 162.819 31.4368ZM167.39 34.3392C167.784 34.4772 168.273 34.5549 168.543 34.4202C168.523 34.393 168.507 34.3622 168.497 34.3284C168.096 34.3361 167.728 34.3387 167.39 34.3392ZM166.812 33.6868C166.802 33.6798 166.563 33.7311 166.806 34.0032C166.858 34.0869 167.007 34.1797 167.198 34.264C166.966 33.9166 166.807 33.6592 166.812 33.6868ZM179.301 29.5892C179.478 29.9985 179.643 30.4024 179.812 30.8226C180.265 31.4528 180.707 32.1006 181.121 32.7239C180.987 32.3525 180.827 31.9411 180.674 31.553C180.248 30.9169 179.771 30.2239 179.301 29.5892ZM168.729 31.9036C168.475 31.872 168.3 31.8546 168.188 31.8538C168.305 31.8346 168.366 31.8198 168.346 31.804C168.461 31.8384 168.59 31.8712 168.729 31.9036ZM164.197 21.5755C161.826 21.7388 160.084 21.7529 158.858 21.9398C157.887 22.0959 158.01 22.2039 157.937 22.2152C157.933 22.2159 157.929 22.2164 157.926 22.2171C155.65 22.6919 154.896 22.8429 153.183 23.5198C148.826 25.4114 146.935 27.6727 144.493 29.9974C145.42 29.3979 148.214 26.243 152.226 24.3411C156.187 22.3542 160.67 21.7958 162.849 21.972C163.297 21.8318 163.745 21.7 164.197 21.5755ZM150.7 26.6116C152.281 25.47 150.074 26.7368 149.723 26.7581C149.576 26.7582 151.086 25.5997 148.96 26.7103C148.152 27.282 148.611 27.1114 148.543 27.1634C148.029 27.5556 147.493 27.8775 147.317 28.0511C144.22 31.4193 146.459 29.3646 146.497 29.3372C146.657 29.3687 145.952 30.3029 147.197 29.2659C147.868 28.5473 148.591 27.8735 149.362 27.2503C149.805 27.0191 150.248 26.8085 150.7 26.6116ZM154.443 22.5794C151.86 23.5042 149.315 24.9199 147.142 26.7698C147.076 26.9005 147.012 27.0318 146.949 27.1634C149.154 24.8906 154.646 22.8142 154.443 22.5794ZM158.199 22.8675C156.175 23.3223 154.131 24.0198 152.192 25.0277C154.199 24.1534 156.269 23.608 158.292 23.306C158.261 23.1599 158.23 23.0135 158.199 22.8675ZM168.321 20.7679C167.796 20.7008 165.524 20.5907 165.795 20.7493C166.784 20.8632 167.748 21.0074 168.685 21.1702C168.965 21.146 169.253 21.1241 169.529 21.1029C170.014 21.1151 170.488 21.1676 170.94 21.2523C170.533 21.1486 170.051 21.0526 169.537 20.9984C169.012 20.9056 168.434 20.7788 168.321 20.7679Z" fill="#15665E"/>
</g>
<defs>
<filter id="filter0_g_0_1" x="0" y="0.441055" width="303" height="157.094" filterUnits="userSpaceOnUse" color-interpolation-filters="sRGB">
<feFlood flood-opacity="0" result="BackgroundImageFix"/>
<feBlend mode="normal" in="SourceGraphic" in2="BackgroundImageFix" result="shape"/>
<feTurbulence type="fractalNoise" baseFrequency="0.12870012223720551 0.12870012223720551" numOctaves="3" seed="5749" />
<feDisplacementMap in="shape" scale="40" xChannelSelector="R" yChannelSelector="G" result="displacedImage" width="100%" height="100%" />
<feMerge result="effect1_texture_0_1">
<feMergeNode in="displacedImage"/>
</feMerge>
</filter>
</defs>
</svg>
