<svg width="388" height="340" viewBox="0 0 388 340" fill="none" xmlns="http://www.w3.org/2000/svg">
<g filter="url(#filter0_g_4_13)">
<path d="M344 170C344 252.843 276.843 320 194 320C111.157 320 44 252.843 44 170C44 87.1573 111.157 20 194 20C276.843 20 344 87.1573 344 170Z" fill="#15665E"/>
<path fill-rule="evenodd" clip-rule="evenodd" d="M202.181 106.557C206.52 105.234 211.435 105.07 216.478 105.416C216.269 105.246 217.666 106.005 218.604 107.185C219.62 108.352 220.58 109.779 221.472 111.271C222.006 112.071 224.13 116.439 224.468 117.222C224.766 117.844 225.205 118.351 225.616 119.316C226.166 120.626 225.302 119.519 226.345 121.646C226.616 122.208 226.511 121.588 227.05 122.73C227.276 123.115 230.339 130.656 230.463 131.11C230.713 131.821 230.637 132.518 230.698 132.704C231.006 133.64 231.219 133.521 231.47 134.143C232.196 135.936 232.896 138.424 233.001 138.719C234.321 142.328 236.761 149.143 237.853 153.047C238.006 153.591 237.815 153.582 237.838 153.676C237.989 154.286 238.301 154.602 238.484 155.177C239.474 158.285 240.804 163.209 241.682 166.359C241.783 166.722 242.1 167.462 242.279 168.118C243.274 171.775 242.784 170.649 242.836 170.854C242.96 171.351 243.379 172.185 243.757 173.484C243.98 174.251 244.245 175.184 244.534 176.217C245.511 179.674 246.628 184.153 247.274 186.979C247.899 189.708 247.685 189.713 247.724 189.895C247.802 190.28 248.197 191.304 248.603 193.112C249.377 196.592 249.132 196.232 249.438 197.673C249.464 197.798 249.569 197.543 249.917 199.155C250.567 202.227 251.937 209.442 253.317 212.964C253.705 214.018 253.96 214.401 254.329 215.176C254.434 215.395 254.55 215.642 254.686 215.937C255.564 218.226 258.746 222.771 259.11 223.028C259.192 223.119 259.494 223.214 259.976 223.729C260.507 224.295 260.991 224.89 261.414 225.282C263.784 227.629 268.623 230.213 267.01 229.921C267.955 230.336 268.909 230.714 269.861 231.06C275.625 234.183 281.511 236.041 287.459 237.665C288.793 238.025 289.881 238.426 291.018 238.707C292.146 239.002 297.168 239.981 297.998 240.15C298.093 240.171 298.219 240.198 298.368 240.23C300.728 241.053 309.177 241.124 310.223 240.776C312.496 240.539 314.66 240.302 315.555 240.03C316.252 239.814 315.564 239.852 316.892 239.455C319.197 238.787 323.005 237.557 323.668 237.27C323.952 237.146 323.391 237.29 326.013 236.161C327.404 235.549 328.199 235.305 328.709 235.066C328.863 234.985 328.54 234.954 331.256 233.636C333.093 232.73 333.958 232.43 334.141 232.336C334.422 232.187 335.05 231.672 336.19 231.05C338.874 229.607 343.73 226.938 346.14 225.447C346.616 225.154 346.362 225.088 348.221 223.941C349.562 223.11 349.428 223.376 349.923 223.069C350.692 222.59 351.794 221.659 353.504 220.552C354.918 219.694 361.985 215.007 367.093 211.609V212.291C366.688 212.578 366.362 212.813 366.182 212.955C365.892 213.185 366.684 212.854 365.095 214.046C363.405 215.312 362.458 215.58 361.983 216.408C359.256 217.685 357.077 219.726 360.081 217.881C360.758 217.488 363.652 215.567 367.093 213.256V214.643C363.345 217.226 359.572 219.79 355.749 222.312C354.625 223.242 361.981 218.51 362.494 218.156C363.598 217.44 365.325 216.256 367.093 215.043V215.409C364.782 217.224 361.171 218.92 361.386 219.451C360.073 220.268 358.751 221.085 357.449 221.881C354.655 223.776 359.386 221.418 348.169 228.281C347.381 228.753 347.453 228.518 346.302 229.236C345.98 229.43 344.179 230.842 340.379 232.991C339.779 233.328 339.657 233.234 339.028 233.566C337.611 234.323 334.805 236.131 335.911 235.023C330.046 237.928 332.584 237.001 330.818 238.045C329.638 238.714 329.74 238.368 328.681 238.918C327.345 239.56 328.553 239.499 322.794 241.568C323.456 241.308 324.061 241.058 324.7 240.786C324.351 240.844 324.003 240.899 323.658 240.95C320.427 242.327 320.629 241.934 319.15 242.835C316.574 243.388 314.35 243.967 310.615 244.468C303.273 244.962 306.908 245.678 298.493 243.945C298.187 243.904 297.881 243.86 297.575 243.812C296.68 243.681 295.798 243.55 294.899 243.411C293.088 242.805 294.634 242.945 291.875 242.235C293.946 243.198 288.118 241.603 287.006 241.682C286.926 241.563 286.846 241.443 286.767 241.324C286.142 241.154 285.51 240.977 284.888 240.798C284.865 240.869 284.842 240.942 284.819 241.014C283.992 240.717 283.182 240.418 282.353 240.103C281.7 239.979 281.048 239.849 280.389 239.711C279.402 239.222 278.409 238.713 277.422 238.185C276.773 237.936 276.126 237.68 275.476 237.412C275.641 237.597 275.808 237.782 275.976 237.967C275.144 237.607 274.318 237.234 273.491 236.843C274.397 237.411 273.705 237.411 271.071 236.195C268.908 235.12 271.496 236.099 266.81 233.729C266.492 233.497 265.728 233.66 261.463 230.563C256.492 226.491 259.057 228.28 258.191 227.527C258.026 227.369 256.498 226.061 255.281 224.567C254.586 223.729 254.068 222.799 253.986 222.681C253.6 222.13 253.353 222.053 252.848 221.258C252.047 219.99 251.217 218.365 250.566 216.773C250.208 215.901 249.89 215.054 249.621 214.317C249.292 213.42 248.934 212.61 248.808 212.213C248.611 211.595 248.517 210.78 248.347 210.171C247.696 207.906 246.512 204.731 246.946 203.621C245.914 201.703 245.792 197.453 245.456 197.834C244.63 192.539 240.827 179.268 241.511 179.477C240.97 178.377 240.725 177.762 240.599 177.313C240.413 176.656 240.498 176.413 240.29 175.691C239.899 174.336 239.988 175.068 239.69 173.993C238.988 171.466 238.346 169.055 237.618 166.558C237.821 166.921 238.025 167.287 238.229 167.653C237.494 165.031 237.551 165.989 236.719 163.328C235.18 158.451 235.958 160.462 235.976 159.67C235.813 159.924 234.083 154.176 233.916 153.566C233.826 153.22 234.594 154.63 233.394 151.173C233.365 151.391 233.336 151.61 233.308 151.828C232.924 150.181 231.351 145.897 231.137 145.171C231.046 144.848 231.144 142.769 230.023 141.349C230.043 141.118 230.063 140.887 230.082 140.658C229.348 138.88 228.597 137.098 227.841 135.354C227.893 135.006 227.945 134.659 227.997 134.313C227.786 133.741 227.579 133.184 227.366 132.618C227.369 133.05 227.365 133.467 227.364 133.896C226.138 130.357 224.214 126.24 224.39 125.374C223.997 124.674 223.598 123.973 223.208 123.307C223.163 122.78 223.102 122.224 223.05 121.695C221.521 118.42 221.381 118.432 220.139 116.371C220.298 116.394 220.458 116.419 220.617 116.443C219.666 114.968 217.945 112.215 216.688 110.578C216.307 110.047 215.87 109.453 215.58 109.075C215.811 109.118 216.052 109.12 216.211 109.027C216.183 109 216.16 108.968 216.146 108.934C215.912 108.933 215.685 108.93 215.467 108.928C215.349 108.777 215.272 108.686 215.257 108.688C215.216 108.656 214.847 108.585 214.913 108.756C214.913 108.804 214.993 108.865 215.113 108.925C211.702 108.889 210.243 108.772 208.837 108.867C207.857 108.953 207.432 109.145 206.388 109.322C204.893 109.58 203.491 109.904 202.734 110.18C202.302 110.337 202.274 110.503 201.987 110.62C200.666 111.208 201.361 110.714 200.032 111.413C199.908 111.485 199.051 112.153 198.106 112.877C197.562 113.25 196.171 114.36 196.075 114.499C195.745 114.879 195.983 114.892 195.491 115.436C195.259 115.703 194.893 116.074 194.299 116.688C194.408 116.663 194.517 116.639 194.625 116.615C192.782 119.645 192.208 120.218 191.777 120.879C191.724 120.969 191.35 121.899 191.037 122.433C190.514 123.321 190.144 123.632 190.028 123.827C189.606 124.545 188.309 127.084 187.208 128.661C187.866 128.574 184.596 134.47 183.279 135.403C182.745 136.453 182.179 137.528 181.619 138.57C181.237 138.974 180.863 139.363 180.488 139.748C180.384 140.068 180.275 140.392 180.164 140.719C179.021 142.019 177.869 143.29 176.677 144.581C176.781 144.788 176.884 144.996 176.987 145.203C176.691 145.57 176.39 145.942 176.083 146.317C175.729 146.521 175.358 146.745 175.015 146.931C174.689 147.418 174.356 147.914 174.015 148.415C174.018 148.606 174.021 148.798 174.023 148.99C172.188 151.592 172.322 149.634 169.302 155.003C168.632 155.684 167.953 156.37 167.293 157.025C166.964 158.143 165.481 159.497 164.474 160.766C163.75 161.676 163.947 161.724 162.949 162.896C161.945 164.073 161.84 163.928 161.761 164.018C161.685 164.104 161.611 164.189 161.54 164.273C160.815 165.133 160.312 165.886 159.71 166.514C159.606 166.621 159.222 166.746 158.391 167.632C157.561 168.511 157.226 169.194 155.944 170.47C155.295 171.113 154.98 171.187 154.396 171.759C151.627 174.468 149.369 177.795 146.513 178.974C146.125 179.519 142.868 183.002 141.28 184.276C138.82 186.269 139.632 185.324 138.635 186.093C138.486 186.203 137.794 186.87 135.706 188.491C135.333 188.78 135.487 188.804 135.436 188.847C133.006 190.76 128.132 194.229 125.323 196.119C125.075 196.286 123.952 197.459 121.472 198.576C118.631 200.81 112.845 203.77 108.531 206.463C108.083 206.745 107.659 207.021 107.255 207.297C106.621 207.661 105.801 207.979 105.515 208.139C103.053 209.474 104.236 209.379 98.1377 211.742C98.6885 211.677 97.3878 212.487 95.3291 213.331C92.209 214.56 94.3138 213.386 91.7842 214.351C91.8154 214.438 91.8468 214.527 91.8779 214.615C85.8446 216.349 84.6072 217.023 78.417 217.908C76.188 218.198 72.9472 218.185 72.4326 218.201C72.2306 218.219 69.8814 218.527 69.6514 218.527C69.0972 218.542 68.6423 218.529 68.2129 218.512C67.7062 218.489 67.2417 218.461 66.6709 218.466C63.2781 218.493 59.2293 218.787 59.9629 218.255C59.0358 218.368 58.0865 218.48 57.1641 218.59C53.6345 218.014 51.0066 218.771 50.2607 218.213C49.6258 218.321 49.0133 218.428 48.3682 218.534C38.9499 218.41 29.3684 218.054 20 217.662V213.857C35.9282 214.416 52.2006 214.737 68.1738 214.527C73.157 214.472 78.2123 214.112 83.2148 213.057C91.0154 211.529 99.2353 207.49 106.727 203.251C111.872 200.375 116.905 197.281 121.534 194.199C122.062 193.848 123.054 193.026 124.178 192.258C124.422 192.1 127.449 190.225 128.419 189.505C127.271 189.862 131.261 187.354 132.399 186.443C133.851 185.309 136.726 182.802 140.069 180.093C143.089 177.627 142.366 178.433 142.537 178.303C143.62 177.429 143.806 176.93 144.577 176.198C146.49 174.407 153.281 168.101 158.707 161.82C162.173 157.857 165.246 154.149 166.779 152.242C167.752 151.034 167.93 151.057 168.149 150.782C168.745 150.032 169.452 148.885 170.388 147.67C172.076 145.487 174.049 143.051 174.952 141.787C177.081 138.868 180.797 133.007 183.173 128.888C183.848 127.733 183.94 127.894 184.245 127.363C185.604 125.063 188.592 118.912 190.179 116.433C190.908 115.264 191.681 114.155 192.522 113.102C194.54 110.565 197.126 108.634 200.091 107.335C200.383 107.289 200.674 107.251 200.967 107.217C201.359 106.986 201.766 106.766 202.181 106.557ZM342.652 231.232C340.134 232.647 336.197 234.664 337.142 234.553C338.736 233.663 340.336 232.735 341.887 231.81C342.141 231.619 342.396 231.426 342.652 231.232ZM353.384 222.112C353.154 221.951 351.626 222.83 349.838 224.186C349.971 224.19 350.105 224.195 350.239 224.199C351.084 223.398 352.583 222.906 355.55 220.9C355.478 220.791 355.406 220.682 355.334 220.572C354.676 221.093 354.026 221.607 353.384 222.112ZM364.368 213.846C363.854 214.196 363.342 214.542 362.836 214.886C362.733 215.103 362.621 215.327 362.514 215.547C363.398 214.959 364.231 214.403 365.105 213.817C364.859 213.827 364.613 213.837 364.368 213.846ZM120.536 196.47C124.429 193.528 116.33 198.424 115.355 199.022C115.23 199.108 115.353 199.261 114.56 199.786C113.697 200.36 110.311 202.345 107.186 204.067C105.203 205.167 103.318 206.189 102.326 206.767C102.244 206.665 102.161 206.563 102.078 206.461C101.014 207.17 99.9296 207.871 98.8281 208.554C98.5565 208.476 95.0415 210.441 95.6914 209.584C94.5613 210.279 93.4024 210.951 92.21 211.591C92.2361 211.631 92.2629 211.672 92.2891 211.712C93.5256 211.204 94.737 210.661 95.9248 210.094C95.9597 210.16 95.9944 210.227 96.0293 210.293C97.7851 209.311 104.877 205.713 104.767 206.036C105.088 205.733 105.393 205.438 105.71 205.135C106.28 204.876 106.806 204.621 107.341 204.345C110.046 202.949 112.392 201.357 115.441 199.761C115.663 199.514 115.881 199.27 116.103 199.021C116.318 198.975 116.535 198.927 116.75 198.88C118.019 198.091 119.284 197.285 120.536 196.47ZM125.991 192.158C124.181 193.485 123.155 194.319 123.331 193.876C122.867 194.23 122.398 194.585 121.927 194.938C122.606 195.09 123.18 194.818 126.522 192.013C126.346 192.061 126.168 192.11 125.991 192.158ZM136.722 184.244C134.684 186.229 133.596 186.696 133.062 187.089L131.797 188.008C130.534 188.918 129.293 189.79 128.04 190.62C128.733 190.319 129.416 190.02 130.107 189.71C132.37 188.009 134.599 186.261 136.792 184.467C136.769 184.393 136.745 184.318 136.722 184.244ZM142.614 179.882C145.553 176.87 142.916 179.257 142.727 179.037C142.068 179.727 141.392 180.424 140.723 181.105C139.259 182.08 139.793 181.462 140.144 181.084L140.348 180.858C140.292 180.793 140.336 180.73 139.622 181.266C139.233 181.896 138.837 182.528 138.432 183.162C140.865 181.231 140.309 181.528 142.614 179.882ZM152.891 169.871C151.33 171.313 149.745 172.723 148.138 174.104C147.494 174.973 147.321 175.488 149.433 173.643L149.438 173.639C149.311 173.173 151.466 171.556 152.313 170.653C152.508 170.392 152.698 170.134 152.891 169.871ZM152.797 169.763C152.903 169.731 156.764 165.957 155.823 166.478C155.349 166.769 152.6 169.861 152.797 169.763ZM176.858 141.146C177.215 138.757 169.431 151.3 170.489 148.248L170.486 148.253C170.116 148.754 169.709 149.298 169.349 149.78C169.482 150.012 169.616 150.245 169.748 150.478C168.183 151.499 167.171 153.693 164.647 156.083C164.503 156.376 164.356 156.671 164.208 156.967C163.735 157.408 161.408 160.103 159.41 162.43C157.447 164.722 155.8 166.592 156.891 165.693C157.814 164.934 159.366 162.86 159.588 162.583C159.595 162.574 159.602 162.567 159.606 162.562C160.135 161.98 160.959 161.35 161.776 160.372C162.236 159.822 163.112 158.399 164.061 157.261C166.26 154.641 170.73 150.169 172.934 146.15C173.188 145.936 173.438 145.727 173.691 145.513C175.668 142.757 174.812 143.532 176.858 141.146ZM176.607 144.105C174.926 145.82 173.833 147.81 171.52 150.679C171.581 150.72 171.643 150.763 171.705 150.805C172.515 149.484 175.025 146.394 176.607 144.105ZM180.572 135.153C185.602 128.656 185.776 125.903 178.758 137.797L178.756 137.803C178.425 137.959 178.091 138.117 177.756 138.276C178.152 138.534 176.864 140.505 179.084 138.018C179.436 137.481 179.798 136.922 180.137 136.392C180.272 135.998 180.432 135.561 180.572 135.153ZM185.207 127.863C186.013 126.49 186.361 125.297 185.997 125.781C185.33 126.674 184.133 129.682 185.207 127.863ZM223.077 116.206C221.577 114.863 223.94 117.948 224.54 120.759C224.573 119.733 226.265 123.633 226.383 123.874C226.326 123.355 226.269 122.842 226.213 122.336C225.357 120.725 224.473 119.132 223.573 117.604C223.406 117.127 223.241 116.661 223.077 116.206ZM188.215 122.682C189.815 119.451 190.977 117.76 190.169 118.271L190.166 118.275C189.298 119.79 188.45 121.396 187.57 123.043C187.786 122.921 188.001 122.8 188.215 122.682ZM210.625 106.105C209.977 106.098 208.826 105.964 208.37 106.031C208.099 106.128 207.828 106.229 207.564 106.332C207.174 106.033 202.309 107.197 200.763 108.145C200.568 108.123 200.372 108.105 200.175 108.09C199.576 108.394 198.995 108.727 198.443 109.086C198.469 108.964 198.496 108.842 198.524 108.72C198.136 109.064 197.767 109.42 197.418 109.788C195.917 111.01 196.564 109.897 195.523 110.953C194.427 112.163 196.612 110.632 196.708 110.854C197.644 109.984 200.192 108.461 201.509 108.034C202.273 107.801 201.426 108.279 204.697 107.068C205.471 107.001 206.253 106.968 207.042 106.963C208.452 106.633 209.927 106.396 211.45 106.234C211.734 106.363 212.019 106.495 212.301 106.628C212.445 106.621 216.048 106.492 215.881 106.401C216.036 106.438 216.209 106.475 216.396 106.511C215.346 106.34 217.103 107.113 218.538 109.309C218.751 109.48 218.97 109.667 219.192 109.866C217.449 107.708 218.735 109.099 218.354 108.365C218.172 107.999 217.508 107.059 217.233 106.656C217.348 106.893 216.609 106.472 216.343 106.296C214.228 106.162 211.846 106.1 210.625 106.105Z" fill="white"/>
<path fill-rule="evenodd" clip-rule="evenodd" d="M210.452 100.409C213.012 100.555 215.437 100.508 216.838 100.562C218.086 100.659 218.559 101.04 218.229 101.155C219.16 101.533 219.887 102.069 220.577 102.674C220.652 102.59 220.726 102.505 220.801 102.421C221.842 103.35 222.66 104.335 223.461 105.406C223.371 105.473 223.28 105.54 223.189 105.607C223.807 106.439 224.395 107.322 224.962 108.235C225.119 108.277 225.266 108.301 225.419 108.336C227.021 111.089 231.969 120.519 229.4 116.529C230.029 117.882 230.614 119.202 231.185 120.532C231.258 120.496 231.332 120.458 231.405 120.422C231.66 120.988 231.922 121.578 232.173 122.153C232.028 122 231.875 121.826 231.726 121.663C232.954 124.241 233.597 126.972 234.493 128.603C234.109 127.435 233.703 126.233 233.3 125.069C234.101 127.341 235.828 131.343 235.964 131.726C236.386 132.874 236.432 133.49 236.863 134.724C237.252 135.838 237.318 135.647 237.386 135.85C239.339 141.858 237.879 139.789 239.604 142.33C239.596 142.66 239.588 142.992 239.58 143.323C239.799 143.688 240.019 144.057 240.239 144.427C240.812 146.197 241.381 147.992 241.929 149.75C241.875 149.117 241.824 148.496 241.764 147.85C242.671 150.479 242.793 151.823 242.868 152.085C243.078 152.811 243.349 153.094 243.419 153.319C246.728 164.219 244.56 157.627 245.554 163.28C246.367 165.133 246.048 163.115 246.218 162.759C246.851 165.357 247.166 166.179 247.929 168.896C248.128 169.607 248.21 170.419 248.336 170.871C248.444 171.256 248.931 172.424 249.194 173.361C249.319 173.803 249.448 174.291 249.582 174.812C249.926 176.141 250.285 177.642 250.69 179.189C251.171 180.974 252.633 186.44 253.462 190.296C253.818 191.932 253.612 191.589 253.702 192.008C253.739 192.177 254.16 193.431 254.381 194.489C255.744 200.803 256.708 207.329 259.133 213.136C259.988 215.176 261.129 217.076 262.514 218.782C266.227 223.377 271.689 226.453 277.265 228.798C278.463 229.296 277.788 229.138 278.309 229.353C278.489 229.421 278.776 229.348 280.629 230.11C281.305 230.384 280.474 230.231 281.141 230.476C281.465 230.59 281.666 230.498 283.605 231.093C287.148 232.155 289.039 232.862 289.355 232.949C289.963 233.1 289.823 232.916 290.63 233.124C293.827 233.941 296.632 234.57 299.484 235.19C300.108 235.326 300.735 235.442 301.373 235.538C302.169 235.677 305.356 236.053 308.432 235.757C311.516 235.511 314.421 234.739 314.728 234.676C316.086 234.372 314.912 235.007 316.648 234.497C317.107 234.283 317.57 234.059 318.035 233.827C317.234 234.031 316.483 234.201 315.681 234.366C317.821 233.876 320.157 232.887 321.678 232.28C321.973 232.175 324.596 231.221 325.894 230.589C325.356 230.899 324.826 231.199 324.301 231.49C324.514 231.448 324.728 231.405 324.942 231.36C327.541 230.119 330.28 228.738 332.879 227.339C333.837 226.821 333.563 227.102 334.508 226.583C340.015 223.479 338.39 223.867 344.063 221.447C342.277 222.497 335.885 226.4 334.875 226.889C334.221 227.239 331.248 227.98 332.57 228.149C327.175 230.954 331.705 228.185 326.664 230.756C326.804 230.794 326.945 230.832 327.086 230.87C325.316 231.776 323.995 232.398 322.83 232.699C322.645 233.32 316.258 235.498 312.671 236.125C308.453 237.033 303.612 237.226 299.247 236.261C298.252 236.049 297.286 235.838 296.337 235.622C294.554 235.216 293.596 234.791 293.37 234.737C293.041 234.658 292.099 234.586 291.445 234.42C289.003 233.857 281.837 231.427 279.939 231.116C286.196 233.398 292.69 234.987 299.207 236.438C307.204 238.298 315.527 236.352 323.031 233.223C321.322 233.938 334.801 227.415 335.382 226.857C336.004 226.519 335.56 226.942 335.747 226.847C337.162 226.124 338.167 225.281 338.612 225.021C338.955 224.819 339.637 224.539 340.796 223.841C341.008 223.713 341.013 223.584 341.242 223.445C342.731 222.547 344.247 221.611 345.703 220.695C345.795 220.639 346.254 220.538 346.633 220.299C347.012 220.059 347.306 219.684 347.403 219.621C348.558 218.89 350.693 217.634 351.784 216.92C352.172 216.666 351.84 216.745 352.276 216.46C353.623 215.579 353.322 216.051 354.92 214.923C355.461 214.54 355.326 214.421 356.408 213.727C357.182 213.229 357.255 213.551 357.383 213.48C357.538 213.395 360.006 211.437 360.946 211.042C359.434 212.716 362.951 209.714 362.652 209.641C363.725 208.978 364.742 208.349 365.793 207.695C366.107 207.41 366.423 207.122 366.74 206.834C366.86 206.76 366.976 206.685 367.093 206.612V207.353C362.68 210.458 356.73 214.488 353.832 215.977C353.038 216.628 356.118 214.639 354.971 215.491C354.382 216.057 338.442 226.214 343.323 222.629C342.793 222.969 342.285 223.294 341.748 223.634C341.407 224.339 338.709 225.825 338.784 225.29C338.569 225.515 338.355 225.74 338.143 225.963C337.666 226.323 337.122 226.684 336.267 227.194C334.689 228.133 329.036 231.32 323.346 233.647C317.685 236.074 311.908 237.146 311.329 237.222C311.319 237.324 311.308 237.427 311.297 237.529C321.106 235.979 329.607 231.217 338.929 226.184C338.612 226.261 338.296 226.336 337.982 226.409C341.726 224.394 345.41 222.268 349.062 220.084C345.385 222.657 339.318 226.541 335.104 228.687C334.367 229.064 334.834 228.659 334.661 228.735C334.202 228.939 333.805 229.423 332.235 230.275C330.62 231.178 326.448 232.999 326.045 233.16C325.331 233.498 323.425 234.605 322.108 235.105C320.419 235.746 321.492 235.164 321.154 235.289C319.721 235.807 318.464 236.307 317.324 236.635C315.625 237.164 311.995 237.664 310.82 238.207C312.081 238.046 313.335 237.823 314.575 237.549C309.02 238.97 304.137 238.784 298.915 237.759C297.87 237.551 296.806 237.353 295.692 237.165C294.107 237.312 299.48 238.485 294.901 237.644C295.722 237.829 296.553 238.013 297.374 238.191C297.589 238.133 297.806 238.074 298.021 238.015C298.283 238.088 298.546 238.161 298.81 238.233C300 238.559 301.21 238.82 302.438 239.01C302.015 238.872 301.595 238.725 301.183 238.57C306.534 239.343 311.862 238.278 313.761 238.366C313.842 238.225 313.922 238.083 314.002 237.941C318.894 237.106 325.376 233.691 324.379 234.851C324.576 234.729 324.774 234.605 324.973 234.48C327.703 233.428 326.441 233.673 327.435 233.185C327.722 233.077 332.839 230.667 330.697 231.971C335.668 229.575 333.863 229.764 335.174 229.03C338.423 227.622 343.576 223.945 341.554 225.74C342.012 225.488 342.479 225.228 342.94 224.97C344.173 223.766 345.879 223.226 347.513 222.369C348.047 222.042 348.615 221.692 349.132 221.373C349.411 221.039 349.693 220.704 349.977 220.366C355.282 217.674 352.802 217.241 355.823 216.966C355.521 217.269 355.229 217.564 354.921 217.87C354.093 218.465 353.276 219.049 352.472 219.621C355.898 217.435 359.223 215.256 362.597 213.011C364.36 212.002 365.754 211.082 367.093 210.156V210.512C366.29 211.273 365.621 211.961 363.338 213.457C363.99 212.915 362.907 213.338 361.614 214.219C361.667 214.296 361.72 214.375 361.772 214.452C358.652 216.629 359.627 215.643 357.104 217.583C356.802 217.695 356.5 217.806 356.2 217.915C354.951 219.125 349.758 222.731 350.477 221.715C349.256 223.035 345.968 224.861 344.592 225.279C344.55 225.414 344.508 225.549 344.467 225.684C343.859 226.078 343.229 226.482 342.599 226.882C342.214 227.047 341.832 227.21 341.452 227.37C341.039 227.681 340.613 227.998 340.181 228.315C339.857 228.396 339.535 228.476 339.215 228.553C338.548 229.068 337.87 229.583 337.178 230.1C336.688 230.289 336.202 230.474 335.721 230.653C335.763 230.872 331.245 233.327 329.862 233.827C329.498 234.068 329.135 234.306 328.774 234.54C328.548 234.545 328.319 234.55 328.083 234.558C327.818 234.763 327.553 234.967 327.29 235.168C326.584 235.408 325.882 235.637 325.156 235.865C322.533 237.457 322.247 237.092 321.61 237.341C320.407 237.84 316.2 239.415 315.446 239.535C314.696 239.702 314.304 239.621 313.709 239.729C303.631 240.982 307.74 240.546 305.698 240.817C304.565 240.847 303.78 240.652 302.787 240.583C302.108 240.537 300.314 240.382 298.419 239.998C295.835 239.494 292.96 238.872 292.701 238.794C292.067 238.608 293.744 238.284 291.618 237.948C291.455 238.318 287.094 236.765 289.041 237.837C287.219 237.306 285.387 236.739 283.571 236.128C283.643 236.625 281.47 235.668 279.011 234.804C275.499 233.764 267.731 230.088 268.285 229.714C267.449 229.34 266.607 228.933 265.776 228.493C261.087 225.152 256.815 220.668 254.468 215.117C254.238 214.582 254.02 214.044 253.814 213.502C251.456 207.171 250.501 200.814 249.168 194.607C247.891 188.397 246.445 182.222 244.781 176.148C243.48 171.383 242.159 166.684 240.828 162.118C240.601 161.339 240.781 161.406 240.617 160.848C239.754 157.867 237.291 150.266 235.963 146.153C235.539 144.826 235.47 144.15 235.339 143.736C234.892 142.323 234.812 142.708 234.599 142.058C234.277 141.046 232.564 135.569 231.903 133.744C231.571 132.808 231.042 131.828 230.677 130.725C230.647 130.633 230.86 130.744 230.834 130.666C230.115 128.721 230.428 129.936 230.187 129.283C228.444 124.623 226.411 119.673 224.053 114.948C223.46 113.755 222.628 111.994 222.049 111.014C221.835 110.655 222.127 111.356 221.378 110.125C221.115 109.702 221.158 109.474 220.87 109.026C219.556 107.062 218.69 106.798 217.756 105.424C217.263 105.002 216.606 104.721 216.526 104.765C212.52 104.465 207.732 104.708 205.074 105.263C204.262 105.417 203.847 105.413 203.09 105.608C202.55 105.748 201.662 106.163 200.872 106.461C200.081 106.757 198.784 107.136 197.398 107.969C195.927 108.819 194.396 110.274 194.132 110.544C193.798 110.86 193.525 110.885 193.202 111.227C192.902 111.546 192.463 112.059 191.999 112.69C190.931 114.114 189.759 116.099 189.079 117.285C188.01 119.137 187.308 120.278 186.944 120.938C186.606 121.56 186.346 122.344 186.187 122.639C185.946 123.082 185.742 123.096 185.429 123.669C184.929 124.581 184.489 125.604 183.705 126.979C176.522 139.631 167.559 150.864 158.341 161.503C149.108 172.064 138.611 181.232 127.458 189.307C124.938 191.112 123.584 192.237 119.75 194.727C118.187 195.73 118.748 195.149 117.555 195.963C117.022 196.324 117.233 196.356 116.554 196.797C113.543 198.759 109.874 200.776 108.521 201.553C108.016 201.844 107.513 202.299 106.518 202.878C106.463 202.91 106.406 202.941 106.349 202.974C98.3322 207.612 87.4712 212.779 76.8955 213.634C74.3994 213.913 71.3469 214.108 68.1709 214.157C64.4287 214.22 60.5036 214.261 57.1592 214.259C44.9467 214.289 31.9722 213.89 20 213.44V211.518C22.8515 211.628 25.5663 211.746 27.3545 211.807C28.9306 211.867 28.6736 212.022 29.1963 212.039C29.5288 212.048 29.4173 211.836 33.5664 211.997C35.6767 212.076 36.1971 212.245 37.2646 212.266C37.8294 212.276 37.7399 212.119 38.5605 212.138C43.3157 212.243 47.1787 212.351 51.8311 212.418C53.1277 212.436 53.1492 212.565 53.4414 212.565C54.5258 212.566 56.3926 212.358 59.1299 212.358C61.4032 212.36 64.8403 212.348 68.1523 212.329C71.4166 212.319 74.5617 212.135 76.4082 211.989C76.965 211.948 77.4287 212.049 77.8369 211.996C78.4513 211.915 78.6658 211.721 78.7725 211.705C80.8131 211.4 79.6107 211.735 80.9688 211.471C81.7005 211.317 82.4341 211.006 84.1133 210.592C86.3243 210.018 85.944 210.319 86.8594 210.041C86.955 210.008 86.9452 209.859 87.8389 209.576C91.2489 208.535 95.9468 206.416 98.8877 204.895C99.7377 204.462 100.421 204.226 101.588 203.605C102.257 203.25 103.793 202.413 105.662 201.355C110.453 198.697 117.245 194.338 118.005 193.861C118.117 193.795 117.115 194.725 118.909 193.535C119.381 193.111 119.844 192.687 120.31 192.26C121.265 191.796 122.203 191.335 123.153 190.855C122.842 190.467 127.777 186.821 128.031 187.265C128.588 186.879 129.141 186.491 129.688 186.104C130.588 184.96 131.414 184.508 133.401 182.656C133.802 182.481 134.201 182.304 134.599 182.128C134.634 182.004 134.67 181.878 134.706 181.753C136.092 181.158 137.652 179.323 137.866 179.136C138.714 178.408 139.399 177.953 139.797 177.604C141.263 176.335 144.292 173.414 145.973 171.896C146.052 171.825 146.098 172.022 146.576 171.596C147.45 170.812 147.345 170.563 148.67 169.681C148.841 169.407 149.011 169.134 149.178 168.862C149.443 168.653 149.706 168.443 149.968 168.234C151.338 166.825 152.684 165.394 154.001 163.938C153.003 165.441 154.534 164.055 155.664 162.446C156.044 161.904 155.523 162.219 155.648 162.038C155.7 161.964 156.295 161.3 157.078 160.41C158.913 158.335 161.741 155.069 162.064 154.798C162.291 154.437 162.515 154.077 162.735 153.722C162.956 153.631 163.176 153.541 163.395 153.452C163.508 153.252 163.621 153.052 163.732 152.854C165.361 151.203 168.674 146.246 169.324 145.424C169.689 144.973 169.781 145.664 171.381 143.439C171.333 143.283 171.285 143.126 171.237 142.97C171.603 142.444 171.959 141.926 172.306 141.418C173.036 140.437 174.189 139.2 174.363 139.223C174.503 138.861 174.64 138.502 174.771 138.148C175.61 137.51 178.481 133.026 179.422 131.098C179.837 130.604 180.242 130.12 180.641 129.639C180.991 128.842 181.313 128.081 181.645 127.289C182.586 125.597 181.722 127.462 181.942 127.112C182.432 126.361 184.31 122.338 184.515 122.763C184.806 122.234 185.101 121.697 185.389 121.173C185.435 120.855 185.492 120.516 185.541 120.194C186.388 119.488 187.073 117.795 189.087 114.877C189.173 114.58 189.262 114.284 189.354 113.988C189.938 113.308 190.536 112.659 191.16 112.031C191.302 111.89 191.444 111.75 191.587 111.615C191.61 111.357 191.636 111.1 191.672 110.837C191.963 110.475 192.261 110.127 192.574 109.784C193.452 109.35 194.498 108.01 195.29 107.633C196.44 107.114 195.7 107.76 194.014 109.248C194.16 109.11 199.749 105.494 201.396 105.248C201.283 105.236 201.168 105.224 201.055 105.214C199.543 105.77 198.105 106.474 196.777 107.328C195.298 107.502 199.141 105.361 201.115 104.763C201.29 104.706 202.22 104.107 204.281 103.705C205.077 103.51 208.266 103.461 208.873 103.476C213.783 103.467 210.166 103.005 215.007 103.569C214.396 103.342 215.212 103.397 216.617 103.534C217.012 103.569 217.714 103.892 218.456 104.473C218.814 104.547 221.605 107.496 221.711 107.775C222.733 109.221 221.441 107.743 222.87 109.864C223.089 110.079 223.309 110.302 223.531 110.532C223.846 111.068 224.123 111.561 224.416 112.095C225.552 115.608 226.32 116.214 226.929 117.333C227.175 117.802 226.73 117.248 227.343 118.494C227.569 118.96 227.926 119.391 228.504 120.689C230.251 124.676 230.208 126.27 232.244 129.784C232.377 130.397 232.511 131.017 232.634 131.615C232.882 131.962 233.131 132.313 233.38 132.668C234.168 135.777 234.079 134.572 234.467 135.663C235.487 138.517 237.406 144.443 237.315 145.047C238.722 147.351 239.015 150.557 239.346 151.533C239.601 152.095 239.862 152.678 240.113 153.233C240.255 153.939 240.397 154.651 240.539 155.367C241.015 154.861 241.54 158.602 241.634 158.957C241.757 159.378 243.562 164.821 244.152 166.895C244.746 168.948 245.61 172.597 245.695 172.906C245.751 173.105 246.116 174.217 246.562 175.652C246.934 176.852 247.346 178.244 247.673 179.49C248.411 181.872 251.376 196.296 251.396 195.35C251.274 194.394 251.053 193.025 250.837 191.862C250.473 189.863 248.917 182.519 247.006 175.529C245.469 169.83 243.901 164.324 243.207 161.927C240.122 151.249 236.593 140.187 232.708 129.743C232.478 129.126 232.587 128.978 232.391 128.456C232.095 127.668 231.152 125.697 230.838 124.919C229.684 122.001 228.171 118.511 227.445 116.977C225.857 113.593 224.745 111.297 223.263 108.89C222.835 108.216 220.194 104.299 217.872 103.071C217.476 102.824 217.084 102.654 216.688 102.582C216.67 102.579 216.652 102.577 216.635 102.574C216.652 102.575 216.671 102.575 216.688 102.576C218.006 102.317 221.082 105.206 222.094 106.757C223.748 109.039 224.358 110.488 224.867 111.37C225.338 112.147 227.511 116.109 228.354 118.018C228.62 118.602 228.521 118.779 228.745 119.281C229.969 122.006 231.449 125.647 232.535 128.027C232.116 127.05 234.351 133.255 234.461 133.612C234.661 134.164 235.022 134.712 235.434 135.871C236.205 138.061 235.817 137.912 237.059 140.553C237.202 141.264 237.348 141.99 237.489 142.707C237.92 142.592 240.197 151.469 241.44 153.804C241.548 153.858 238.072 142.469 237.734 141.557C235.92 135.96 232.843 127.794 230.698 122.529C230.077 120.909 228.084 115.879 227.882 115.533C227.585 114.934 227.713 115.541 227.583 115.285C224.873 110.134 226.433 112.625 226.158 111.881C225.955 111.362 224.798 109.672 224.674 109.479C224.469 109.137 224.595 109.186 224.612 109.17C223.2 106.929 224.272 109.113 223.179 107.535C223.006 107.225 220.426 103.387 218.703 102.523C218.119 102.166 217.406 101.877 216.743 101.834C214.686 101.679 212.876 101.63 212.073 101.632C210.26 101.618 206.9 101.941 204.013 102.558C202.825 102.812 202.37 102.762 201.192 103.118C197.741 104.126 192.978 106.734 189.812 110.971C186.032 115.929 183.461 121.784 181.44 125.03C180.551 126.547 179.545 127.837 179.071 128.651C178.768 129.298 178.442 129.974 178.126 130.622C176.354 132.17 176.483 133.081 175.181 135.144C174.381 136.402 173.774 136.919 173.671 137.069C172.911 138.171 172.58 138.801 171.982 139.663C171.281 140.674 170.212 141.972 169.954 142.345C169.795 142.565 170.55 142.052 167.716 145.755C164.817 149.509 161.821 153.137 158.688 156.811C160.375 156.066 160.802 154.702 162.06 153.131C162.388 152.72 162.275 153.057 162.561 152.701C163.365 151.701 164.828 149.688 165.533 148.844C166.284 147.947 166.27 148.446 167.084 147.228C167.126 147.164 166.883 147.278 167.084 146.986C169.047 144.116 169.937 143.317 172.519 139.75C174.452 137.526 183.589 122.276 183.763 121.688C185.784 119.162 176.392 135.4 174.863 137.035C174.411 137.67 174.756 136.933 174.344 137.484C174.178 137.708 172.857 140.06 171.315 142.184C169.469 144.773 165.375 149.728 163.459 152.061C161.262 154.767 159.021 157.431 156.715 160.096C142.178 176.693 124.597 190.115 105.427 200.938C104.989 201.183 104.559 201.423 104.128 201.662C103.636 201.933 103.077 202.425 101.48 203.282C96.4597 205.97 91.1718 208.457 85.5049 209.947C79.8457 211.463 73.9675 211.957 68.1494 212.004C52.1428 212.171 35.9928 211.774 20 211.187V209.685C36.3133 210.267 52.2707 210.535 68.1328 210.333C76.452 210.289 84.7231 209.094 92.3311 205.832C93.9654 205.277 101.651 201.707 102.983 200.373C104.013 199.417 98.8181 202.564 97.9023 202.987C97.2279 203.325 97.1187 203.195 96.6699 203.416C96.1927 203.649 96.6355 203.558 96.0762 203.831C93.7126 204.987 91.0548 206.066 88.8252 206.848C82.1889 209.241 75.1508 210.03 68.1309 210.094C52.0628 210.276 36.1517 209.985 20 209.307V208.65C20.7311 208.592 21.4557 208.533 22.1953 208.474C22.7001 208.624 23.2227 208.775 23.7432 208.926C23.8468 208.817 23.9513 208.708 24.0557 208.6C29.0232 208.869 34.3367 208.894 39.0928 209.01C42.4014 209.089 43.2101 209.146 46.1396 209.182C52.6853 209.243 46.1753 209.393 51.6133 209.688C51.3321 209.548 51.0454 209.408 50.7637 209.268C51.679 209.225 52.5545 209.182 53.4629 209.137C54.0971 209.253 54.7116 209.369 55.3369 209.483C58.1194 208.913 59.9214 209.377 60.2939 209.378C60.5958 209.376 61.6498 209.028 64.9395 209.306C63.5758 208.836 67.4331 209.285 67.7559 209.283C67.8018 209.283 67.9315 209.279 68.123 209.273C69.1621 209.251 71.9952 209.087 73.2617 208.997C74.4424 208.932 76.9437 208.81 78.6748 208.543C80.1907 208.31 80.0159 208.16 80.124 208.143C81.9775 207.793 80.8381 208.135 82.1787 207.87C83.5151 207.594 84.5035 207.185 84.7891 207.122C84.9326 207.09 84.4951 207.365 85.1533 207.202C86.9308 206.78 90.0071 205.575 91.9385 204.747C92.6224 204.463 93.5368 204.201 94.2969 203.855C95.4605 203.324 95.9273 202.903 96.5918 202.581C96.8271 202.467 98.4266 201.969 100.235 200.953C100.588 200.755 101.327 199.726 103.063 199.666C103.114 199.511 103.162 199.357 103.211 199.202C103.527 199.009 103.836 198.822 104.138 198.644C109.361 195.51 111.351 195.129 113.432 192.934C117.728 190.286 114.985 192.416 115.476 192.16C115.795 191.991 117.121 191.018 117.278 190.918C117.551 190.749 117.562 190.862 117.854 190.667C123.174 187.04 120.702 188.47 122.301 187.215C126.081 184.158 129.494 182.428 122.555 187.229C122.587 187.274 122.62 187.32 122.652 187.365C124.327 186.138 128.57 182.988 127.329 184.271C126.403 185.359 116.001 192.395 122.024 188.6C123.383 187.731 123.95 187.081 126.438 185.741C127.942 184.65 127.851 184.087 129.955 182.725C129.521 182.835 129.088 182.943 128.653 183.052C131.221 180.806 134.674 178.397 136.602 176.618C137.263 176.021 139.105 173.282 139.106 174.406C140.217 173.407 145.478 168.727 146.333 167.729C146.539 167.486 146.547 166.916 149.811 163.762C150.07 163.572 150.328 163.383 150.583 163.195C147.841 166.321 153.01 161.103 151.955 162.844C151.35 163.225 148.991 165.516 148.535 165.828C147.782 166.351 149.526 164.289 147.145 166.769C146.12 168.813 150.263 164.172 150.077 165.313C152.992 161.812 153.467 161.662 154.18 160.902C154.718 160.315 155.23 159.741 155.692 159.211C157.821 156.767 159.343 154.916 161.571 152.313C162.125 151.444 157.125 157.119 156.574 157.819C157.757 155.942 156.605 157.111 155.2 158.785C154.461 159.667 153.642 160.684 153.13 161.401C152.881 161.453 152.63 161.506 152.38 161.558C153.293 160.61 154.199 159.632 155.056 158.66C156.328 157.214 157.488 155.831 158.66 154.323C158.836 154.201 159.012 154.079 159.187 153.957C158.797 154.554 158.398 155.159 157.989 155.771C159.836 153.793 158.43 154.802 161.021 152.275C160.96 152.084 160.9 151.891 160.839 151.7C163.043 149.107 165.195 146.495 167.295 143.83C168.126 142.231 172.043 137.015 171.69 138.242C173.247 136.087 171.179 138.626 172.506 136.544C173.082 135.64 174.242 133.899 174.63 133.521C174.858 133.944 173.124 136.598 172.818 137.519C173.369 137.179 180.906 124.63 180.558 125.926C181.202 124.921 180.712 125.284 181.691 123.407C183.672 119.671 186.444 114.452 189.382 110.634C190.552 109.082 191.758 107.797 192.733 106.77C190.973 108.054 189.878 109.264 189.03 110.357C187.655 112.167 186.852 113.651 185.499 115.981C184.187 118.45 175.958 132.913 177.403 129.45C177.125 130.007 176.86 130.533 176.57 131.094C176.125 131.55 175.693 131.98 175.237 132.438C176.17 130.974 177.087 129.48 177.961 127.997C178.292 127.702 178.618 127.412 178.939 127.127C178.954 126.919 178.973 126.705 178.991 126.489C179.351 125.842 179.696 125.207 180.045 124.559C180.041 124.791 180.036 125.027 180.029 125.264C180.611 124.291 181.173 123.328 181.746 122.332C181.469 122.524 181.187 122.723 180.906 122.918C183.454 118.229 182.647 119.849 184.34 117.378C185.472 115.451 183.313 118.586 185.657 114.443C187.782 110.96 187.557 111.827 188.862 110.225C189.376 109.637 190.106 108.723 191.54 107.356C191.567 107.23 191.597 107.103 191.626 106.977C192.892 105.945 194.268 105.049 195.708 104.311C195.477 104.336 195.241 104.366 195.01 104.398C197.875 102.573 202.351 101.167 203.501 101.352C200.176 101.944 200.442 102.678 201.289 102.508C202.143 102.244 209.299 100.689 216.772 101.435C220.74 102.204 222.646 105.901 224.371 108.351C226.024 110.973 227.123 113.178 227.678 114.274C230.514 120.036 232.093 124.589 234.468 129.963C233.425 126.097 227.72 113.366 226.393 111.034C226.276 110.792 226.845 110.578 225.414 109.42C224.548 107.88 223.518 106.245 222.227 104.687C220.913 103.205 219.404 101.38 216.8 101.065C214.549 100.92 212.213 100.847 209.838 100.935C210.039 100.758 210.246 100.583 210.452 100.409ZM298.867 237.143C298.848 237.172 298.906 237.215 299.024 237.267C299.973 237.798 305.043 238.223 305.082 238.028C305.086 237.974 303.023 237.863 302.733 237.789L302.728 237.788C302.611 237.763 303.235 237.715 302.278 237.58C301.196 237.501 300.119 237.365 299.045 237.174C298.986 237.163 298.926 237.153 298.867 237.143ZM309.475 237.586C309.285 237.616 305.904 237.808 305.738 237.784C303.69 238.133 310.771 237.809 309.475 237.586ZM292.733 236.083C293.776 236.206 294.806 236.317 295.842 236.424C294.632 236.142 293.423 235.852 292.218 235.551C292.388 235.728 292.561 235.906 292.733 236.083ZM330.323 229.831C327.837 230.91 327.074 232.083 329.921 230.32C330.005 230.266 330.427 229.788 330.323 229.831ZM264.229 224.656C265.046 225.344 265.898 225.993 266.764 226.598C266.753 226.5 265.772 225.796 265.454 225.478L265.459 225.481C265.105 225.129 265.328 225.185 264.656 224.58C264.515 224.606 264.372 224.632 264.229 224.656ZM260.776 218.318C260.325 218.447 266.032 224.228 266.865 224.316C262.896 220.717 264.249 222.604 260.776 218.318ZM58.748 211.317C59.3996 211.466 60.7184 211.321 61.2139 211.344C61.3313 211.349 60.4185 211.476 61.5264 211.511C61.8393 211.425 62.1579 211.34 62.4688 211.254C61.2151 211.278 60.0017 211.299 58.748 211.317ZM112.21 196.373C112.89 195.676 107.671 198.922 105.1 200.354C104.619 200.628 104.241 200.84 104.017 200.963C103.357 201.323 102.521 201.645 102.115 201.862C101.679 202.096 101.158 202.564 100.085 203.123C99.7757 203.296 96.1844 204.914 94.6426 205.619C94.8546 205.595 95.0625 205.573 95.2725 205.548C97.165 204.683 99.0282 203.746 100.864 202.779C100.697 202.91 100.533 203.04 100.363 203.171C102.835 201.96 103.92 201.151 105.148 200.441L105.68 200.144C105.839 200.058 106.098 200.069 106.681 199.741C108.027 198.998 111.83 196.781 112.21 196.373ZM118.446 191.198C117.458 191.16 109.384 196.788 104.547 199.371C104.181 199.572 103.839 199.756 103.526 199.92C103.326 200.152 103.806 199.953 104.632 199.523C106.424 198.604 109.721 196.586 110.753 195.979C111.513 195.546 115.679 193.377 118.524 191.228C118.499 191.218 118.472 191.208 118.446 191.198ZM122.04 189.783C121.213 190.414 120.395 191.03 119.559 191.648C120.272 191.225 120.983 190.798 121.686 190.37C121.806 190.174 121.926 189.977 122.045 189.78L122.04 189.783ZM136.772 178.377C134.271 180.929 126.754 186.074 124.588 187.986C124.451 188.111 125.932 187.233 123.832 189.075C125.514 187.813 126.67 186.883 126.665 186.614C127.206 186.309 127.758 185.991 128.3 185.679C129.086 185.018 129.887 184.338 130.662 183.666C130.705 183.909 130.773 183.847 131.927 182.751C132.524 182.352 133.136 181.937 133.731 181.529C133.911 181.266 134.09 181 134.271 180.733C134.843 180.437 135.406 180.145 135.974 179.844C137.766 178.167 136.457 178.928 136.772 178.377ZM139.879 174.571C142.688 171.533 135.843 177.89 135.469 178.129C135.117 178.445 130.482 181.873 130.277 182.154C129.676 183.101 132.569 180.647 133.636 179.949C135.367 178.822 133.165 180.908 136.925 177.585C136.816 177.775 136.707 177.966 136.6 178.154C138.86 176.272 137.777 176.502 138.137 176.107C138.253 175.984 139.647 174.823 139.879 174.571ZM156.227 159.673C155.45 160.569 154.64 161.483 153.822 162.386C152.023 164.356 150.238 165.879 146.929 169.656C146.013 170.484 146.169 170.016 146.054 170.11C145.715 170.601 133.411 181.543 139.351 176.967C140.808 175.685 142.264 174.365 143.685 173.036C142.014 173.6 146.33 170.468 146.651 170.152C148.206 168.756 149.96 166.74 151.01 165.657C151.923 164.719 152.546 164.244 153.165 163.572C154.159 162.494 155.398 161.111 156.438 159.856C157.655 158.393 158.572 157.194 158.688 156.811C157.891 157.746 157.08 158.688 156.227 159.673ZM144.729 170.521C143.35 171.128 143.506 171.738 139.575 174.961C139.323 175.296 139.07 175.629 138.813 175.964C140.323 174.633 141.813 173.279 143.278 171.901L144.729 170.521ZM246.426 173.021C246.549 172.771 246.673 172.519 246.797 172.269C246.597 171.721 246.398 171.173 246.194 170.616C246.276 171.43 246.349 172.219 246.426 173.021ZM171.191 139.419C167.959 144.007 164.921 147.53 161.846 151.751C162.512 151.835 172.24 138.376 171.191 139.419ZM180.73 130.038C179.519 132.012 178.011 134.129 177.454 135.401C178.341 134.132 179.248 132.791 180.098 131.494C180.316 131.002 180.528 130.514 180.73 130.038Z" fill="white"/>
<path fill-rule="evenodd" clip-rule="evenodd" d="M211.079 95.002C213.186 94.9821 215.249 95.0817 217.232 95.2354C222.559 95.9709 224.244 98.5061 225.932 100.143C227.518 101.927 228.66 103.64 229.722 105.356C231.772 108.714 233.419 112.112 234.924 115.451C237.915 122.148 240.402 128.895 242.727 135.629C242.799 135.609 242.872 135.588 242.944 135.568C244.219 140.171 245.199 141.56 245.63 144.279C246.235 145.828 246.84 147.406 247.431 148.961C249.936 157.111 252.279 165.246 254.543 173.43C256.36 179.975 257.925 186.601 259.292 193.173C260.694 199.719 261.768 206.153 263.906 211.107C268.501 222.398 285.34 226.786 300.591 230.191C303.826 230.906 307.086 230.932 310.516 230.351C311.971 230.082 312.358 230.202 314.808 229.521C317.493 228.764 321.309 227.082 324.87 225.359C328.007 223.879 332.744 221.459 336.213 219.421C336.985 218.971 337.504 218.541 337.594 218.487C338.116 218.178 338.231 218.295 338.738 217.992C339.329 217.639 339.988 217.097 340.692 216.67C343.286 215.099 346.066 213.254 346.401 213.04C347.998 212.025 348.397 211.948 348.535 211.861C350.29 210.735 349.564 211.04 350.005 210.76C352.259 209.324 354.038 208.564 356.941 206.188C356.935 206.351 356.921 206.52 356.91 206.686C359.276 205.17 357.546 205.922 357.984 205.548C358.171 205.399 363.218 201.993 363.632 201.709C364.995 200.795 365.12 200.918 365.24 200.839C365.37 200.753 366.131 200.178 367.093 199.474V201.421C364.035 203.546 359.305 206.799 358.969 206.985C359.42 206.566 359.875 206.142 360.334 205.716C359.649 206.173 358.97 206.623 358.299 207.067C359.203 206.363 360.123 205.645 361.056 204.916C359.168 205.283 355.338 208.814 355.37 209.251C355.388 209.454 358.273 208.06 355.977 209.928C356.371 209.717 356.769 209.505 357.169 209.29C357.902 208.705 358.631 208.12 359.343 207.546C358.806 207.854 358.295 208.143 357.74 208.462C357.899 208.29 358.068 208.111 358.219 207.944C359.564 206.929 361.008 205.839 362.352 204.813C363.102 204.346 363.041 204.579 363.562 204.258C365.633 202.976 366.601 202.348 367.093 201.998V202.839C365.107 204.266 363.286 205.597 363.031 205.77C362.611 206.07 354.859 211.162 354.475 211.371C354.273 211.488 354.359 210.763 352.998 212.382C352.476 212.741 351.972 213.087 351.431 213.457C351.456 213.307 351.483 213.156 351.509 213.005C348.573 215.436 349.551 214.519 346.518 216.51C339.295 221.24 328.258 227.8 319.777 230.971C317.879 231.68 317.203 232.065 314.938 232.713C312.814 233.432 307.301 233.676 308.539 234.066C303.856 233.893 303.068 234.408 300.831 233.561C300.541 233.583 300.249 233.601 299.955 233.613C299.917 233.6 299.879 233.586 299.842 233.573C297.265 232.692 296.337 232.765 293.411 232.086C292.14 231.783 293.678 231.827 291.027 231.534C290.543 231.378 290.062 231.22 289.586 231.061C289.72 231.012 289.854 230.962 289.988 230.913C287.153 230.206 286.994 230.088 287.224 230.482C285.891 230.034 284.562 229.562 283.259 229.066C283.064 229.108 282.865 229.148 282.667 229.188C282.934 229.434 290.986 231.983 299.795 233.784C307.538 235.63 315.82 232.789 317.786 232.075C322.705 230.837 331.974 225.743 335.656 223.601C337.137 222.771 337.906 222.592 340.064 221.324C342.203 220.068 344.748 218.224 345.889 217.487C349.627 215.188 367.142 203.36 355.413 211.625C355.823 211.485 356.215 211.358 356.619 211.222C361.168 207.692 359.54 209.075 363.487 206.424C364.381 205.823 365.885 204.702 367.093 203.885V204.307C364.645 206.006 362.101 207.633 359.987 209.075C359.744 209.244 356.696 211.586 355.028 212.619C353.508 213.56 354.294 212.465 351.358 215.049C348.712 216.147 347.537 217.468 346.953 217.902C345.913 218.67 345.626 218.542 344.519 219.202C343.33 219.908 342.556 220.589 342.398 220.688C340.772 221.766 332.085 226.792 331.576 226.864C331.908 226.634 332.242 226.401 332.579 226.165C330.24 227.343 330.872 227.296 330.265 227.653C329.806 227.891 329.352 228.122 328.903 228.348C329.056 228.209 329.209 228.068 329.362 227.928C326.651 229.293 328.822 228.48 324.897 230.308C322.39 231.454 319.696 232.226 319.447 232.327C319.378 232.357 320.236 232.199 319.191 232.598C317.497 233.267 314.441 234.108 314.072 233.976C313.214 234.21 313.332 234.373 313.218 234.404C312.736 234.787 304.054 235.679 302.526 235.16C301.565 235.056 300.588 234.896 299.598 234.678C295.968 233.879 292.159 232.957 288.475 231.953C287.987 231.82 288.329 231.789 287.842 231.655C287.048 231.456 283.014 230.404 282.433 230.197C280.942 229.758 277.192 228.2 276.608 227.974C276.529 227.949 277.675 228.626 276.229 228.052C274.634 227.396 275.575 227.574 275.488 227.534C272.348 225.988 270.404 224.991 268.461 223.67C267.831 223.241 266.824 222.26 266.004 221.599C265.909 221.524 265.989 221.798 265.894 221.725C264.622 220.725 263.821 219.419 263.399 218.891C262.372 217.577 262.787 218.405 262.729 218.342C262.025 217.47 261.218 216.2 260.421 214.71C260.108 214.126 259.828 213.544 259.571 212.949C256.902 206.605 256.046 200.359 254.362 192.602C254.138 191.532 254.006 190.228 253.97 190.064C253.856 189.555 253.721 189.741 253.396 188.273C252.711 185.196 252.008 182.33 251.226 179.308C251.068 178.699 251.152 178.383 251.035 177.928C250.867 177.276 250.447 175.994 250.034 174.686C249.464 172.879 248.945 171.095 249.227 170.96C247.903 168.009 247.705 165.868 246.981 163.413C245.274 157.58 242.377 148.506 240.505 142.728C240.12 141.528 240.05 140.897 239.829 140.222C239.461 139.032 236.948 132.14 236.821 131.787C236.594 131.059 237.337 131.29 235.473 127.842C234.637 125.77 234.941 125.893 234.786 125.459C233.543 122.011 231.609 118.956 232.337 119.373C230.506 115.49 229.014 113.148 228.593 111.334C228.399 111.469 227.359 109.716 226.125 107.551C227.738 109.537 227.926 109.113 230.557 114.633C230.596 114.717 230.371 114.629 230.409 114.713C230.761 115.471 231.603 117.092 232.181 118.435C232.769 119.802 232.331 119.085 232.564 119.619C232.776 120.106 232.915 120.026 233.222 120.745C234.205 123.061 235.054 125.096 235.582 126.449C235.905 127.275 236.131 128.259 236.38 128.921C237.337 131.424 239.356 136.759 240.425 139.995C240.649 140.669 240.411 140.449 240.89 141.922C240.945 142.094 241.307 142.66 241.768 143.951C242.23 145.252 242.469 146.252 242.756 147.09C242.992 147.78 243.044 147.467 243.501 148.872C243.931 150.069 247.914 163.595 248.077 164.354C248.353 165.42 248.306 165.99 248.517 166.631C248.554 166.742 248.799 166.879 248.925 167.267C249.521 169.101 250.254 171.585 251.042 174.404C253.055 181.464 254.958 190.599 256.043 195.999C257.286 201.92 258.325 207.628 260.455 212.573C263.813 220.624 272.041 225.513 281.201 228.758C281.479 228.822 281.75 228.881 282.025 228.941C280.527 228.415 279.057 227.855 277.611 227.24C277.638 227.152 277.665 227.062 277.692 226.974C275.769 226.125 275.947 226.416 275.94 226.565C275.251 226.186 274.584 225.8 273.922 225.396C273.148 225.42 268.806 222.665 266.96 220.935C265.694 219.868 264.29 218.515 263.765 217.833C262.657 216.398 262.897 216.295 262.81 216.184C262.673 216.002 261.299 214.169 260.616 212.505C260.58 212.42 260.544 212.335 260.51 212.252C259.488 209.616 259.664 209.268 258.391 205.479C257.298 200.447 256.17 194.565 254.866 188.902C255.387 189.931 253.982 184.873 253.413 182.603C252.766 179.945 252.051 177.172 251.273 174.34C248.003 162.402 244.156 149.217 240.423 138.091C239.819 136.291 239.524 134.953 239.159 133.945C238.966 133.412 238.698 133.244 238.459 132.505C238.416 132.372 238.563 132.233 238.079 130.834C236.932 127.378 233.241 119.052 232.549 116.806C231.041 113.509 229.391 110.161 227.405 106.945C226.382 105.305 225.288 103.696 223.866 102.106C222.387 100.62 220.824 98.6044 217.019 98.1172C211.655 97.7426 205.914 97.7931 200.278 99.5088C199.921 99.5383 199.565 99.5732 199.206 99.6162C197.193 100.411 190.041 103.971 186.771 108.581C186.09 109.435 185.51 110.239 185.042 110.934C180.403 118.251 176.399 126.888 172.427 132.521C171.607 133.753 170.827 134.698 170.032 135.835C169.679 136.34 169.368 137.023 169.003 137.532C164.923 143.286 158.74 150.709 154.081 156.102C153.802 156.427 153.519 156.754 153.234 157.083C143 168.794 131.59 178.532 118.481 187.549C113.537 190.929 108.447 194.092 103.231 197.03C97.6236 200.181 92.0701 203.132 86.2881 204.933C80.5164 206.764 74.4043 207.389 68.1055 207.455C52.0171 207.669 36.0768 207.333 20 206.755V203.243C31.8251 203.643 43.0777 203.937 53.5537 203.986C58.3856 204.021 63.2095 204.021 68.0713 203.983C74.191 203.942 79.9171 203.368 85.2949 201.69C90.6836 200.044 96.064 197.239 101.613 194.15C107.511 190.864 113.23 187.292 118.716 183.472C119.709 182.779 120.398 182.473 120.844 182.154C125.105 179.16 131.848 173.614 135.689 170.191C140.037 166.399 145.86 160.82 150.874 155.039C155.458 149.781 159.664 144.633 162.543 140.972C165.172 137.655 167.707 134.111 168.918 132.98C169.81 131.714 169.993 130.838 170.201 130.492C170.204 130.489 170.207 130.485 170.21 130.481C170.882 129.384 172.803 126.782 173.169 126.141C173.219 126.05 172.681 126.484 173.638 125.043C173.722 124.913 173.795 125.118 174.539 123.863C174.747 123.547 176.949 119.148 177.628 117.843C178.885 115.581 181.064 111.169 184.526 106.817C187.541 102.948 191.762 100.042 194.779 98.6328C195.797 98.1454 196.354 97.8028 197.457 97.3838C198.025 97.1677 198.916 96.9839 199.092 96.9307C199.853 96.6362 203.139 95.4108 202.125 96.5889C205.585 95.8395 204.519 95.7957 204.566 95.5645C208.376 94.9953 210.129 95.4976 211.079 95.002ZM303.098 232.809C299.41 232.464 304.223 233.249 302.519 233.252C303.233 233.322 303.951 233.363 304.667 233.375C304.136 233.202 303.608 233.012 303.098 232.809ZM304.168 232.898C306.287 232.635 308.427 233.036 309.498 232.774C309.726 232.718 309.232 232.585 308.797 232.587C308.491 232.679 304.023 232.613 303.662 232.524C303.828 232.651 303.997 232.776 304.168 232.898ZM306.616 232.054C305.555 231.926 303.744 231.829 303.695 232.074C304.712 232.235 305.743 232.335 306.789 232.374C306.573 232.314 306.798 232.079 306.616 232.054ZM296.169 230.96C295.443 231.031 293.744 230.924 295.291 231.542L295.297 231.543C295.583 231.657 296.798 231.968 297.158 232.113C299.911 232.419 298.942 231.876 296.169 230.96ZM322.118 227.903C319.991 228.811 317.825 229.625 315.688 230.267C316.798 230.467 318.293 229.446 320.225 229.131C320.913 228.862 321.548 228.602 322.226 228.314L322.23 228.312C322.193 228.176 322.155 228.039 322.118 227.903ZM284.21 228.018C282.419 227.195 281.618 227.388 281.89 227.519C283.453 228.236 285.152 228.441 284.21 228.018ZM288.013 227.726C279.915 225.393 284.373 227.117 287.2 227.699C287.763 227.811 288.088 227.828 288.013 227.726ZM327.232 225.856C328.458 225.239 329.712 224.236 327.28 225.404C324.95 226.49 324.266 227.31 327.232 225.856ZM349.688 215.333C349.454 215.496 348.75 216.016 348.704 216.04C348.582 216.102 348.611 215.86 347.789 216.364C345.841 217.547 343.638 219.6 349.789 215.469C349.755 215.424 349.721 215.378 349.688 215.333ZM347.716 213.79C349.699 212.569 348.864 212.672 348.726 212.742C347.847 213.186 344.535 215.736 347.716 213.79ZM356.443 207.679C352.613 210.375 353.476 209.483 353.284 209.598C349.889 211.594 352.986 210.863 356.443 207.679ZM364.832 201.719C366.55 199.947 358.648 205.332 361.645 204.121C362.042 203.876 362.442 203.628 362.844 203.379L364.832 201.719ZM365.367 202.118C367.213 200.832 366.533 200.76 366.041 201.042C365.188 201.531 363.307 202.918 364.268 202.528C364.457 202.446 366.243 201.021 365.367 202.118ZM133.082 173.99C132.2 174.805 131.308 175.614 130.402 176.419C131.131 175.878 131.839 175.345 132.561 174.794C132.736 174.526 132.91 174.257 133.082 173.99ZM136.129 171.38C135.783 171.78 135.432 172.182 135.077 172.585C135.637 172.125 136.182 171.674 136.736 171.208C137.069 170.853 137.398 170.498 137.723 170.146C137.198 170.556 136.663 170.971 136.129 171.38ZM248.688 158.159C248.845 158.315 249.001 158.471 249.157 158.628C248.756 157.677 248.341 156.69 247.935 155.736C248.186 156.537 248.437 157.345 248.688 158.159ZM167.966 135.621C165.498 138.613 165.787 138.621 165.293 139.291C165.053 139.611 164.826 139.759 164.702 139.846C164.675 139.868 164.648 139.89 164.621 139.912C164.033 140.7 162.151 143.511 162.284 143.47C163.256 142.391 164.178 141.357 165.118 140.278C165.003 140.183 164.886 140.088 164.771 139.993C164.949 139.88 165.126 139.767 165.303 139.655C165.736 138.982 166.183 138.283 166.597 137.62C166.928 137.388 167.29 137.111 167.63 136.862C167.747 136.444 167.859 136.03 167.966 135.621ZM211.732 96.1475C213.578 96.2001 215.386 96.3425 217.137 96.5273C217.148 96.5283 217.16 96.5292 217.172 96.5303C217.158 96.5522 217.144 96.5747 217.131 96.5967C217.097 96.7123 217.065 96.8286 217.031 96.9443C216.092 96.8373 215.143 96.7436 214.179 96.6689C213.838 96.7205 213.496 96.7743 213.155 96.8311C214.355 97.0192 215.532 97.2411 216.685 97.4834C216.812 97.4872 216.939 97.4919 217.064 97.4961C219.926 97.7267 221.582 99.026 222.895 100.067C222.371 99.5226 221.802 98.9919 221.068 98.4775C224.977 101.115 223.626 100.847 225.64 103.345C226.388 104.114 227.099 104.924 227.753 105.705C228.452 107.046 229.048 108.345 229.617 109.67C230.788 111.734 230.961 111.89 230.358 110.396C231.066 111.373 231.393 112.626 232.076 113.896C232.13 113.995 232.185 113.734 232.229 113.822C235.37 120.341 234.707 120.209 235.153 121.252C235.452 121.988 236.91 124.866 237.019 124.888C237.151 124.893 235.226 118.471 239.018 128.249C237.462 123.027 234.68 117.476 235.742 121.361C235.179 119.725 231.924 112.847 231.641 112.367C231.343 111.715 231.645 111.87 231.226 111.035C230.939 110.532 230.062 109.542 228.038 105.523C227.662 105.074 227.297 104.658 226.886 104.198C226.614 103.702 226.36 103.247 226.038 102.729C226.941 103.541 227.772 104.368 228.552 105.18C225.831 101.761 224.159 97.5448 217.824 96.4102C217.598 96.3739 217.373 96.3465 217.151 96.3281C215.161 96.1411 214.182 96.0699 215.117 95.9248C214.442 95.8909 213.765 95.8659 213.083 95.8516C212.629 95.9452 212.185 96.0438 211.732 96.1475ZM228.765 105.887C229.006 106.4 229.235 106.909 229.468 107.439C230.032 108.261 230.583 109.107 231.099 109.924C230.911 109.451 230.69 108.927 230.479 108.435C229.947 107.606 229.35 106.707 228.765 105.887ZM210.349 96.1377C207.317 96.3188 205.12 96.3999 203.578 96.6436C202.355 96.847 202.505 96.9521 202.412 96.9668C202.408 96.9677 202.403 96.9688 202.399 96.9697C199.54 97.5789 198.61 97.7954 196.477 98.6416C191.07 100.999 188.672 103.724 185.69 106.672C186.78 105.869 190.253 101.949 195.249 99.5859C200.182 97.1141 205.841 96.4057 208.622 96.5508C209.196 96.403 209.771 96.2655 210.349 96.1377ZM193.188 102.153C195.197 100.753 192.428 102.355 192.02 102.425C191.852 102.439 193.745 101.018 191.136 102.463C190.134 103.18 190.684 102.942 190.6 103.006C189.959 103.496 189.307 103.918 189.086 104.133C185.182 108.297 187.951 105.718 187.999 105.675C188.176 105.689 187.26 106.837 188.798 105.505C189.65 104.61 190.564 103.775 191.539 103.003C192.083 102.698 192.629 102.417 193.188 102.153ZM198.082 97.5674C194.867 98.7147 191.725 100.459 189.039 102.74C188.95 102.891 188.861 103.044 188.774 103.196C191.5 100.4 198.295 97.772 198.082 97.5674ZM202.706 97.6123C200.143 98.1807 197.571 99.0527 195.141 100.309C197.639 99.1864 200.237 98.4664 202.799 98.0508C202.768 97.9049 202.737 97.7582 202.706 97.6123ZM215.632 95.3516C214.951 95.2719 212.049 95.1464 212.392 95.3076C213.656 95.4242 214.896 95.5798 216.107 95.7598C216.468 95.7406 216.841 95.7243 217.197 95.709C217.726 95.7246 218.245 95.7853 218.743 95.8809C218.294 95.7672 217.766 95.6621 217.205 95.6045C216.524 95.4999 215.777 95.3641 215.632 95.3516Z" fill="white"/>
<path d="M336.239 225.209C333.392 226.859 330.521 228.431 327.595 229.872C327.679 229.769 327.763 229.664 327.848 229.561C330.659 228.164 333.422 226.649 336.166 225.058C336.19 225.108 336.215 225.159 336.239 225.209Z" fill="white"/>
<path d="M345.177 220.287C347.358 218.643 351.86 215.688 350.522 217.14C347.935 218.543 346.486 219.708 342.828 221.812C343.3 221.413 343.789 221 344.26 220.597C344.262 220.595 344.265 220.594 344.267 220.593C344.568 220.493 344.872 220.39 345.177 220.287Z" fill="white"/>
<path d="M362.08 211.597C359.278 213.497 356.981 215.207 353.793 217.046C356.605 214.938 358.222 214.248 360.909 212.053L360.914 212.05C361.301 211.901 361.69 211.749 362.08 211.597Z" fill="white"/>
<path d="M367.093 209.794C366.678 210.047 366.491 210.022 366.122 210.272C363.753 211.885 361.669 213.72 361.122 213.47C363.422 212.094 365.289 210.393 365.643 210.184C365.773 210.107 366.337 209.859 367.093 209.427V209.794Z" fill="white"/>
<path d="M357.866 212.293C362.658 208.993 357.812 212.721 356.558 213.356C355.783 213.755 357.388 212.623 357.866 212.293Z" fill="white"/>
<path d="M359.9 210.563C363.168 208.695 354.076 214.71 356.809 212.647C356.931 212.558 359.76 210.648 359.9 210.563Z" fill="white"/>
<path d="M367.093 206.189C365.291 207.395 363.486 208.599 361.651 209.811C362.08 209.351 362.513 208.887 362.949 208.42C364.191 207.683 365.41 206.958 366.672 206.2C365.993 206.693 365.32 207.18 364.655 207.66C365.47 207.143 366.281 206.625 367.093 206.106V206.189Z" fill="white"/>
<path d="M203.221 99.6904C207.269 98.8903 208.836 98.7358 212.922 98.8467C213.277 98.8596 214.322 99.2354 215.003 98.8457C215.956 98.9688 216.553 99.0518 216.946 99.0957C218.968 99.5328 218.258 98.9223 220.875 100.493C223.881 102.781 225.311 105.382 226.843 107.863C227.593 109.293 223.651 103.795 223.186 103.515C222.691 102.928 222.317 102.217 221.746 101.68C220.431 100.362 218.264 99.4001 216.93 99.3184C216.773 99.2925 216.652 99.2622 216.577 99.2236C214.025 99.2596 217.192 99.3616 216.859 99.5244C215.183 99.3263 213.477 99.1715 211.748 99.0986C210.914 99.4285 201.211 99.9202 201.975 100.494C201.195 100.596 200.414 100.728 199.634 100.895C196.597 102.643 194.523 103.063 190.79 105.989C191.09 105.822 191.402 105.654 191.708 105.5C191.586 105.538 188.757 108.489 189.57 107.233C188.793 108.209 188.279 108.882 187.839 109.421C186.842 110.676 186.21 111.092 185.155 113.428C184.119 115.266 184.476 114.035 182.659 117.281C181.597 119.209 180.475 121.625 179.297 123.716C179.031 124.188 178.763 124.313 178.514 124.745C178.273 125.162 178.299 125.447 177.998 125.968C177.389 127.023 176.468 128.31 176.062 128.98C175.72 129.549 175.319 130.472 174.436 131.871C171.321 136.716 172.063 135.157 171.51 135.857C170.891 136.613 170.715 137.353 169.536 138.931C169.416 139.09 169.581 138.571 169.203 139.103C168.906 139.518 168.927 139.816 167.915 141.236C167.579 141.807 161.08 150.165 160.015 151.38C158.723 152.961 156.172 155.835 154.263 157.974C153.814 158.477 153.389 158.95 153.061 159.32C152.412 160.05 151.821 160.925 151.11 161.69C148.772 164.231 144.856 168.144 141.616 171.095C138.729 173.79 133.208 177.998 131.693 179.561C127.367 183.05 126.103 183.593 125.77 183.853C124.856 184.518 124.536 184.965 123.384 185.806C117.662 189.975 110.987 194.304 103.924 198.262C98.2241 201.457 92.4218 204.497 86.5557 206.276C80.7046 208.091 74.7836 208.632 69.4521 208.752C69.0143 208.762 68.5694 208.77 68.1182 208.774C52.0814 208.975 36.093 208.633 20 208.054V207.094C20.0284 207.095 20.0574 207.095 20.0869 207.096C21.6209 207.142 19.9416 207.253 23.3535 207.438C25.0507 207.534 30.9566 207.606 32.3936 207.643C33.8365 207.684 35.4149 207.853 37.4111 207.891C40.2524 207.95 46.4807 207.989 49.377 207.975C49.5487 207.974 49.97 207.816 50.3975 207.823C51.2835 207.838 51.0209 208.036 51.6885 208.062C52.3555 208.106 63.9324 208.098 65.9004 208.065C66.7914 208.06 67.5084 208.002 68.1104 207.961C68.4135 207.94 68.6837 207.922 68.9307 207.918C69.4991 207.909 69.5666 208.074 70.1533 208.06C70.3357 208.054 71.8637 207.865 73.3838 207.765C74.8406 207.735 80.2231 207.165 80.8281 206.987C81.2278 206.909 80.7692 206.887 81.9443 206.646C83.0092 206.422 83.743 206.395 84.3467 206.239C85.7476 205.877 87.2519 205.272 88.6963 204.748C92.8344 203.182 92.6829 203.321 92.9346 203.246C93.6244 202.957 93.8245 202.671 94.0449 202.565C94.982 202.125 97.2565 200.955 98.084 200.509C99.1164 199.96 99.6359 199.872 100.728 199.28C101.332 198.952 102.313 198.315 103.535 197.571C103.988 197.296 104.468 197.008 104.967 196.72C109.115 194.333 113.941 191.291 117.831 188.663C118.997 187.876 119.256 187.879 119.61 187.641C121.481 186.375 122.404 185.497 122.926 185.126C126.681 182.49 133.265 177.636 136.488 174.843C137.829 173.743 143.393 168.581 146.396 165.544C146.743 165.199 146.505 165.607 146.875 165.208C147.751 164.26 147.501 164.164 147.963 163.7C148.184 163.479 148.793 163.047 149.437 162.388C151.237 160.541 152.662 158.926 153.805 157.577C154.828 156.369 155.609 155.422 156.271 154.646C162.283 147.599 168.079 140.303 173.165 132.7C178.473 125.185 181.705 116.941 187.502 109.155C189.315 106.847 191.529 104.846 193.984 103.315C196.086 101.995 198.895 100.533 202.515 99.8428C202.641 99.8904 202.768 99.9391 202.894 99.9883C203.002 99.8888 203.111 99.7888 203.221 99.6904Z" fill="white"/>
<path d="M117.342 190.532C118.94 189.436 120.212 188.609 119.998 189.008C119.143 189.584 118.278 190.157 117.415 190.72C117.391 190.658 117.366 190.594 117.342 190.532Z" fill="white"/>
<path d="M132.332 179.808C132.586 179.831 125.361 185.337 127.717 183.242C129.275 182.117 130.807 180.978 132.332 179.808Z" fill="white"/>
<path d="M156.961 156.152C155.418 157.834 159.33 152.509 159.496 153.054C158.675 154.07 157.811 155.125 156.961 156.152Z" fill="white"/>
<path d="M170.028 139.352C169.238 140.522 168.403 141.727 167.589 142.882C167.543 142.85 167.497 142.816 167.451 142.784C168.311 141.662 169.191 140.491 170.028 139.352Z" fill="white"/>
<path d="M190.146 111.233C195.719 103.791 205.849 101.794 214.399 102.253C214.936 102.368 215.469 102.49 215.998 102.616C206.564 101.805 196.112 103.639 190.317 111.369C188.197 114.049 186.518 117.067 184.839 120.131C185.325 119.081 185.82 118.019 186.326 116.981C187.469 114.999 188.707 113.047 190.146 111.233Z" fill="white"/>
<path d="M215.467 108.928C215.501 108.972 215.539 109.022 215.58 109.075C215.406 109.043 215.237 108.986 215.113 108.925C215.229 108.926 215.347 108.927 215.467 108.928Z" fill="white"/>
</g>
<defs>
<filter id="filter0_g_4_13" x="0" y="0" width="387.093" height="340" filterUnits="userSpaceOnUse" color-interpolation-filters="sRGB">
<feFlood flood-opacity="0" result="BackgroundImageFix"/>
<feBlend mode="normal" in="SourceGraphic" in2="BackgroundImageFix" result="shape"/>
<feTurbulence type="fractalNoise" baseFrequency="0.12870012223720551 0.12870012223720551" numOctaves="3" seed="5749" />
<feDisplacementMap in="shape" scale="40" xChannelSelector="R" yChannelSelector="G" result="displacedImage" width="100%" height="100%" />
<feMerge result="effect1_texture_4_13">
<feMergeNode in="displacedImage"/>
</feMerge>
</filter>
</defs>
</svg>
