<svg width="485" height="158" viewBox="0 0 485 158" fill="none" xmlns="http://www.w3.org/2000/svg">
<rect width="485" height="158" fill="#F5F5F5"/>
<g style="mix-blend-mode:darken" filter="url(#filter0_g_0_1)">
<path d="M32.8247 98.5873C44.7545 97.3769 52.8365 99.0581 63.8535 99.6216C70.2039 99.9625 76.9371 100.217 84.2712 100.693C92.8192 101.333 101.503 101.916 110.117 102.063C122.441 102.51 133.913 102.863 144.435 102.917C148.088 102.945 151.733 102.946 155.408 102.921C164.643 103.05 171.51 100.613 180.027 95.7105C184.451 93.2519 188.74 90.5797 192.855 87.7211C193.601 87.2025 194.139 87.0045 194.473 86.766C197.671 84.5241 202.702 80.3407 205.582 77.7822C208.841 74.9471 213.201 70.7703 216.942 66.464C220.401 62.504 223.57 58.6361 225.745 55.897C227.732 53.4144 229.636 50.7645 230.618 49.9701C231.29 49.0234 231.358 48.322 231.51 48.0612C231.512 48.0586 231.514 48.0559 231.516 48.0533C232.007 47.2249 233.492 45.3121 233.762 44.8312C233.801 44.7612 233.344 45.0588 234.076 43.9887C234.141 43.8916 234.229 44.0675 234.786 43.1292C234.941 42.8952 236.535 39.5716 237.047 38.5784C237.99 36.8747 239.665 33.4832 242.432 30.0149C244.874 26.8894 248.317 24.5267 250.757 23.3877C251.581 22.9933 252.024 22.6998 252.914 22.3612C253.373 22.1863 254.098 22.0573 254.237 22.0147C254.85 21.7772 257.462 20.7051 256.69 21.8285C259.442 21.22 258.581 21.1237 258.614 20.8994C261.648 20.4407 263.02 20.9314 263.766 20.4423C265.421 20.428 267.031 20.5076 268.565 20.6279C273.461 21.3214 274.808 23.5392 276.213 24.8692C277.515 26.337 278.416 27.697 279.252 29.0487C280.861 31.6902 282.125 34.311 283.281 36.8806C285.574 42.0293 287.463 47.1748 289.229 52.3071C289.301 52.2859 289.373 52.2647 289.445 52.2434C290.348 55.7725 291.209 56.7898 291.438 58.8914C291.919 60.0627 292.402 61.2558 292.873 62.4316C294.765 68.634 296.536 74.8153 298.252 81.0311C299.636 86.0261 300.833 91.0934 301.874 96.0933C302.937 101.076 303.77 105.909 305.285 109.383C308.147 116.841 320.418 120.374 331.962 122.877C334.204 123.368 336.429 123.39 338.859 122.98C339.891 122.789 340.171 122.922 341.939 122.43C343.878 121.885 346.658 120.607 349.299 119.33C351.623 118.234 355.183 116.461 357.791 114.935C358.371 114.597 358.748 114.252 358.815 114.213C359.208 113.981 359.315 114.104 359.697 113.877C360.142 113.613 360.622 113.18 361.152 112.86C363.108 111.683 365.199 110.284 365.451 110.124C366.659 109.361 366.98 109.336 367.084 109.271C368.411 108.424 367.843 108.626 368.177 108.416C369.884 107.341 371.276 106.839 373.424 104.976C373.437 105.125 373.444 105.279 373.454 105.431C375.253 104.3 373.896 104.799 374.22 104.503C374.355 104.387 378.18 101.817 378.493 101.605C379.529 100.917 379.647 101.047 379.738 100.987C379.953 100.846 382.413 98.8964 383.82 98.0976C385.502 97.1412 383.846 98.7322 384.277 98.5123C384.359 98.4691 385.956 97.3069 386.238 97.2438C386.546 97.1741 385.145 98.1526 385.198 98.1766C385.225 98.2004 387.705 96.7619 387.353 97.2107C387.086 97.6027 383.781 99.6564 383.157 100.184C383.054 100.272 383.379 100.295 383.286 100.369C382.908 100.678 375.572 105.746 375.203 105.941C375.531 105.605 375.862 105.266 376.197 104.924C375.677 105.268 375.163 105.607 374.654 105.941C375.327 105.393 376.013 104.835 376.708 104.268C375.174 104.391 372.384 107.22 372.462 107.626C372.5 107.816 374.745 106.854 373.044 108.32C373.349 108.17 373.656 108.018 373.964 107.865C374.509 107.407 375.05 106.95 375.578 106.501C375.166 106.724 374.773 106.933 374.346 107.165C374.459 107.024 374.58 106.878 374.687 106.741C375.692 105.956 376.773 105.115 377.778 104.321C378.351 103.975 378.326 104.183 378.725 103.946C383.698 100.978 380.327 102.715 383.473 100.615C383.961 100.378 384.453 100.138 384.949 99.8951C384.595 99.7152 386.094 98.9368 387.67 97.6461C387.535 97.8791 387.4 98.1117 387.267 98.3437C387.724 98.009 388.29 97.6257 388.9 97.2244C391.532 95.4677 394.921 93.7582 393.5 94.0327C394.129 93.7072 394.757 93.3905 395.388 93.0794C395.845 92.6904 396.305 92.3046 396.768 91.9227C397.483 91.5274 398.2 91.1403 398.918 90.76C398.948 90.8068 398.977 90.8535 399.007 90.9002C398.44 91.2116 397.874 91.5271 397.308 91.8477C397.816 91.754 398.322 91.6641 398.828 91.5774C399.231 91.3226 399.636 91.0699 400.04 90.8194C398.211 91.633 400.398 90.1437 400.858 89.6526C402.306 88.7916 403.387 88.5644 403.89 88.3204C404.127 88.2021 406.647 86.3578 405.822 87.4023C407.205 86.6282 408.586 85.8646 409.957 85.1047C410.524 84.8696 411.09 84.635 411.655 84.4002C410.59 85.2259 414.159 83.7889 411.681 85.1518C409.825 86.17 409.244 86.1859 408.342 86.6385C407.527 87.0469 407.171 87.4088 406.284 87.8638C400.33 90.9241 395.38 93.5191 389.915 97.1734C389.672 97.3367 389.437 97.5022 389.211 97.6667C388.454 98.2161 387.804 98.7292 387.272 99.0917C386.498 99.6181 387.338 98.778 386.394 99.5005C385.392 100.266 385.253 100.569 384.983 100.761C384.813 100.882 384.188 101.134 383.698 101.475C381.65 102.904 378.741 105.085 378.454 105.28C378.138 105.505 372.249 109.334 371.957 109.485C371.802 109.572 371.793 108.908 370.843 110.255C370.45 110.529 370.071 110.792 369.663 111.074C369.668 110.937 369.672 110.801 369.677 110.664C367.514 112.588 368.222 111.846 365.934 113.358C360.489 116.949 352.145 121.873 345.839 124.238C344.428 124.768 343.936 125.087 342.26 125.569C340.68 126.104 336.64 126.174 337.56 126.607C334.139 126.352 333.559 126.95 331.946 126.194C331.731 126.23 331.514 126.263 331.295 126.292C331.268 126.281 331.24 126.27 331.213 126.259C329.283 125.522 328.568 125.643 326.359 125.14C325.399 124.916 326.58 124.868 324.56 124.738C324.197 124.613 323.837 124.488 323.48 124.361C323.587 124.304 323.693 124.247 323.799 124.191C321.661 123.674 321.547 123.576 321.699 123.947C320.701 123.597 319.707 123.229 318.736 122.844C318.581 122.899 318.425 122.953 318.268 123.007C318.458 123.214 324.504 125.122 331.167 126.47C336.817 127.805 342.921 125.697 344.39 125.15C348.064 124.288 355.006 120.395 357.788 118.792C358.907 118.171 359.515 118.085 361.148 117.134C362.767 116.191 364.662 114.754 365.523 114.196C368.341 112.456 381.603 103.513 372.766 109.826C373.092 109.742 373.403 109.669 373.724 109.588C377.115 106.839 375.915 107.935 378.909 105.935C380.165 105.096 382.971 102.847 383.101 103.374C380.861 105.046 378.303 106.608 376.288 107.985C376.107 108.111 373.829 109.933 372.558 110.702C371.399 111.403 371.93 110.475 369.781 112.541C367.708 113.264 366.884 114.361 366.449 114.7C365.674 115.3 365.422 115.148 364.581 115.641C363.678 116.168 363.116 116.718 362.997 116.793C361.767 117.609 355.206 121.412 354.817 121.44C355.062 121.256 355.308 121.07 355.557 120.882C353.784 121.754 354.293 121.776 353.838 122.053C353.493 122.232 353.151 122.406 352.813 122.576C352.921 122.458 353.03 122.34 353.14 122.222C351.1 123.252 352.755 122.684 349.802 124.057C347.915 124.919 345.878 125.448 345.695 125.527C345.641 125.551 346.299 125.464 345.517 125.768C344.25 126.277 341.969 126.904 341.684 126.757C341.046 126.939 341.145 127.106 341.06 127.131C340.698 127.421 334.264 128.098 333.137 127.717C332.425 127.642 331.703 127.524 330.969 127.363C328.224 126.76 325.348 126.059 322.568 125.308C322.199 125.208 322.466 125.157 322.098 125.056C321.501 124.908 318.446 124.161 318.009 124.008C316.883 123.685 314.075 122.498 313.633 122.341C313.568 122.322 314.419 122.871 313.325 122.451C312.122 121.972 312.852 122.055 312.787 122.025C310.443 120.849 308.976 120.14 307.523 119.162C307.052 118.844 306.33 118.081 305.715 117.601C305.643 117.546 305.677 117.781 305.604 117.728C304.644 116.999 304.106 115.98 303.799 115.589C303.05 114.612 303.314 115.258 303.27 115.211C302.748 114.568 302.169 113.619 301.58 112.522C301.348 112.091 301.141 111.663 300.95 111.224C298.952 106.505 298.295 101.779 297.022 95.8922C296.852 95.0798 296.787 94.082 296.76 93.9584C296.673 93.5709 296.529 93.7226 296.283 92.608C295.765 90.2707 295.23 88.0955 294.636 85.8C294.517 85.3379 294.619 85.0877 294.531 84.7418C294.404 84.2465 294.069 83.2773 293.744 82.2867C293.297 80.9206 292.898 79.569 293.185 79.4472C292.072 77.2405 292.016 75.5905 291.466 73.7288C290.169 69.3058 287.95 62.4309 286.543 58.0414C286.254 57.1302 286.232 56.6408 286.066 56.1277C285.79 55.2251 283.864 49.9964 283.774 49.728C283.61 49.1711 284.31 49.2984 282.776 46.7218C282.132 45.15 282.418 45.2228 282.304 44.8913C281.38 42.2599 279.786 39.9854 280.451 40.2567C279.027 37.3113 277.832 35.5561 277.607 34.117C277.412 34.2474 276.59 32.9243 275.658 31.2486C276.972 32.7263 277.171 32.3823 279.167 36.6094C279.197 36.674 278.989 36.623 279.019 36.6876C279.285 37.2677 279.945 38.4956 280.383 39.5197C280.83 40.5633 280.471 40.0253 280.65 40.4333C280.812 40.8041 280.952 40.7276 281.186 41.2753C281.936 43.0383 282.591 44.5821 282.994 45.6109C283.239 46.2391 283.38 46.9986 283.569 47.5019C284.297 49.4048 285.856 53.4487 286.663 55.9069C286.833 56.4191 286.616 56.2633 286.977 57.3829C287.019 57.5134 287.331 57.9304 287.688 58.9087C288.047 59.8941 288.209 60.6578 288.431 61.2927C288.614 61.8161 288.687 61.5667 289.036 62.633C289.364 63.5402 292.364 73.8204 292.48 74.3889C292.682 75.2008 292.599 75.6454 292.764 76.1303C292.794 76.2144 293.025 76.3046 293.124 76.5982C293.591 77.9851 294.153 79.8676 294.751 82.0061C296.283 87.3722 297.7 94.3293 298.522 98.422C299.464 102.914 300.257 107.208 301.834 110.848C304.271 116.674 310.283 120.275 317.163 122.704C317.374 122.744 317.579 122.781 317.789 122.818C316.666 122.423 315.568 122.003 314.489 121.545C314.519 121.457 314.548 121.369 314.577 121.281C313.144 120.645 313.257 120.914 313.238 121.056C312.73 120.761 312.241 120.46 311.757 120.147C311.142 120.239 307.956 118.148 306.613 116.887C305.688 116.108 304.644 115.147 304.264 114.65C303.463 113.604 303.684 113.499 303.621 113.418C303.525 113.289 302.494 111.988 301.995 110.78C301.968 110.717 301.942 110.655 301.917 110.593C301.164 108.644 301.373 108.373 300.358 105.559C299.579 101.785 298.701 97.3199 297.704 93.0176C298.167 93.7853 297.036 89.9531 296.605 88.2261C296.114 86.2049 295.571 84.096 294.983 81.9416C292.514 72.8829 289.618 62.8727 286.802 54.4125C286.346 53.0435 286.159 52.0146 285.881 51.2487C285.733 50.8431 285.485 50.7319 285.309 50.1676C285.277 50.0662 285.431 49.9475 285.069 48.8795C284.213 46.2464 281.335 39.9332 280.881 38.1803C279.725 35.6621 278.46 33.1009 276.919 30.6121C276.124 29.3418 275.274 28.0888 274.138 26.8211C272.944 25.6461 271.721 23.9542 268.351 23.5101C264.237 23.229 259.778 23.2636 255.351 24.6156C255.065 24.6235 254.78 24.6361 254.492 24.655C252.933 25.3412 247.265 28.1405 244.676 31.7785C244.144 32.4438 243.692 33.0691 243.329 33.6091C239.726 39.3115 236.795 45.7378 233.798 49.9948C233.182 50.923 232.573 51.6186 231.975 52.4753C231.709 52.8561 231.503 53.3896 231.228 53.7738C228.157 58.1102 223.462 63.6915 219.943 67.7659C219.732 68.0117 219.518 68.259 219.303 68.5079C211.613 77.3108 203.01 84.649 193.135 91.443C189.409 93.9903 185.575 96.3747 181.645 98.59C173.177 103.601 165.011 106.548 155.442 106.392C140.274 106.601 125.325 106.169 110.04 105.532C101.394 105.355 92.775 104.759 84.0389 104.131C80.0536 103.871 76.0967 103.718 72.1492 103.562C71.5699 103.54 71.6208 103.38 71.1818 103.363C68.5919 103.259 62.8037 103.21 59.8813 103.122C57.5537 103.05 53.8573 102.706 53.054 102.936C61.3161 103.525 70.0518 103.743 78.6801 104.231C79.2925 104.267 79.3747 104.425 79.448 104.431C80.8243 104.552 79.9822 104.295 82.0068 104.393C82.2331 104.405 83.0599 104.501 84.0061 104.617C86.0041 104.863 88.6635 105.171 88.1888 104.806C89.6682 105.124 100.108 105.882 102.124 105.877C102.738 105.885 102.311 105.72 102.433 105.719C102.958 105.71 103.192 105.92 103.66 105.945C104.916 106.014 108.112 105.958 108.717 105.971C109.033 105.98 109.488 106 110.029 106.025C111.956 106.113 114.792 106.337 116.238 106.367C117.942 106.403 117.638 106.182 119.096 106.223C120.258 106.254 118.984 106.381 121.568 106.534C122.853 106.612 127.326 106.637 128.412 106.665C129.505 106.696 130.698 106.854 132.21 106.88C134.361 106.922 139.075 106.934 141.268 106.914C141.398 106.913 141.717 106.754 142.04 106.76C142.711 106.773 142.511 106.972 143.017 106.996C143.522 107.034 152.286 107.022 153.775 106.998C154.449 106.994 154.992 106.937 155.447 106.898C155.675 106.878 155.878 106.861 156.063 106.859C156.49 106.852 156.541 107.018 156.982 107.007C157.118 107.003 158.264 106.825 159.402 106.75C160.495 106.729 164.516 106.338 164.963 106.206C165.261 106.149 164.913 106.102 165.787 105.924C166.579 105.758 167.134 105.776 167.584 105.661C168.627 105.392 169.736 104.91 170.812 104.52C173.898 103.352 173.807 103.499 173.995 103.444C174.514 103.232 174.644 102.977 174.809 102.897C175.509 102.564 177.214 101.679 177.836 101.342C178.612 100.927 179.022 100.897 179.845 100.451C180.301 100.203 181.031 99.7039 181.949 99.1311C182.288 98.9193 182.649 98.6993 183.024 98.4817C186.151 96.6776 189.786 94.377 192.721 92.3965C193.601 91.8033 193.817 91.836 194.085 91.6568C195.499 90.7057 196.171 90.0103 196.564 89.7307C199.398 87.7466 204.404 84.1371 206.84 82.0336C207.853 81.2061 212.028 77.29 214.295 75.0053C214.558 74.7451 214.398 75.074 214.674 74.7698C215.327 74.0468 215.096 73.9339 215.446 73.5857C215.613 73.4195 216.095 73.1176 216.583 72.623C217.946 71.2381 219.017 70.0195 219.873 69.0014C220.644 68.0853 221.231 67.3661 221.732 66.7807C226.282 61.4588 230.663 55.9534 234.501 50.2277C238.515 44.5585 240.904 38.4098 245.407 32.3532C246.825 30.5493 248.562 28.9791 250.487 27.7805C252.131 26.7465 254.324 25.5722 257.149 25.0657C257.251 25.1191 257.353 25.1732 257.454 25.2279C257.535 25.1345 257.616 25.0415 257.698 24.9488C260.838 24.3186 262.05 24.1792 265.194 24.286C265.468 24.2977 266.266 24.666 266.792 24.2676C267.523 24.3792 267.978 24.4518 268.279 24.4889C270.014 24.8662 269.437 24.3406 271.61 25.6377C274.061 27.5024 275.116 29.5183 276.298 31.4344C276.847 32.5553 273.742 28.3617 273.372 28.1321C272.986 27.6741 272.725 27.083 272.27 26.6516C271.23 25.5977 269.417 24.7938 268.262 24.7117C268.142 24.6886 268.051 24.6598 267.994 24.6224C266.038 24.6969 268.465 24.7517 268.204 24.9186C266.926 24.7498 265.621 24.6135 264.292 24.5402C263.668 24.9339 256.149 25.1328 256.756 25.6815C256.147 25.7399 255.535 25.8224 254.921 25.9325C252.603 27.4152 250.965 27.6498 248.015 29.9118C248.261 29.793 248.515 29.675 248.764 29.5676C248.679 29.5971 246.486 31.9219 247.071 30.8928C246.483 31.6737 246.089 32.2005 245.744 32.6184C244.971 33.5823 244.435 33.8763 243.694 35.715C242.914 37.1306 243.125 36.1576 241.742 38.6321C240.934 40.0994 240.119 41.942 239.232 43.5218C239.031 43.8785 238.794 43.9515 238.606 44.2775C238.424 44.5922 238.48 44.8277 238.253 45.2212C237.796 46.0183 237.076 46.9735 236.773 47.4805C236.517 47.9105 236.245 48.6252 235.583 49.6841C233.249 53.3518 233.768 52.1456 233.335 52.6646C232.853 53.224 232.776 53.8213 231.879 55.0081C231.788 55.1288 231.878 54.7102 231.594 55.1133C231.371 55.4279 231.425 55.6793 230.667 56.7581C230.417 57.189 225.512 63.5143 224.707 64.4333C223.731 65.6295 221.783 67.7865 220.331 69.3979C219.991 69.776 219.67 70.1313 219.422 70.4106C218.933 70.9606 218.515 71.6458 217.978 72.2231C216.213 74.1394 213.257 77.0903 210.809 79.3167C208.627 81.3509 204.407 84.4644 203.31 85.7014C200.048 88.3447 199.057 88.7039 198.805 88.8992C198.114 89.3994 197.897 89.7703 197.028 90.4068C192.712 93.5632 187.672 96.8339 182.337 99.8219C178.025 102.238 173.659 104.518 169.276 105.845C164.904 107.199 160.474 107.603 156.46 107.695C156.13 107.702 155.795 107.708 155.455 107.712C140.326 107.905 125.281 107.466 110.011 106.83C101.339 106.653 92.6817 106.057 83.9509 105.434C76.9668 105.004 70.087 104.798 63.153 104.562C63.0679 104.635 62.9825 104.708 62.8972 104.78C66.5818 104.939 70.8988 105.213 74.562 105.387C77.2904 105.518 80.7551 105.569 83.9271 105.786C86.3884 105.96 88.639 106.19 90.1794 106.521C88.7423 106.468 86.4026 106.104 86.4267 106.371C89.0048 106.572 91.5724 106.772 94.1447 106.953C94.0754 106.826 94.0063 106.699 93.9374 106.573C96.626 106.708 99.3656 106.89 102.06 106.996C102.529 107.014 102.202 106.889 102.608 106.906C103.063 106.926 102.75 107.025 102.835 107.03C103.987 107.081 104.34 106.98 104.479 106.987C104.839 107.005 104.556 107.104 105.593 107.173C107.52 107.3 108.907 107.044 108.441 107.513C108.96 107.527 109.476 107.54 109.995 107.551C110.097 107.554 110.202 107.556 110.31 107.559C110.483 107.433 110.65 107.307 110.815 107.181C114.692 107.848 116.471 107.014 118.564 107.832C119.274 107.749 119.968 107.664 120.68 107.579C121.062 107.725 121.456 107.871 121.85 108.017C121.929 107.908 122.009 107.798 122.089 107.689C125.851 107.913 129.875 107.899 133.476 107.99C135.982 108.052 136.594 108.106 138.813 108.131C143.77 108.173 138.838 108.34 142.957 108.622C142.744 108.482 142.527 108.343 142.314 108.203C143.008 108.159 143.67 108.114 144.358 108.068C144.839 108.183 145.304 108.298 145.778 108.412C147.887 107.838 149.251 108.305 149.532 108.305C149.76 108.303 150.557 107.955 153.049 108.237C152.014 107.764 154.94 108.221 155.182 108.22C155.217 108.22 155.315 108.217 155.46 108.211C156.244 108.188 158.378 108.046 159.33 107.979C160.219 107.932 162.101 107.866 163.401 107.664C164.541 107.488 164.4 107.334 164.482 107.321C165.871 107.056 165.022 107.343 166.028 107.146C167.031 106.941 167.763 106.601 167.977 106.556C168.086 106.534 167.766 106.778 168.261 106.658C169.597 106.351 171.894 105.416 173.345 104.795C173.859 104.582 174.559 104.415 175.132 104.155C176.009 103.756 176.342 103.4 176.844 103.159C177.021 103.074 178.256 102.757 179.618 101.98C179.884 101.829 180.375 100.932 181.782 101.055C181.807 100.914 181.83 100.774 181.854 100.633C182.092 100.484 182.324 100.341 182.551 100.203C186.479 97.8042 188.083 97.6765 189.557 95.8599C192.816 93.8768 190.783 95.552 191.161 95.3674C191.407 95.2459 192.399 94.4921 192.517 94.4182C192.725 94.2919 192.746 94.3986 192.967 94.2507C196.988 91.5038 195.091 92.548 196.284 91.5745C199.099 89.2083 201.772 88.025 196.498 91.6167C196.53 91.6624 196.563 91.7081 196.595 91.7538C197.854 90.8154 201.066 88.4374 200.169 89.4638C199.503 90.3287 191.608 95.6266 196.211 92.8161C197.249 92.1722 197.648 91.6398 199.588 90.7022C200.731 89.8801 200.586 89.3556 202.209 88.3638C201.854 88.4135 201.501 88.4609 201.145 88.5084C203.052 86.7658 205.71 85.0034 207.152 83.6396C207.648 83.1815 208.903 80.9541 209.041 81.9608C209.871 81.1961 213.876 77.685 214.508 76.9178C214.661 76.7306 214.588 76.2227 217.082 73.8664C217.288 73.7329 217.492 73.5998 217.696 73.4671C215.652 75.8578 219.59 71.9406 218.869 73.328C218.377 73.5836 216.571 75.2974 216.21 75.5167C215.611 75.8847 216.893 74.2879 215.103 76.1723C214.451 77.843 217.529 74.2735 217.506 75.254C219.657 72.5495 220.07 72.4871 220.612 71.9135C221.022 71.4698 221.41 71.0359 221.761 70.6352C223.376 68.7853 224.521 67.3788 226.222 65.4168C226.616 64.7361 222.79 69.0037 222.385 69.5432C223.222 68.0708 222.327 68.9368 221.269 70.2097C220.714 70.8796 220.106 71.658 219.737 72.2181C219.522 72.233 219.305 72.2479 219.089 72.2626C219.785 71.5517 220.475 70.8175 221.124 70.0844C222.091 68.9922 222.966 67.9436 223.84 66.7908C223.983 66.7066 224.127 66.6229 224.269 66.5395C223.99 67.0047 223.704 67.4759 223.41 67.9532C224.834 66.4762 223.687 67.1727 225.721 65.3187C225.644 65.1473 225.566 64.9762 225.488 64.8053C227.167 62.8517 228.805 60.8834 230.406 58.8754C230.968 57.6158 233.956 53.6893 233.776 54.6796C234.96 53.0527 233.348 54.9421 234.331 53.3516C234.758 52.6612 235.632 51.3436 235.949 51.0744C236.207 51.4495 234.904 53.4656 234.73 54.2023C235.165 53.958 240.811 44.4159 240.649 45.4582C241.15 44.7036 240.725 44.9491 241.454 43.5199C242.927 40.6757 245.073 36.7448 247.287 33.8309C248.17 32.6446 249.073 31.6536 249.791 30.8356C248.426 31.7937 247.581 32.7164 246.936 33.5548C245.892 34.9388 245.309 36.0881 244.283 37.8591C243.286 39.7401 237.071 50.6919 238.074 48.0142C237.875 48.4425 237.687 48.8478 237.479 49.2792C237.115 49.6075 236.761 49.9147 236.39 50.2438C237.091 49.1342 237.78 48.0032 238.437 46.8798C238.715 46.6732 238.989 46.4704 239.259 46.2712C239.251 46.1022 239.245 45.9288 239.239 45.7539C239.507 45.2618 239.764 44.7804 240.024 44.2875C240.045 44.4772 240.065 44.6685 240.084 44.8615C240.528 44.1277 240.958 43.4021 241.395 42.6502C241.153 42.778 240.908 42.9103 240.664 43.0403C242.584 39.4868 241.993 40.7239 243.337 38.8822C244.204 37.4207 242.499 39.7737 244.27 36.6099C245.88 33.9423 245.754 34.6332 246.767 33.4224C247.167 32.9767 247.729 32.2786 248.826 31.225C248.835 31.1148 248.845 31.0045 248.857 30.8941C249.843 30.1128 250.91 29.4385 252.024 28.8871C251.836 28.8878 251.645 28.8927 251.455 28.8993C253.665 27.5008 257.097 26.3802 257.993 26.606C255.434 27.0207 255.684 27.7253 256.338 27.6217C256.997 27.4487 262.435 26.2689 268.105 26.8277C271.189 27.4298 272.614 30.24 273.935 32.0979C275.195 34.0882 276.032 35.758 276.453 36.5896C278.61 40.9601 279.76 44.4284 281.632 48.4761C280.9 45.5242 276.526 35.8845 275.553 34.0897C275.467 33.9036 276.023 33.6721 274.797 32.8687C273.374 30.6681 272.088 27.3881 268.133 26.4583C266.423 26.3534 264.647 26.3017 262.838 26.3669C262.989 26.1925 263.146 26.0189 263.303 25.8465C265.258 26.0089 267.103 25.9256 268.17 25.9543C269.198 26.0295 269.57 26.3432 269.287 26.4827C270.03 26.784 270.597 27.2048 271.133 27.6742C271.208 27.5899 271.282 27.5056 271.357 27.4212C272.171 28.1482 272.8 28.9076 273.416 29.7308C273.325 29.7979 273.235 29.865 273.144 29.9322C273.617 30.5692 274.066 31.2424 274.498 31.9393C274.641 31.9567 274.775 31.9612 274.915 31.9738C276.091 34.1051 279.985 41.206 277.887 38.2415C278.364 39.2693 278.809 40.2715 279.241 41.2814C279.316 41.2457 279.39 41.2099 279.464 41.1742C279.66 41.603 279.861 42.0503 280.054 42.4861C279.928 42.3762 279.795 42.2512 279.665 42.1346C280.628 44.0802 281.027 46.186 281.765 47.4008C281.486 46.5104 281.19 45.5936 280.897 44.7053C281.481 46.4393 282.843 49.4577 282.945 49.7464C283.265 50.6176 283.262 51.0984 283.588 52.0354C283.881 52.8819 283.961 52.7252 284.011 52.8801C285.463 57.4483 284.196 55.9311 285.692 57.7958C285.661 58.0544 285.629 58.3137 285.597 58.5738C285.785 58.8438 285.973 59.1157 286.161 59.3896C286.594 60.7332 287.023 62.0942 287.436 63.4279C287.428 62.9374 287.422 62.4575 287.408 61.9566C288.111 63.9482 288.138 64.9869 288.194 65.1848C288.349 65.7371 288.595 65.9382 288.649 66.1088C291.154 74.3756 289.474 69.3875 290.074 73.719C290.751 75.1058 290.569 73.5584 290.759 73.2703C291.211 75.2489 291.466 75.8665 292.042 77.9269C292.192 78.4671 292.221 79.091 292.316 79.4342C292.397 79.7262 292.802 80.6012 293.002 81.3121C293.096 81.6473 293.192 82.017 293.291 82.4128C293.546 83.4236 293.809 84.5654 294.117 85.7395C294.482 87.0931 295.617 91.236 296.246 94.1623C296.516 95.4043 296.33 95.149 296.398 95.4675C296.426 95.5953 296.782 96.5389 296.949 97.3417C297.982 102.131 298.703 107.067 300.511 111.41C301.145 112.928 301.991 114.34 303.021 115.609C305.783 119.028 309.884 121.309 314.077 123.075C314.978 123.45 314.459 123.356 314.851 123.519C314.987 123.57 315.219 123.471 316.609 124.063C317.116 124.276 316.477 124.191 316.981 124.378C317.225 124.465 317.39 124.356 318.855 124.796C321.533 125.581 322.947 126.168 323.185 126.232C323.645 126.342 323.548 126.171 324.158 126.327C326.575 126.939 328.696 127.41 330.855 127.876C331.321 127.976 331.787 128.062 332.263 128.133C332.856 128.236 335.226 128.514 337.519 128.292C339.82 128.108 341.995 127.529 342.224 127.485C343.247 127.271 342.384 127.818 343.688 127.433C344.028 127.254 344.37 127.069 344.714 126.877C344.107 127.017 343.541 127.13 342.935 127.241C344.546 126.896 346.291 126.122 347.435 125.666C347.656 125.588 349.644 124.9 350.621 124.42C350.222 124.666 349.828 124.905 349.437 125.137C349.603 125.115 349.768 125.094 349.935 125.071C351.888 124.119 353.956 123.076 355.921 122.021C356.646 121.63 356.451 121.867 357.166 121.476C361.335 119.134 360.043 119.328 364.451 117.682C363.088 118.461 358.264 121.439 357.497 121.802C356.999 122.062 354.662 122.461 355.753 122.755C351.672 124.876 355.049 122.689 351.251 124.652C351.367 124.702 351.484 124.752 351.6 124.801C350.269 125.499 349.275 125.98 348.379 126.169C348.285 126.741 343.432 128.327 340.732 128.806C337.555 129.499 333.911 129.664 330.618 128.946C329.864 128.788 329.133 128.63 328.414 128.467C327.063 128.161 326.348 127.798 326.177 127.757C325.928 127.697 325.205 127.68 324.71 127.554C322.859 127.129 317.461 125.229 315.989 125.094C320.725 126.821 325.642 128.025 330.579 129.124C336.617 130.528 342.904 129.06 348.584 126.691C347.268 127.186 357.466 122.244 357.906 121.825C358.379 121.57 358.059 121.924 358.203 121.853C359.283 121.319 360.018 120.635 360.354 120.438C360.614 120.285 361.143 120.095 362.02 119.566C362.181 119.469 362.17 119.349 362.344 119.243C363.471 118.563 364.62 117.855 365.723 117.161C365.791 117.119 366.16 117.075 366.448 116.893C366.735 116.712 366.937 116.395 367.01 116.348C367.885 115.794 369.516 114.864 370.343 114.323C370.637 114.131 370.369 114.167 370.7 113.952C371.72 113.285 371.523 113.688 372.726 112.821C373.133 112.527 373.007 112.403 373.83 111.881C374.419 111.506 374.516 111.815 374.614 111.762C374.732 111.701 376.57 110.168 377.31 109.91C376.236 111.286 378.833 108.909 378.575 108.808C379.396 108.317 380.174 107.853 380.978 107.368C381.208 107.141 381.44 106.912 381.672 106.682C384.898 104.769 386.728 103.301 389.783 101.256C389.853 101.209 390.485 100.802 391.13 100.396C391.834 99.9533 392.547 99.5405 392.508 99.6177C392.09 99.9476 391.672 100.27 391.259 100.58C390.199 101.372 389.193 102.017 388.397 102.35C387.053 103.887 386.819 103.578 384.236 105.451C383.372 106.078 383.389 106.226 383.29 106.298C379.93 108.713 374.479 112.477 371.938 113.676C371.35 114.191 373.691 112.692 372.831 113.354C372.398 113.786 360.325 121.515 363.969 118.704C363.569 118.965 363.185 119.214 362.78 119.474C362.575 120.095 360.518 121.202 360.523 120.709C360.371 120.898 360.219 121.086 360.069 121.273C359.716 121.561 359.309 121.842 358.663 122.234C357.473 122.954 353.186 125.367 348.869 127.129C344.574 128.965 340.191 129.773 339.753 129.837C339.749 129.939 339.745 130.041 339.741 130.142C347.212 128.987 353.633 125.319 360.736 121.562C360.484 121.601 360.233 121.639 359.984 121.675C362.838 120.174 365.648 118.589 368.434 116.96C365.669 118.945 361.084 121.922 357.868 123.521C357.305 123.803 357.646 123.466 357.512 123.522C357.159 123.668 356.884 124.082 355.694 124.734C354.47 125.425 351.283 126.774 350.979 126.897C350.438 127.156 349.013 128.054 348.009 128.435C346.721 128.922 347.527 128.442 347.268 128.537C346.176 128.928 345.225 129.326 344.356 129.574C343.058 129.973 340.281 130.288 339.398 130.8C340.363 130.681 341.322 130.515 342.27 130.31C338.029 131.425 334.282 131.203 330.287 130.444C329.493 130.292 328.683 130.152 327.835 130.026C326.603 130.255 330.687 131.129 327.199 130.541C327.823 130.68 328.453 130.818 329.077 130.952C329.246 130.883 329.416 130.813 329.585 130.744C329.783 130.803 329.982 130.861 330.181 130.92C331.094 131.184 332.022 131.398 332.966 131.558C332.643 131.43 332.323 131.296 332.009 131.156C336.127 131.733 340.197 130.895 341.678 131.077C341.734 130.941 341.79 130.805 341.844 130.668C345.603 130.06 350.492 127.344 349.794 128.377C349.942 128.276 350.089 128.174 350.237 128.071C352.332 127.299 351.341 127.425 352.095 127.046C352.313 126.963 356.222 125.16 354.614 126.195C358.414 124.404 356.966 124.415 357.96 123.852C360.465 122.847 364.32 119.959 362.846 121.424C363.196 121.236 363.552 121.043 363.905 120.85C364.792 119.857 366.142 119.538 367.401 118.917C367.808 118.671 368.24 118.407 368.634 118.167C368.829 117.887 369.026 117.605 369.224 117.323C373.331 115.406 371.222 114.735 373.705 114.815C373.486 115.062 373.277 115.303 373.054 115.552C372.431 116.012 371.817 116.463 371.212 116.905C373.817 115.254 376.344 113.609 378.908 111.913C382.361 110.049 383.893 108.462 387.616 106.257C387.922 105.997 388.23 105.735 388.54 105.472C388.39 105.972 387.07 106.836 389.558 105.276C389.893 105.321 388.281 106.484 387.459 106.842C387.259 106.929 388.65 105.746 386.972 106.907C385.816 107.705 388.058 106.486 384.547 108.796C384.705 108.754 384.864 108.712 385.023 108.67C384.647 108.929 384.29 109.174 383.901 109.44C383.488 109.568 383.077 109.694 382.668 109.817C381.915 110.561 381.588 111.107 379.577 112.409C380.061 111.981 379.205 112.251 378.224 112.92C378.277 112.997 378.329 113.075 378.382 113.153C376.022 114.817 376.726 114.013 374.84 115.529C374.6 115.598 374.361 115.667 374.124 115.735C373.217 116.715 369.299 119.497 369.786 118.632C368.918 119.725 366.392 121.072 365.301 121.316C365.281 121.438 365.261 121.559 365.241 121.681C364.781 121.985 364.304 122.296 363.827 122.604C363.528 122.718 363.23 122.831 362.934 122.941C362.627 123.188 362.31 123.441 361.987 123.695C361.73 123.737 361.473 123.778 361.219 123.817C360.724 124.233 360.222 124.648 359.707 125.065C359.325 125.194 358.946 125.319 358.571 125.441C358.627 125.647 355.184 127.529 354.113 127.885C353.84 128.081 353.569 128.275 353.298 128.466C353.115 128.45 352.932 128.434 352.742 128.42C352.547 128.593 352.352 128.765 352.157 128.935C351.61 129.103 351.065 129.262 350.503 129.421C348.532 130.74 348.275 130.374 347.788 130.565C346.867 130.948 343.641 132.226 343.055 132.317C342.473 132.443 342.161 132.344 341.7 132.425C333.877 133.338 337.066 133.099 335.477 133.325C334.591 133.356 333.98 133.171 333.205 133.121C332.675 133.087 331.273 132.975 329.791 132.684C327.824 132.315 325.631 131.857 325.435 131.795C324.952 131.647 326.272 131.234 324.642 131.021C324.498 131.393 321.194 130.119 322.647 131.06C321.26 130.644 319.865 130.2 318.48 129.723C318.503 130.206 316.862 129.408 314.973 128.75C312.286 127.966 306.237 125.18 306.719 124.798C306.058 124.529 305.391 124.233 304.73 123.909C301.095 121.285 297.703 117.77 295.846 113.392C295.667 112.975 295.497 112.557 295.337 112.135C292.035 102.226 291.216 92.9572 288.491 83.7497C287.512 80.1416 286.518 76.5843 285.518 73.1279C285.347 72.5373 285.519 72.5785 285.396 72.1555C284.746 69.899 282.859 64.1575 281.862 61.0456C281.544 60.0408 281.526 59.5188 281.429 59.2052C281.097 58.1348 280.991 58.4415 280.831 57.9498C280.59 57.1867 279.338 53.031 278.843 51.651C278.595 50.9431 278.159 50.2171 277.894 49.38C277.872 49.309 278.071 49.3805 278.051 49.3206C277.513 47.8496 277.718 48.7803 277.537 48.2868C276.235 44.766 274.702 41.0327 272.942 37.489C272.5 36.5939 271.903 35.2651 271.475 34.5351C271.317 34.2675 271.506 34.8042 270.953 33.8903C270.759 33.5768 270.826 33.3867 270.616 33.0545C269.66 31.6011 268.916 31.504 268.386 30.4875C268.065 30.2041 267.649 30.0899 267.859 30.1572C264.851 29.9447 261.314 30.1495 259.373 30.5557C258.779 30.6684 258.471 30.6408 257.918 30.7842C257.524 30.8865 256.891 31.2253 256.32 31.4413C255.749 31.6553 254.798 31.8944 253.8 32.4956C252.741 33.1096 251.657 34.1715 251.468 34.3646C251.228 34.5922 250.997 34.5752 250.764 34.8225C250.548 35.0532 250.235 35.4271 249.905 35.8883C249.13 36.9441 248.283 38.421 247.778 39.3094C246.984 40.6948 246.434 41.5483 246.16 42.0464C245.904 42.5178 245.739 43.1295 245.618 43.3528C245.436 43.6898 245.245 43.68 245.007 44.1157C244.628 44.8094 244.315 45.5995 243.718 46.6487C238.242 56.3064 231.417 64.8525 224.409 72.9281C217.357 80.9819 209.358 87.9489 200.858 94.0844C198.938 95.4561 197.924 96.336 194.997 98.2209C193.804 98.9802 194.208 98.5017 193.305 99.1282C192.9 99.4066 193.08 99.4581 192.564 99.7956C190.275 101.296 187.466 102.804 186.437 103.396C186.053 103.617 185.687 103.993 184.931 104.438C184.889 104.462 184.846 104.487 184.803 104.511C178.731 108.033 170.33 112.021 162.193 112.682C160.275 112.899 157.935 113.053 155.508 113.095C152.669 113.149 149.692 113.185 147.155 113.186C134.691 113.224 121.142 112.657 109.892 112.213C109.613 112.207 109.336 112.201 109.06 112.194C100.504 111.998 91.9756 111.44 83.5842 110.863C74.7256 110.356 65.6463 110.118 56.6422 109.771C64.3897 110.357 74.9142 110.62 83.5629 111.177C84.003 111.209 84.4526 111.242 84.8899 111.274C93.0068 111.894 101.387 112.46 109.883 112.634C124.759 113.254 140.338 113.671 155.511 113.465C159.323 113.421 163.211 113.145 167.078 112.33C173.114 111.148 179.451 108.027 185.14 104.811C189.061 102.623 192.897 100.269 196.429 97.9286C196.832 97.6621 197.571 97.012 198.429 96.4293C198.612 96.3115 200.953 94.9243 201.692 94.3758C200.761 94.572 203.852 92.7287 204.718 92.0328C205.823 91.1657 207.984 89.2192 210.549 87.1742C212.868 85.3116 212.338 85.9556 212.471 85.8569C213.308 85.2013 213.41 84.778 213.994 84.2153C215.443 82.8389 220.623 78.0381 224.775 73.245C227.413 70.2369 229.755 67.4204 230.922 65.9705C231.664 65.0509 231.827 65.0924 231.995 64.8829C232.448 64.3122 232.957 63.4164 233.669 62.4917C234.955 60.8298 236.487 58.9947 237.176 58.0312C238.799 55.8061 241.602 51.3091 243.415 48.1638C243.93 47.2822 244.033 47.424 244.266 47.0189C245.304 45.2595 247.537 40.5615 248.704 38.7423C249.243 37.8775 249.811 37.0669 250.428 36.2994C251.878 34.491 253.702 33.1458 255.814 32.2064C256.031 32.1927 256.246 32.1844 256.462 32.1798C256.734 31.9949 257.018 31.8165 257.31 31.6457C260.432 30.7026 264.039 30.5587 267.81 30.8087C267.132 30.5872 268.181 30.993 268.821 31.8377C269.539 32.6574 270.249 33.705 270.907 34.8094C271.3 35.3965 272.855 38.6746 273.109 39.2624C273.332 39.7285 273.702 40.089 274.005 40.8173C274.41 41.806 273.683 41.0069 274.489 42.597C274.699 43.0165 274.653 42.5349 275.068 43.3901C275.239 43.6711 277.565 49.3581 277.656 49.6996C277.841 50.2383 277.711 50.7915 277.756 50.9317C277.98 51.6407 278.195 51.5298 278.39 51.998C278.954 53.3474 279.446 55.2422 279.525 55.461C280.532 58.1829 282.421 63.3194 283.22 66.2804C283.333 66.6943 283.146 66.6988 283.162 66.7708C283.268 67.2352 283.552 67.4582 283.691 67.8931C284.445 70.2424 285.419 73.977 286.075 76.3629C286.151 76.6377 286.414 77.1907 286.547 77.6878C287.287 80.46 286.878 79.6151 286.917 79.7718C287.007 80.1496 287.364 80.7689 287.653 81.7516C287.823 82.3313 288.025 83.0369 288.244 83.8186C288.983 86.4269 289.821 89.8057 290.306 91.9383C290.775 93.9989 290.565 94.0114 290.594 94.1488C290.651 94.4401 290.987 95.2039 291.297 96.5693C291.891 99.1974 291.669 98.9323 291.903 100.024C291.922 100.118 292.037 99.9166 292.305 101.138C292.804 103.458 293.813 108.985 294.892 111.739C295.194 112.559 295.412 112.85 295.708 113.451C295.793 113.623 295.885 113.817 295.993 114.05C296.687 115.856 299.175 119.469 299.461 119.669C299.524 119.741 299.789 119.791 300.169 120.197C300.588 120.643 300.955 121.123 301.288 121.432C303.157 123.279 306.957 125.232 305.63 125.119C306.385 125.415 307.142 125.68 307.897 125.918C312.363 128.345 316.881 129.751 321.425 130.985C322.443 131.258 323.266 131.59 324.133 131.804C324.995 132.028 328.83 132.728 329.458 132.856C329.531 132.871 329.626 132.892 329.739 132.917C331.585 133.559 338.201 133.611 339.009 133.342C340.781 133.163 342.474 133.033 343.166 132.811C343.705 132.635 343.163 132.633 344.189 132.317C345.97 131.784 348.916 130.876 349.425 130.655C349.643 130.56 349.203 130.647 351.215 129.779C352.283 129.308 352.903 129.147 353.294 128.964C353.412 128.902 353.145 128.836 355.225 127.833C356.633 127.144 357.309 126.947 357.448 126.876C357.662 126.763 358.123 126.335 358.994 125.862C361.043 124.764 364.763 122.77 366.598 121.639C366.961 121.416 366.742 121.327 368.158 120.458C369.18 119.828 369.097 120.064 369.474 119.831C370.06 119.469 370.873 118.723 372.173 117.883C373.853 116.866 386.016 108.809 386.619 108.417C387.057 108.155 387.55 107.814 387.795 107.747C387.668 107.934 387.542 108.12 387.407 108.313C385.399 109.362 386.333 109.108 385.858 109.463C385.196 109.96 382.483 111.778 381.896 112.265C381.679 112.445 382.305 112.227 381.11 113.15C379.84 114.131 379.08 114.272 378.777 114.985C376.643 115.861 375.054 117.511 377.354 116.135C378.659 115.398 390.619 107.35 393.026 105.662C393.379 105.419 393.787 105.131 394.234 104.812C396.108 103.459 398.808 101.663 400.812 100.541C402.226 99.721 405.849 97.8032 405.807 98.0873C407.133 97.4216 405.64 97.9551 405.901 97.7828C406.434 97.4153 410.672 95.4281 411.48 95.0248C415.41 93.0277 420.389 90.2869 424.419 88.4185C424.265 88.5696 424.112 88.7202 423.958 88.8704C423.133 89.4518 418.988 91.4199 418.657 91.9011C423.489 89.4517 428.346 86.838 433.07 83.9187C433.167 83.8625 433.438 83.6681 433.529 83.6027C434.538 82.8345 435.534 82.0698 436.526 81.3021C436.289 81.1969 442.782 76.0913 443.146 75.9154C443.106 76.0993 443.066 76.2837 443.025 76.4682C439.098 79.0288 439.786 79.2295 437.121 80.9088C436.105 81.6904 436.532 81.6072 436.059 82.0196C434.519 83.3574 433.949 83.7874 433.743 83.8836C433.647 83.9531 433.358 84.1595 433.255 84.2192C433.119 84.2668 433.152 84.188 433.185 84.1063C433.286 84.048 433.569 83.8461 433.663 83.7781C433.689 83.6907 433.716 83.6 433.574 83.6611C433.482 83.7273 433.206 83.9242 433.108 83.9811C432.926 84.0399 432.474 84.3018 431.41 84.993C432.83 84.4738 429.423 86.6411 427.867 87.5427C427.516 87.7721 422.775 90.2622 422.217 90.5403C419.079 92.2252 413.76 95.0193 410.671 96.4023C408.278 97.59 407.078 98.4332 405.013 99.594C403.455 100.479 403.84 100.111 403.104 100.517C401.567 101.375 401.3 102.037 400.033 102.088C399.061 102.759 398.105 103.443 397.172 104.141C397.121 104.063 397.07 103.984 397.019 103.906C396.405 104.306 395.796 104.715 395.197 105.129C395.081 105.315 394.966 105.503 394.852 105.69C394.844 105.703 394.835 105.716 394.827 105.729C392.681 107.08 393.421 106.284 392.882 106.338C392.43 106.633 391.981 106.925 391.535 107.215C391.312 107.62 391.074 108.035 390.846 108.443C388.86 109.81 386.871 111.172 384.854 112.54C384.672 112.552 384.49 112.564 384.308 112.576C384.356 112.656 384.405 112.736 384.454 112.816C381.083 115.156 377.688 117.48 374.234 119.764C373.397 120.502 379.011 116.923 379.398 116.659C381.742 115.153 387.717 110.846 387.902 111.117C389.201 109.917 393.427 107.037 394.939 106.337C392.916 107.736 390.908 109.12 388.909 110.488C389.038 110.534 389.168 110.58 389.298 110.626C386.514 112.011 386.171 112.279 383.839 114.396C383.752 114.274 383.665 114.152 383.578 114.03C382.048 115.714 378.343 117.146 378.616 117.733C377.612 118.344 376.599 118.955 375.602 119.55C373.483 121.009 377.159 119.307 368.58 124.503C367.977 124.86 368.012 124.647 367.134 125.198C366.89 125.346 365.546 126.472 362.629 128.115C362.168 128.372 362.059 128.271 361.574 128.523C360.483 129.094 358.355 130.542 359.157 129.596C354.63 131.804 356.621 131.168 355.273 132.005C354.369 132.543 354.422 132.219 353.607 132.658C352.575 133.172 353.552 133.176 349.044 134.766C349.56 134.559 350.031 134.36 350.528 134.145C350.249 134.175 349.972 134.202 349.697 134.227C347.185 135.34 347.324 134.979 346.187 135.772C344.145 136.17 342.391 136.625 339.41 137.032C333.539 137.44 336.432 138.105 329.685 136.594C329.439 136.565 329.192 136.532 328.946 136.497C328.26 136.413 327.585 136.329 326.894 136.237C325.518 135.733 326.714 135.789 324.605 135.236C326.168 136.074 321.714 134.815 320.832 134.963C320.776 134.851 320.72 134.738 320.664 134.626C320.184 134.495 319.698 134.359 319.218 134.221C319.196 134.293 319.174 134.365 319.152 134.436C318.517 134.195 317.896 133.952 317.259 133.696C316.749 133.617 316.24 133.533 315.724 133.442C314.971 133.029 314.212 132.601 313.457 132.158C312.953 131.962 312.451 131.761 311.945 131.55C312.065 131.717 312.186 131.885 312.308 132.052C311.663 131.764 311.022 131.465 310.378 131.151C311.07 131.631 310.516 131.677 308.446 130.72C306.74 129.871 308.825 130.575 305.103 128.73C304.847 128.546 304.229 128.737 300.799 126.258C296.785 122.982 298.877 124.394 298.18 123.786C298.049 123.66 296.791 122.619 295.796 121.403C295.228 120.721 294.822 119.95 294.756 119.855C294.439 119.406 294.215 119.361 293.801 118.712C293.146 117.677 292.472 116.348 291.945 115.049C291.661 114.351 291.41 113.674 291.195 113.089C290.933 112.375 290.63 111.74 290.53 111.427C290.374 110.938 290.33 110.288 290.196 109.81C289.685 108.031 288.667 105.607 289.15 104.727C288.22 103.282 288.302 100.027 287.951 100.338C287.361 96.3205 284.389 86.4043 285.067 86.5188C284.604 85.708 284.403 85.2513 284.308 84.9148C284.168 84.4179 284.266 84.2251 284.108 83.6799C283.81 82.6561 283.851 83.2175 283.627 82.4048C283.099 80.4941 282.626 78.6701 282.076 76.7832C282.252 77.0515 282.427 77.3211 282.603 77.5918C282.055 75.6085 282.047 76.3479 281.409 74.3409C280.229 70.6629 280.858 72.1703 280.928 71.5542C280.751 71.7678 279.453 67.4218 279.334 66.9597C279.269 66.6947 279.922 67.7405 278.992 65.1368C278.949 65.3087 278.905 65.4799 278.862 65.6519C278.602 64.3998 277.379 61.1819 277.225 60.6329C277.159 60.3899 277.409 58.7628 276.426 57.7401C276.462 57.5588 276.499 57.378 276.535 57.1976C275.956 55.8674 275.364 54.5355 274.77 53.2337C274.848 52.9575 274.927 52.6823 275.005 52.408C274.846 51.9772 274.691 51.5591 274.531 51.1334C274.498 51.4711 274.46 51.7973 274.425 52.1324C273.519 49.4658 272.023 46.4064 272.272 45.7108C271.957 45.196 271.637 44.6818 271.324 44.1939C271.329 43.7839 271.323 43.3521 271.323 42.9406C270.175 40.5059 270.046 40.5291 269.088 39.0315C269.236 39.0324 269.384 39.0341 269.532 39.0367C268.79 37.9712 267.481 35.9758 266.621 34.8728C266.183 34.2752 265.802 33.6402 265.812 33.687C265.803 33.6798 265.563 33.7302 265.806 34.0027C265.971 34.2671 267.081 34.6507 267.543 34.4198C267.522 34.3926 267.507 34.3621 267.497 34.3283C264.431 34.387 263.314 34.2026 262.219 34.2775C261.528 34.339 261.236 34.5178 260.515 34.6452C259.485 34.8299 258.539 35.0257 258.038 35.2118C257.751 35.3182 257.752 35.4733 257.564 35.5512C256.707 35.941 257.136 35.5743 256.28 36.0288C256.2 36.0752 255.685 36.5568 255.084 37.0074C254.739 37.2376 253.798 37.8975 253.734 37.99C253.52 38.2374 253.729 38.2893 253.397 38.6328C253.23 38.8158 252.962 39.061 252.511 39.4717C252.606 39.4665 252.7 39.4621 252.795 39.4585C251.544 41.6215 251.022 42.0301 250.703 42.511C250.664 42.5748 250.414 43.2843 250.174 43.6842C249.774 44.3487 249.456 44.5643 249.367 44.7107C249.043 45.2487 248.069 47.1957 247.189 48.3876C247.799 48.3732 245.316 52.9345 244.193 53.581C243.804 54.4017 243.391 55.2416 242.983 56.057C242.671 56.3557 242.366 56.6416 242.06 56.9251C241.997 57.1832 241.932 57.4437 241.865 57.7066C240.948 58.6778 240.026 59.6238 239.073 60.5843C239.192 60.7712 239.311 60.9585 239.429 61.1463C239.197 61.4242 238.962 61.7053 238.722 61.9898C238.42 62.1228 238.106 62.2716 237.812 62.3911C237.569 62.7687 237.32 63.1514 237.065 63.5394C237.09 63.7024 237.114 63.8659 237.138 64.0299C235.759 66.0409 235.653 64.3792 233.529 68.6261C233.001 69.1324 232.465 69.6415 231.944 70.128C231.776 71.0495 230.594 72.0402 229.836 73.0156C229.29 73.7155 229.474 73.7796 228.713 74.6748C227.947 75.5736 227.837 75.4342 227.776 75.5029C227.719 75.5683 227.663 75.6333 227.609 75.6978C227.052 76.362 226.687 76.9604 226.218 77.4395C226.138 77.521 225.808 77.5856 225.166 78.2653C224.526 78.939 224.306 79.498 223.313 80.4721C222.811 80.963 222.541 80.9919 222.09 81.4282C219.953 83.4948 218.357 86.1979 216.004 86.9229C215.729 87.3625 213.301 90.1151 212.079 91.0881C210.186 92.6084 210.779 91.846 210.009 92.4288C209.895 92.5118 209.375 93.0348 207.773 94.276C207.485 94.4977 207.622 94.5366 207.582 94.5699C205.72 96.0363 201.972 98.6768 199.818 100.121C199.629 100.248 198.81 101.209 196.854 101.981C194.714 103.749 190.218 105.909 186.945 108.023C186.605 108.244 186.286 108.462 185.982 108.682C185.498 108.963 184.858 109.182 184.638 109.306C182.749 110.339 183.711 110.331 178.933 112.06C179.378 112.045 178.385 112.706 176.774 113.363C174.329 114.322 175.953 113.335 173.972 114.097C174.003 114.185 174.034 114.273 174.066 114.361C169.309 115.672 168.341 116.288 163.487 116.983C161.739 117.21 159.215 117.153 158.817 117.166C158.663 117.18 156.838 117.469 156.662 117.47C156.233 117.482 155.882 117.468 155.55 117.449C155.165 117.426 154.812 117.397 154.379 117.4C151.801 117.42 148.724 117.714 149.283 117.182C148.578 117.295 147.857 117.407 147.156 117.517C144.475 116.944 142.478 117.707 141.913 117.15C141.43 117.259 140.965 117.368 140.474 117.476C130.218 117.329 119.624 116.819 109.799 116.386C108.611 116.354 107.424 116.314 106.24 116.269C105.77 116.44 100.717 116.165 100.463 116.117C99.2851 115.932 100.553 115.612 98.1338 115.572C97.8559 115.727 97.5794 115.881 97.3042 116.036C94.264 115.916 95.7337 115.831 94.5461 115.645C94.0428 115.634 94.2012 115.776 93.5218 115.743C91.0764 115.628 86.8818 115.341 83.2978 115.102C81.6393 114.996 79.9328 114.917 78.6676 114.861C77.869 114.826 78.0125 114.71 77.7657 114.698C77.0878 114.669 75.7472 114.767 74.4012 114.714C65.9943 114.378 54.0482 113.965 45.5515 113.652C44.9751 113.63 44.9077 113.482 44.5187 113.466C43.9767 113.445 42.7696 113.539 42.2052 113.515C41.6683 113.493 41.3273 113.374 40.7565 113.35C38.1393 113.238 34.6193 113.365 31.8277 112.997C31.6014 112.965 28.6823 112.336 28.6073 112.297C28.2244 112.064 30.8292 111.73 26.5554 111.348C30.3756 111.097 29.2084 110.556 24.2257 110.261C26.7161 110.214 29.211 110.177 31.7098 110.147C31.7142 110.086 31.7187 110.024 31.7231 109.963C29.4533 109.627 27.1957 109.495 23.7531 109.443C23.8595 109.386 23.9664 109.33 24.0739 109.274C27.1212 109.01 30.8217 109.005 33.1457 108.653C29.7277 108.314 26.3344 107.985 22.9191 107.679C23.0904 107.635 23.2729 107.591 23.4375 107.547C25.0678 107.438 28.6427 107.407 29.9993 107.317C35.208 106.971 25.4514 106.95 27.0703 106.72C32.5538 106.786 38.026 106.89 43.5118 107.013C43.7162 106.803 22.6133 105.964 22.8344 105.45C24.5539 105.421 26.2949 105.399 28.0107 105.38C27.256 105.229 26.4691 105.078 25.7094 104.928C25.9196 104.885 26.1314 104.842 26.3448 104.799C29.261 104.715 32.1756 104.645 35.0884 104.581C26.2465 104.55 22.1068 104.464 20 103.337C20.2327 103.308 20.4692 103.28 20.7094 103.251C22.6684 103.946 31.6894 103.809 36.5155 103.76C35.5437 103.536 31.3018 103.63 30.4016 103.496C30.1467 103.457 31.0392 103.326 30.4483 103.245C28.9186 103.028 22.3473 102.729 23.3169 102.506C23.9324 102.345 34.4912 102.267 36.5401 102.329C31.7251 101.977 26.758 101.831 21.9015 101.484C24.9572 101.041 27.6907 100.503 33.2726 100.561C34.9668 100.338 23.1627 99.8606 22.8682 99.7462C24.919 99.6166 26.9807 99.4959 29.0321 99.3801C27.2831 99.3966 25.578 99.4173 23.8222 99.4432C23.8175 99.3963 23.8128 99.3494 23.8081 99.3025C28.3282 99.116 32.4132 98.7732 37.5476 98.8899C37.3816 98.6385 34.3159 98.6108 32.8247 98.5873ZM412.75 95.9953C412.933 96.1337 411.255 96.9346 410.333 97.3977C410.489 97.3609 410.644 97.3243 410.8 97.2875C408.793 98.2441 405.188 100.057 405.258 100.484C403.939 101.258 404.367 100.631 403.916 100.834C403.737 100.913 402.102 102.052 400.634 102.646C400.313 102.838 399.996 103.03 399.679 103.225C399.686 103.374 399.694 103.523 399.701 103.672C399.179 103.807 398.659 103.945 398.139 104.088C402.658 101.165 407.594 98.6012 412.743 95.9991C412.745 95.9978 412.748 95.9966 412.75 95.9953ZM364.325 126.69C362.39 127.757 359.354 129.282 360.12 129.269C361.343 128.582 362.566 127.867 363.752 127.155C363.942 127.001 364.133 126.846 364.325 126.69ZM238.957 60.1747C237.603 61.4382 236.825 63.0015 235.046 65.1839C235.107 65.2268 235.169 65.2696 235.23 65.3125C235.815 64.2782 237.755 61.9338 238.957 60.1747ZM456.378 64.3918C456.695 64.139 457.009 63.8858 457.325 63.6282C456.393 65.0416 455.977 65.0382 454.634 66.2924C454.554 66.3672 454.643 66.4104 454.615 66.4364C454.284 66.7396 453.895 66.9358 453.595 67.202C453 67.7289 452.604 68.2242 451.551 69.1249C450.746 69.8114 450.615 69.6895 450.334 69.9348C450.104 70.1396 447.987 72.5579 446.29 73.6752C443.085 75.8547 455.521 65.322 456.378 64.3918ZM464.217 57.4999C463.946 57.6888 463.695 57.8695 463.46 58.0457C464.031 57.3033 462.538 58.382 461.766 59.1909C461.579 58.9422 463.51 57.455 464.92 56.4865C464.664 56.8368 464.427 57.1744 464.217 57.4999ZM426.674 87.0206C427.983 86.2568 427.918 86.6605 427.912 86.7758C427.495 87.0123 427.071 87.2508 426.65 87.4846C426.658 87.33 426.667 87.1753 426.674 87.0206ZM436.484 80.4843C436.288 80.8657 434.599 82.2932 433.314 83.3198C433.229 83.3811 432.974 83.5634 432.883 83.616C432.569 83.8197 432.281 84.0028 432.041 84.1528C431.982 84.1877 432.286 83.8643 431.348 84.4437C431.067 84.6276 428.471 86.65 428.841 85.8559C430.158 85.0624 431.46 84.2531 432.76 83.4165C432.847 83.3662 433.09 83.192 433.172 83.1334C434.286 82.2503 435.379 81.376 436.481 80.487C436.482 80.4861 436.483 80.4852 436.484 80.4843ZM439.128 78.5847C438.685 79.0214 438.263 79.439 437.821 79.8717C437.506 79.9865 437.199 80.0945 436.889 80.2049C437.41 79.7674 437.952 79.311 438.473 78.87C438.687 78.7784 438.91 78.6798 439.128 78.5847ZM99.7465 113.413C99.882 113.53 100.018 113.647 100.155 113.765C100.697 113.862 103.383 113.501 102.543 113.37C101.611 113.388 100.679 113.402 99.7465 113.413ZM88.5818 112.491C88.0331 112.397 87.4942 112.303 86.9502 112.209C86.3138 112.352 85.6655 112.494 85.0299 112.637C87.7387 112.955 90.6571 113.303 90.2198 112.719C90.8484 112.762 91.4778 112.804 92.1043 112.845C91.5589 113.038 91.6281 113.119 93.2644 113.37C93.6441 113.076 95.3383 113.346 97.2988 113.387C95.8756 113.288 94.4588 113.183 93.041 113.073C93.0446 113.018 93.0482 112.962 93.0518 112.906C96.2117 113.125 92.3018 112.527 90.2361 112.606C90.0813 112.521 89.923 112.436 89.7659 112.35C89.3725 112.397 88.9722 112.444 88.5818 112.491ZM272.219 39.655C272.108 39.2923 271.997 38.9383 271.887 38.5929C270.602 37.6756 272.521 39.8937 272.839 42.0613C272.964 41.2447 274.231 44.1767 274.325 44.3522C274.316 43.9481 274.308 43.5487 274.299 43.1541C273.622 41.9586 272.926 40.7791 272.219 39.655ZM267.712 31.5453C268.077 31.9934 266.382 31.2064 267.745 31.6926C266.154 31.5983 264.374 31.5492 263.47 31.5431C262.995 31.5324 262.152 31.38 261.82 31.4362C261.624 31.527 261.43 31.6201 261.241 31.7152C260.944 31.4276 257.453 32.3503 256.402 33.0504C256.255 33.0096 256.107 32.9712 255.957 32.9351C255.54 33.1591 255.139 33.4028 254.76 33.6627C254.764 33.5532 254.769 33.4434 254.776 33.3334C254.519 33.6041 254.279 33.8816 254.056 34.1658C253.037 35.0446 253.393 34.1473 252.696 34.9222C251.967 35.8054 253.55 34.8068 253.647 35.0143C254.277 34.4063 256.017 33.3232 256.943 33.0204C257.485 32.8545 256.9 33.2954 259.192 32.3224C259.749 32.3012 260.312 32.3035 260.882 32.3265C261.889 32.0476 262.958 31.8339 264.074 31.6757C264.283 31.8047 264.492 31.9356 264.698 32.0682C264.799 32.0687 267.467 31.8957 267.346 31.8036C267.462 31.838 267.59 31.8712 267.729 31.9037C266.243 31.7186 267.448 31.9863 268.458 33.5865C268.626 33.6962 268.799 33.8175 268.976 33.9501C267.697 32.4374 268.667 33.3902 268.428 32.8454C268.302 32.543 267.798 31.7576 267.712 31.5453ZM117.126 113.788C112.941 113.933 115.502 113.767 111.055 113.595C111.345 113.774 111.663 113.955 111.958 114.135C114.159 113.913 117.831 114.278 117.13 113.788C117.129 113.788 117.127 113.788 117.126 113.788ZM72.9902 112.144C75.3783 112.134 74.1883 111.822 77.1983 111.865C77.1997 111.865 77.2012 111.865 77.2027 111.865C75.6672 111.78 74.0804 111.698 72.5396 111.622C72.6908 111.796 72.841 111.97 72.9902 112.144ZM209.497 89.752C211.367 88.29 210.921 88.4933 212.723 87.2826C214.919 84.9249 212.911 86.7575 212.722 86.5377C212.232 87.0798 211.73 87.6263 211.231 88.1622C209.7 89.1061 210.901 87.912 210.882 87.8929C210.881 87.8938 210.88 87.8948 210.878 87.8958C210.822 87.8298 210.856 87.7787 210.301 88.1787C210.04 88.7015 209.772 89.2256 209.497 89.752ZM216.854 82.7717C216.393 83.4682 216.3 83.9054 217.935 82.5149C217.936 82.5138 217.937 82.5128 217.938 82.5117C217.769 82.0839 219.475 80.9059 220.119 80.2105C220.26 80.0027 220.397 79.7977 220.536 79.5891C219.326 80.6742 218.098 81.7341 216.854 82.7717ZM239.37 55.3907C239.765 55.6496 238.788 57.1639 240.571 55.3193C240.839 54.9074 241.113 54.4793 241.371 54.0721C241.454 53.7571 241.556 53.4101 241.643 53.0848C245.664 48.2174 245.503 45.9361 240.245 55.0993C240.244 55.1007 240.244 55.1021 240.243 55.1035C239.954 55.1981 239.663 55.2939 239.37 55.3907ZM232.968 64.1673C233.116 64.3807 233.264 64.5945 233.412 64.8086C232.107 65.4986 231.443 67.2548 229.443 69.0099C229.347 69.2443 229.25 69.4801 229.151 69.7171C228.776 70.0398 226.995 72.0818 225.479 73.8539C223.979 75.612 222.733 77.0557 223.601 76.3977C224.335 75.8419 225.489 74.2197 225.656 74.0075C225.662 74.0006 225.666 73.9951 225.67 73.9912C226.075 73.5518 226.741 73.106 227.361 72.3597C227.709 71.9399 228.33 70.8192 229.053 69.9526C230.726 67.96 234.258 64.6517 235.82 61.4932C236.028 61.3404 236.233 61.1917 236.44 61.0386C237.941 58.928 237.241 59.4876 238.859 57.7041C238.902 55.7192 233.202 65.4612 233.829 62.9947C233.828 62.9959 233.827 62.9971 233.826 62.9982C233.547 63.3823 233.24 63.7982 232.968 64.1673ZM179.215 109.066C178.992 108.958 176.308 110.545 176.763 109.777C175.909 110.349 175.029 110.905 174.119 111.439C174.143 111.48 174.167 111.521 174.191 111.563C175.147 111.161 176.081 110.733 176.995 110.287C177.029 110.354 177.063 110.421 177.097 110.488C178.436 109.668 183.883 106.935 183.818 107.243C184.051 106.988 184.271 106.739 184.5 106.485C184.94 106.298 185.344 106.11 185.755 105.905C187.832 104.862 189.6 103.61 191.958 102.442C192.116 102.235 192.27 102.029 192.428 101.821C192.602 101.8 192.776 101.779 192.95 101.758C193.92 101.158 194.887 100.545 195.844 99.9241C198.776 97.6192 192.545 101.278 191.809 101.742C191.713 101.809 191.833 101.964 191.23 102.372C190.576 102.816 187.986 104.319 185.599 105.628C184.089 106.462 182.65 107.242 181.896 107.695C181.818 107.59 181.741 107.485 181.664 107.381C180.864 107.95 180.048 108.514 179.215 109.066ZM246.966 43.8222C247.158 43.7445 247.348 43.6686 247.538 43.5945C248.723 41.1315 249.599 39.9119 248.906 40.2304C248.905 40.2315 248.904 40.2327 248.904 40.2338C248.264 41.3593 247.629 42.5705 246.966 43.8222ZM372.243 119.319C372.036 119.143 370.862 119.792 369.525 120.861C369.636 120.88 369.748 120.899 369.86 120.917C370.474 120.263 371.664 119.966 373.912 118.431C373.841 118.322 373.769 118.213 373.697 118.103C373.207 118.514 372.722 118.919 372.243 119.319ZM245.757 45.8993C245.217 46.5612 244.397 48.9164 245.223 47.5286C245.843 46.4804 246.052 45.5388 245.757 45.8993ZM63.6324 111.574C64.2529 111.621 64.8637 111.667 65.4738 111.714C65.8025 111.613 66.1292 111.512 66.4537 111.411C66.4522 111.411 66.4508 111.411 66.4494 111.411C65.501 111.464 64.579 111.519 63.6324 111.574ZM203.145 94.7553C204.87 93.4531 206.57 92.1158 208.241 90.7428C208.213 90.6727 208.184 90.6027 208.155 90.5326C206.638 92.0975 205.766 92.4003 205.357 92.6971C205.358 92.6958 205.36 92.6944 205.362 92.6931C204.048 93.6354 202.785 94.5277 201.498 95.3556C202.05 95.1568 202.593 94.9609 203.145 94.7553ZM196.84 98.6566C197.426 98.8729 197.873 98.6766 200.374 96.4657C200.231 96.4906 200.087 96.5153 199.943 96.5399C198.567 97.5595 197.8 98.2194 197.899 97.8289C197.549 98.1051 197.196 98.381 196.84 98.6566ZM222.741 76.9576C222.351 77.1534 220.273 79.5482 220.441 79.4827C220.526 79.4664 223.516 76.6101 222.741 76.9576ZM391.55 106.04C390.961 106.407 390.346 106.791 389.741 107.169C390.493 106.575 391.226 105.994 391.96 105.411C391.823 105.621 391.686 105.831 391.55 106.04ZM397.389 101.205C397.835 101.01 396.74 102.212 399.26 100.818C397.466 101.904 395.722 103.036 394.031 104.232C394.784 103.614 395.549 103.009 396.33 102.414C396.115 102.395 395.899 102.378 395.683 102.362C396.247 101.97 396.815 101.585 397.389 101.205ZM399.495 100.32C398.318 100.581 403.522 97.5674 404.068 97.3636C404.184 97.3126 404.837 97.2652 405.059 97.2127C404.249 97.6419 403.446 98.076 402.649 98.5164C402.956 98.4423 403.264 98.3693 403.571 98.2971C402.649 98.8317 401.737 99.3738 400.837 99.9257C401.186 99.6276 401.538 99.3309 401.892 99.0353C401.086 99.4559 400.286 99.8838 399.495 100.32ZM379.123 114.248C379.795 113.803 380.429 113.383 381.094 112.94C380.889 112.922 380.685 112.903 380.481 112.883C380.09 113.149 379.703 113.412 379.319 113.673C379.257 113.862 379.188 114.056 379.123 114.248ZM392.246 104.971C391.669 106.146 388.345 106.791 391.604 105.132C391.933 104.964 392.3 104.859 392.246 104.971ZM406.119 96.3647C408.042 94.8528 408.02 96.0016 405.878 96.7814C405.77 96.82 405.974 96.4779 406.119 96.3647ZM422.465 88.0403C422.646 87.9464 423.112 88.0788 424.657 86.8818C424.954 86.7623 425.254 86.6401 425.551 86.519C424.978 87.0397 419.392 90.0828 420.02 89.3765C420.877 88.9277 421.571 88.5031 422.465 88.0403ZM416.473 89.7669C415.638 90.1988 414.801 90.6283 413.963 91.057C414.286 91.0109 414.612 90.9629 414.933 90.917C414.533 91.1485 414.13 91.3816 413.73 91.6121C412.944 91.8062 412.162 91.9978 411.378 92.191C413.184 91.2578 415 90.3238 416.816 89.3728C416.701 89.5044 416.587 89.6357 416.473 89.7669ZM394.727 101.246C396.258 100.391 398.004 99.1308 400.51 97.7332C400.512 97.7328 400.513 97.7324 400.514 97.732C400.64 97.6627 400.929 97.6604 401.334 97.4407C401.644 97.2194 408.494 93.4662 408.076 93.9742C405.472 95.5391 404.335 95.7852 403.948 96.5936C403.766 96.5636 403.584 96.5338 403.402 96.5044C400.769 97.71 400.255 98.468 398.946 99.4026C398.908 99.3266 398.87 99.2506 398.832 99.1746C397.904 99.715 396.988 100.267 396.082 100.835C396.238 100.802 396.396 100.767 396.553 100.734C396.233 100.936 395.916 101.139 395.6 101.344C394.692 101.634 393.69 102.239 394.727 101.246ZM420.352 87.937C420.822 87.0221 428.035 83.5857 431.454 81.3014C431.499 81.2757 431.624 81.1865 431.665 81.1565C431.783 81.0625 431.896 80.9714 432.003 80.8834C431.908 80.9889 431.807 81.0953 431.701 81.2025C431.658 81.2332 431.53 81.3244 431.485 81.3507C429.884 82.675 427.243 83.9512 425.418 84.9595C421.624 87.0395 424.357 85.8054 423.763 86.2501C423.467 86.4735 421.113 87.2652 420.352 87.937ZM389.433 105.055C390.823 104.131 391.663 103.441 392.783 102.748C393.072 102.571 393.379 102.397 393.72 102.225C393.624 102.348 393.528 102.471 393.432 102.594C393.345 102.646 393.156 102.764 392.908 102.925C391.588 103.782 388.758 105.63 389.433 105.055ZM436.602 77.5437C433.196 79.9023 435.168 79.1045 433.193 80.0773C434.305 79.1881 435.396 78.3089 436.499 77.4113C436.533 77.4555 436.568 77.4996 436.602 77.5437ZM241.246 48.8564C240.32 50.3575 239.149 51.9529 238.774 52.9533C239.456 51.9919 240.154 50.9763 240.809 49.9932C240.96 49.609 241.107 49.2278 241.246 48.8564ZM275.245 34.8027C275.104 34.4024 274.19 33.1405 274.096 32.9957C273.94 32.7342 274.055 32.763 274.072 32.7475C272.997 31.0497 273.757 32.7396 272.918 31.5527C272.788 31.324 270.858 28.3967 269.553 27.7452C269.112 27.4757 268.574 27.2588 268.076 27.2268C266.517 27.1102 265.146 27.0703 264.538 27.0729C263.164 27.0644 260.624 27.3566 258.445 27.825C257.547 28.018 257.195 27.9432 256.303 28.2137C253.693 28.9793 250.099 30.9619 247.716 34.1684C244.869 37.9228 242.93 42.363 241.386 44.8183C240.707 45.9655 239.901 46.9184 239.546 47.5373C239.331 48.0372 239.1 48.5581 238.876 49.0591C237.394 50.1451 237.615 50.9126 236.64 52.4855C236.041 53.4457 235.541 53.8104 235.464 53.9238C234.889 54.7596 234.657 55.2499 234.207 55.906C233.678 56.6747 232.851 57.6452 232.659 57.9301C232.539 58.0997 233.166 57.7459 231.015 60.555C228.816 63.4009 226.539 66.1467 224.162 68.9291C225.589 68.4903 225.812 67.3697 226.759 66.1745C227.007 65.8609 226.945 66.1374 227.161 65.8663C227.768 65.1053 228.853 63.5596 229.394 62.9244C229.97 62.2489 230.015 62.6719 230.612 61.7314C230.643 61.6822 230.434 61.7513 230.583 61.5265C232.033 59.3192 232.749 58.7455 234.709 56.0401C236.176 54.3541 243.087 42.7622 243.232 42.3322C244.859 40.4601 237.726 52.7949 236.559 54.0299C236.214 54.5109 236.449 53.9319 236.131 54.347C236.004 54.514 235.051 56.3356 233.885 57.9516C232.488 59.9215 229.348 63.6549 227.897 65.4245C226.232 67.4788 224.533 69.4994 222.784 71.5207C211.743 84.1268 198.387 94.2872 183.84 102.498C183.508 102.684 183.182 102.866 182.855 103.047C182.482 103.253 182.077 103.659 180.864 104.31C173.357 108.611 164.344 111.113 155.487 110.942C140.326 111.093 124.983 110.581 109.942 109.96C107.896 109.918 105.856 109.856 103.821 109.778C98.1858 109.564 92.5945 109.344 86.9377 108.826C86.226 108.889 85.517 108.952 84.8092 109.015C86.6036 109.051 89.8907 109.538 90.1889 109.561C90.296 109.569 90.9863 109.49 92.0874 109.569C93.6342 109.68 94.3118 109.832 94.4357 109.84C94.8294 109.865 94.578 109.732 94.9561 109.756C97.7625 109.932 99.9394 110.015 102.521 110.13C105.437 110.256 106.911 110.521 109.046 110.337C109.284 110.437 109.523 110.536 109.762 110.635C109.81 110.624 109.866 110.613 109.928 110.603C111.861 110.269 120.851 110.736 124.562 110.866C125.757 110.913 125.56 111.07 125.956 111.083C126.209 111.09 126.124 110.878 129.271 111.01C130.871 111.075 131.264 111.241 132.074 111.255C132.502 111.262 132.434 111.106 133.057 111.12C136.662 111.199 139.59 111.294 143.117 111.352C144.1 111.367 144.115 111.496 144.337 111.496C145.159 111.495 146.574 111.284 148.65 111.285C150.373 111.286 152.979 111.278 155.49 111.267C157.973 111.262 160.369 111.128 161.779 111.029C162.204 111.001 162.562 111.116 162.874 111.075C163.344 111.012 163.502 110.825 163.583 110.813C165.141 110.579 164.227 110.871 165.265 110.66C165.823 110.538 166.375 110.257 167.656 109.936C169.344 109.491 169.066 109.772 169.765 109.554C169.838 109.528 169.819 109.38 170.502 109.163C173.106 108.363 176.684 106.74 178.919 105.584C179.566 105.255 180.096 105.097 180.983 104.626C181.492 104.356 182.658 103.72 184.075 102.916C187.712 100.894 192.867 97.579 193.449 97.2265C193.536 97.1759 192.801 97.9298 194.165 97.0235C194.511 96.6821 194.851 96.3421 195.191 95.9991C195.937 95.6767 196.67 95.3562 197.412 95.0214C197.102 94.6254 200.841 91.8381 201.109 92.2799C201.535 91.9906 201.958 91.701 202.376 91.4111C203.007 90.4708 203.654 90.1542 205.132 88.707C205.453 88.5947 205.773 88.482 206.092 88.369C206.108 88.2602 206.123 88.1517 206.139 88.0421C207.255 87.6655 208.379 86.1945 208.539 86.0533C209.182 85.499 209.718 85.1724 210.02 84.907C211.132 83.9407 213.41 81.6963 214.697 80.5543C214.758 80.5013 214.821 80.6816 215.189 80.3607C215.86 79.7715 215.737 79.5397 216.794 78.92C216.912 78.6991 217.027 78.4789 217.142 78.2594C217.35 78.107 217.557 77.9542 217.763 77.8022C218.801 76.7277 219.82 75.6366 220.818 74.5261C220.11 75.7175 221.303 74.6902 222.122 73.4288C222.398 73.0027 221.969 73.2152 222.06 73.0727C222.095 73.0154 222.549 72.5112 223.147 71.835C224.543 70.2641 226.702 67.7959 226.961 67.6033C227.123 67.3202 227.283 67.0392 227.44 66.7603C227.628 66.709 227.816 66.658 228.003 66.6074C228.082 66.4492 228.16 66.2917 228.237 66.1349C229.511 64.9119 231.94 61.0802 232.44 60.4618C232.721 60.1212 232.882 60.7183 234.089 59.0197C234.027 58.8814 233.965 58.7435 233.903 58.6058C234.178 58.2036 234.445 57.8081 234.704 57.419C235.261 56.675 236.184 55.766 236.345 55.8069C236.433 55.5188 236.518 55.2338 236.6 54.9518C237.297 54.5098 239.46 51.0832 240.136 49.5925C240.47 49.2285 240.797 48.8719 241.119 48.5172C241.363 47.8971 241.584 47.3049 241.814 46.6896C242.522 45.3989 241.903 46.8405 242.074 46.5755C242.454 46.0077 243.816 42.9105 244.052 43.2841C244.273 42.883 244.497 42.4759 244.715 42.0787C244.726 41.825 244.746 41.5552 244.759 41.2984C245.481 40.8102 245.974 39.5081 247.511 37.3437C247.557 37.1094 247.605 36.8758 247.655 36.6421C248.114 36.1476 248.58 35.6796 249.065 35.2284C249.174 35.1279 249.284 35.0299 249.394 34.9346C249.381 34.7195 249.37 34.5054 249.368 34.2851C249.58 34.0133 249.796 33.7516 250.025 33.494C250.733 33.235 251.443 32.177 252.051 31.9259C252.929 31.5855 252.416 32.1152 251.19 33.2133C251.335 33.1642 255.398 30.4987 256.615 30.3084C256.528 30.2876 256.441 30.2674 256.353 30.2479C255.242 30.6668 254.192 31.1924 253.226 31.826C252.052 31.819 254.906 30.2766 256.364 29.8136C256.492 29.7702 257.164 29.2689 258.704 28.9741C259.299 28.8303 261.69 28.8782 262.142 28.8937C265.814 28.9262 263.106 28.4598 266.736 28.9878C266.278 28.768 266.891 28.8156 267.95 28.9275C268.125 28.9497 268.571 29.1419 269.1 29.5478C269.335 29.5738 271.454 31.7096 271.538 31.9223C272.311 32.9966 271.284 31.9296 272.369 33.5072C272.549 33.6583 272.73 33.8159 272.913 33.98C273.149 34.3828 273.358 34.7527 273.579 35.1545C274.289 37.8759 274.974 38.276 275.448 39.1152C275.639 39.4668 275.264 39.0654 275.735 40.0028C275.909 40.3526 276.21 40.6631 276.649 41.643C277.976 44.6533 277.803 45.9118 279.49 48.5135C279.569 48.9851 279.649 49.462 279.72 49.9221C279.934 50.1752 280.147 50.4313 280.361 50.6903C280.884 53.0702 280.892 52.1296 281.184 52.9562C281.955 55.1173 283.393 59.6109 283.262 60.0849C284.469 61.7826 284.53 64.2619 284.786 64.9982C284.997 65.4185 285.212 65.8543 285.419 66.2694C285.509 66.8092 285.599 67.3529 285.689 67.9004C286.19 67.4734 286.449 70.3513 286.518 70.6182C286.609 70.9368 288.018 75.0467 288.464 76.6169C288.913 78.1727 289.53 80.9485 289.594 81.1801C289.636 81.3297 289.923 82.1694 290.271 83.2541C290.561 84.1591 290.881 85.2096 291.128 86.1519C291.686 87.9537 293.873 98.8768 293.953 98.1466C293.878 97.4193 293.725 96.3805 293.57 95.4985C293.309 93.9829 292.148 88.4234 290.715 83.1303C289.562 78.8103 288.383 74.6385 287.862 72.8217C285.546 64.7284 282.869 56.3527 279.942 48.4435C279.769 47.9761 279.888 47.8505 279.74 47.4552C279.517 46.858 278.767 45.3808 278.531 44.7918C277.661 42.5828 276.523 39.9415 275.975 38.7817C274.776 36.2233 273.957 34.4794 272.843 32.6638C272.529 32.1566 270.472 29.2316 268.828 28.3521C268.553 28.1655 268.287 28.0376 268.02 27.9751C268.007 27.9727 267.994 27.9703 267.98 27.9679C267.994 27.9683 268.007 27.9687 268.021 27.9691C268.893 27.7374 271.248 29.8553 272.009 31.0277C273.26 32.7437 273.695 33.8546 274.079 34.52C274.435 35.1056 276.109 38.0845 276.748 39.529C276.95 39.9711 276.838 40.1215 277.008 40.5016C277.934 42.563 279.056 45.3174 279.915 47.1056C279.584 46.3667 281.257 51.0849 281.338 51.3476C281.489 51.7657 281.798 52.1674 282.109 53.0451C282.694 54.7039 282.326 54.6161 283.34 56.591C283.427 57.1369 283.516 57.6938 283.602 58.2444C284.026 58.1218 285.617 64.8917 286.679 66.6221C286.774 66.659 284.179 58.0174 283.925 57.3266C282.562 53.082 280.207 46.9048 278.6 42.9109C278.135 41.6825 276.681 37.8448 276.527 37.5836C276.3 37.1298 276.366 37.6067 276.266 37.4124C274.19 33.5226 275.435 35.3771 275.245 34.8027ZM398.459 98.582C397.322 99.2359 396.198 99.9101 395.093 100.607C395.122 100.476 395.151 100.346 395.18 100.216C395.703 99.9216 396.233 99.6305 396.762 99.3465C397.126 99.0556 397.492 98.7675 397.861 98.4815C398.06 98.5144 398.26 98.5479 398.459 98.582ZM401.077 96.6261C402.056 96.0287 402.202 96.1781 402.439 96.0596C403.146 95.7087 403.711 95.3162 404.393 94.9603C403.827 95.7863 402.077 96.485 401.077 96.6261ZM381.134 109.646C381.346 109.528 383.12 108.924 384.461 107.423C385.774 106.695 387.079 105.968 388.387 105.238C386.196 106.491 383.454 108.678 382.406 109.386C382.015 109.651 381.854 109.573 381.545 109.783C379.747 111.003 378.214 112.465 377.729 112.172C379.494 111.158 380.863 109.799 381.134 109.646ZM391.983 102.323C392.119 102.278 392.254 102.234 392.39 102.189C392.598 102.124 392.806 102.059 393.013 101.996C392.843 102.113 392.673 102.231 392.504 102.351C391.637 102.96 390.783 103.56 389.941 104.15C390.152 103.869 390.365 103.586 390.58 103.303C391.044 102.979 391.512 102.653 391.983 102.323ZM303.821 120.557C304.449 121.086 305.103 121.584 305.767 122.049C305.774 121.962 305.017 121.419 304.78 121.164C304.781 121.165 304.782 121.166 304.783 121.167C304.52 120.886 304.707 120.911 304.198 120.439C304.073 120.479 303.947 120.518 303.821 120.557ZM83.8994 108.616C83.8564 108.613 83.8018 108.609 83.7367 108.604C81.8863 108.432 70.7537 108.008 71.7151 108.328C72.2421 108.488 76.3161 108.521 77.5148 108.579C79.0097 108.642 82.8104 109.099 83.7281 108.732C83.8061 108.7 83.8645 108.662 83.8994 108.616ZM62.8051 107.7C62.5915 107.974 70.0459 108.258 70.7818 108.24C70.6288 108.194 70.3926 108.095 70.1848 108.068C69.1864 107.932 64.4149 107.824 62.8051 107.7ZM290.229 79.3727C290.257 79.9992 290.279 80.6058 290.304 81.2234C290.441 81.0208 290.579 80.8183 290.716 80.6159C290.555 80.2039 290.393 79.7919 290.229 79.3727ZM267.498 28.0212C260.368 27.4093 252.557 28.7892 248.223 34.5666C246.629 36.5797 245.362 38.8541 244.089 41.175C244.441 40.3708 244.799 39.5586 245.165 38.7642C246.031 37.2662 246.965 35.7954 248.05 34.4309C252.24 28.8524 259.828 27.3582 266.294 27.6793C266.698 27.7888 267.099 27.9031 267.498 28.0212ZM378.318 110.549C376.194 111.989 374.471 113.314 372.025 114.663C374.128 113.022 375.398 112.565 377.392 110.839C377.394 110.838 377.395 110.837 377.396 110.836C377.702 110.742 378.009 110.646 378.318 110.549ZM325.61 129.12C326.408 129.182 327.196 129.236 327.989 129.286C327.072 129.072 326.156 128.852 325.242 128.624C325.364 128.789 325.486 128.954 325.61 129.12ZM207.509 85.2406C205.656 87.2291 199.883 91.029 198.29 92.5455C198.186 92.6465 199.336 92.0056 197.78 93.4598C199.048 92.4909 199.917 91.7739 199.881 91.5272C200.302 91.3105 200.732 91.0844 201.153 90.8617C201.742 90.3496 202.339 89.8228 202.919 89.3023C202.984 89.5286 203.034 89.4805 203.887 88.6199C204.348 88.3281 204.821 88.0232 205.281 87.7246C205.403 87.5069 205.525 87.2886 205.648 87.0686C206.102 86.8684 206.548 86.6705 206.999 86.4664C208.338 85.168 207.304 85.6996 207.509 85.2406ZM214.554 78.9842C214.293 79.3442 204.984 87.6721 209.559 84.2816C210.663 83.3063 211.765 82.3028 212.84 81.2918C211.453 81.591 214.835 79.33 215.081 79.0931C216.272 78.0456 217.574 76.4875 218.371 75.6677C219.066 74.9567 219.561 74.6183 220.03 74.1076C220.784 73.2883 221.723 72.2386 222.507 71.2811C223.423 70.1655 224.104 69.245 224.162 68.9291C223.557 69.6376 222.942 70.3509 222.295 71.0978C221.706 71.7777 221.092 72.4702 220.472 73.1559C219.109 74.6519 217.708 75.7569 215.264 78.6884C214.562 79.3102 214.643 78.9145 214.554 78.9842ZM330.282 129.838C330.264 129.868 330.306 129.907 330.396 129.952C331.107 130.403 334.986 130.712 335.01 130.538C335.02 130.48 333.443 130.396 333.223 130.333C333.221 130.333 333.22 130.333 333.219 130.333C333.127 130.311 333.609 130.247 332.88 130.136C332.056 130.087 331.236 129.995 330.416 129.86C330.371 129.852 330.326 129.845 330.282 129.838ZM102.504 109.094C101.865 108.955 87.195 108.091 86.7644 108.112C86.6441 108.126 86.8045 108.212 86.7546 108.251C90.1897 108.258 95.03 108.867 98.2831 109.059C99.1902 109.113 98.9243 108.978 98.9761 108.979C98.9783 108.979 98.9804 108.979 98.9826 108.979C99.4976 109.008 101.805 109.416 102.504 109.094ZM194.497 95.3497C195.044 95.0382 195.589 94.7238 196.129 94.4085C196.207 94.2408 196.285 94.0731 196.362 93.9056C196.361 93.9065 196.36 93.9073 196.359 93.9081C195.738 94.3956 195.125 94.8711 194.497 95.3497ZM175.571 105.876C175.739 105.872 175.902 105.87 176.069 105.865C177.506 105.211 178.919 104.503 180.313 103.771C180.19 103.879 180.07 103.984 179.945 104.092C181.83 103.192 182.633 102.544 183.562 102.002C183.694 101.924 183.828 101.848 183.968 101.774C183.967 101.774 183.966 101.775 183.964 101.776C184.085 101.712 184.298 101.75 184.741 101.501C185.763 100.94 188.655 99.2687 188.925 98.9319C189.409 98.352 185.46 100.825 183.513 101.914C183.149 102.123 182.863 102.284 182.692 102.376C182.191 102.648 181.544 102.866 181.236 103.03C180.905 103.207 180.529 103.596 179.715 104.019C179.481 104.149 176.737 105.336 175.571 105.876ZM148.36 110.244C148.854 110.392 149.854 110.248 150.229 110.271C150.318 110.277 149.626 110.403 150.466 110.438C150.703 110.352 150.945 110.267 151.18 110.182C150.23 110.204 149.311 110.225 148.36 110.244ZM338.349 130.141C338.208 130.156 335.632 130.305 335.51 130.292C333.949 130.622 339.344 130.368 338.349 130.141ZM394.099 98.6026C392.804 98.7479 405.118 92.1445 406.377 91.657C406.427 91.9036 403.37 93.2053 405.067 92.7085C403.503 93.2885 399.53 95.5619 398.582 96.0701C398 96.3686 397.75 96.2693 397.661 96.3133C397.305 96.4779 394.511 98.4824 394.099 98.6026ZM416.741 86.6375C415.543 87.196 414.333 87.7516 413.13 88.3008C414.515 87.5772 415.897 86.85 417.275 86.1119C417.098 86.2867 416.92 86.4622 416.741 86.6375ZM418.172 85.7765C418.026 85.5915 422.09 83.6616 423.091 83.0322C422.123 84.0315 419.979 84.7446 418.172 85.7765ZM354.103 124.125C352.204 124.907 351.703 125.955 353.827 124.55C353.889 124.507 354.183 124.093 354.103 124.125ZM206.362 84.8617C206.096 85.099 202.55 87.6493 202.415 87.8834C202.015 88.672 204.183 86.7861 205.012 86.2847C206.359 85.4739 204.719 87.0898 207.546 84.5468C207.475 84.7048 207.404 84.8628 207.334 85.0191C209.052 83.5969 208.147 83.6771 208.41 83.3656C208.494 83.2688 209.559 82.397 209.728 82.2011C211.787 79.8246 206.641 84.6859 206.362 84.8617ZM306.111 119.942C303.151 117.185 304.121 118.669 301.501 115.429C301.122 115.546 305.464 119.909 306.111 119.942ZM233.453 55.6095C231.018 59.093 228.677 61.7281 226.403 64.969C226.991 65.1009 234.272 54.8324 233.453 55.6095ZM53.4584 105.416C62.9887 106.133 73.3983 106.483 83.8385 107.098C91.5471 107.649 99.2874 108.142 106.776 108.373C108.697 108.433 108.877 108.61 109.573 108.608C109.776 108.608 109.874 108.578 109.973 108.548C110.091 108.509 110.213 108.468 110.561 108.477C125.887 109.141 140.731 109.465 155.47 109.271C161.765 109.234 168.001 108.333 173.751 105.875C174.983 105.459 180.836 102.822 181.79 101.714C182.529 100.915 178.629 103.355 177.937 103.674C177.427 103.929 177.327 103.795 176.988 103.961C176.627 104.138 176.974 104.093 176.551 104.3C174.766 105.175 172.757 105.98 171.077 106.571C166.079 108.38 160.776 108.98 155.468 109.031C143.186 109.175 131.025 108.946 118.675 108.42C116.527 108.33 116.979 108.216 116.869 108.211C116.867 108.211 116.866 108.212 116.864 108.212C114.638 108.119 112.344 108.014 109.986 107.968C101.539 107.847 92.5411 107.37 83.8636 106.726C82.5709 106.635 81.3098 106.561 80.0139 106.486C71.3974 105.99 62.817 105.656 54.207 105.338C53.9577 105.364 53.7082 105.39 53.4584 105.416ZM213.447 79.1873C212.319 79.5588 212.521 80.1088 209.512 82.5125C209.335 82.7815 209.157 83.0493 208.976 83.3187C210.498 81.9719 211.991 80.5933 213.452 79.1829C213.45 79.1844 213.448 79.1859 213.447 79.1873ZM193.519 94.8081C192.689 94.6517 186.628 98.9855 182.96 100.931C182.683 101.083 182.424 101.22 182.186 101.343C182.046 101.541 182.416 101.402 183.046 101.083C184.41 100.401 186.898 98.8607 187.682 98.4059C188.258 98.0831 191.459 96.5113 193.588 94.8447C193.565 94.8325 193.542 94.8203 193.519 94.8081ZM381.543 106.09C381.031 106.467 380.525 106.839 380.023 107.207C381.358 106.381 382.683 105.555 384.017 104.719C381.937 106.105 379.874 107.469 377.759 108.852C378.065 108.475 378.373 108.096 378.685 107.715C379.639 107.175 380.574 106.645 381.543 106.09ZM374.883 110.719C378.506 108.209 374.885 111.108 373.913 111.555C373.312 111.838 374.521 110.969 374.883 110.719ZM365.243 116.723C366.862 115.429 370.268 113.188 369.32 114.386C367.33 115.402 366.259 116.324 363.473 117.89C363.818 117.567 364.176 117.236 364.52 116.912C364.522 116.91 364.524 116.909 364.525 116.908C364.763 116.848 365.003 116.786 365.243 116.723ZM376.383 109.35C378.897 107.99 371.996 112.528 374.042 110.928C374.128 110.862 376.278 109.41 376.383 109.35ZM71.8191 105.467C71.4799 105.614 73.6599 105.691 74.4202 105.732C77.2591 105.887 80.8 105.981 83.8999 106.189C84.271 106.215 84.6414 106.242 85.0045 106.269C84.7529 106.199 84.5186 106.131 84.266 106.061C84.1459 106.053 84.0273 106.044 83.9102 106.036C79.89 105.774 75.8581 105.621 71.8191 105.467ZM95.3192 106.968C97.5827 107.106 99.8468 107.23 102.109 107.333C102.322 107.343 103.314 107.25 102.581 107.185C100.161 107.133 97.7402 107.059 95.3192 106.968ZM222.532 68.1571C221.347 69.4163 224.225 65.3111 224.44 65.803C223.822 66.5751 223.172 67.3764 222.532 68.1571ZM232.379 55.4184C231.791 56.3103 231.17 57.2271 230.563 58.1077C230.517 58.0749 230.471 58.0421 230.425 58.0093C231.077 57.1623 231.744 56.2784 232.379 55.4184ZM62.8844 105.06C64.0387 105.287 66.8023 105.344 68.5285 105.407C67.337 105.2 64.5178 105.192 62.8844 105.06ZM203.884 86.001C204.096 86.0435 198.628 90.2008 200.376 88.5714C201.56 87.7294 202.724 86.877 203.884 86.001ZM192.527 94.0685C193.731 93.2342 194.698 92.618 194.565 92.9611C193.917 93.3947 193.263 93.8259 192.609 94.2497C192.581 94.1893 192.554 94.1289 192.527 94.0685ZM358.434 120.364C356.285 121.615 354.118 122.807 351.912 123.898C351.97 123.807 352.027 123.716 352.085 123.626C354.203 122.569 356.287 121.42 358.358 120.214C358.383 120.264 358.409 120.314 358.434 120.364ZM61.4796 104.513C59.761 104.499 58.0357 104.488 56.3089 104.479C58.0352 104.562 59.7596 104.648 61.4774 104.736C61.4796 104.662 61.4818 104.587 61.484 104.512C61.4825 104.512 61.481 104.512 61.4796 104.513ZM386.587 101.013C380.24 105.124 387.831 99.4977 389.825 98.5398C389.845 98.5301 389.864 98.521 389.883 98.5123C389.885 98.5107 389.886 98.5092 389.888 98.5076C390.057 98.4308 389.836 98.7872 390.123 98.6676C390.073 98.6958 390.024 98.7241 389.974 98.7525C389.332 99.1195 388.696 99.4815 388.066 99.8386C387.535 100.324 387.036 100.787 386.488 101.283C386.273 101.389 386.059 101.494 385.845 101.599C386.091 101.405 386.338 101.209 386.587 101.013ZM413.573 85.3703C419.735 82.2727 413.646 85.8484 410.416 87.081C410.408 87.0016 413.003 85.6557 413.573 85.3703ZM397.353 93.8917C396.405 94.4814 395.465 95.0842 394.532 95.7043C394.386 95.7391 394.24 95.7743 394.094 95.8099C394.798 95.3153 395.509 94.8299 396.225 94.3529C396.601 94.197 396.977 94.0432 397.353 93.8917ZM366.97 113.364C365.49 114.247 363.893 115.908 368.526 112.755C368.493 112.71 368.46 112.664 368.427 112.618C368.252 112.744 367.725 113.148 367.691 113.165C367.597 113.209 367.595 112.987 366.97 113.364ZM424.058 78.1067C424.215 77.9894 424.009 77.4349 426.043 76.9449C426.546 76.6019 427.042 76.2591 427.538 75.9111C427.74 75.9409 427.942 75.9702 428.145 75.9988C426.094 77.1375 426.003 77.4804 425.863 77.5737C425.204 77.9906 425.632 77.5808 425.196 77.8346C424.078 78.4916 421.528 80.0175 422.514 79.0214C422.871 78.663 423.899 78.2243 424.058 78.1067ZM419.879 80.0471C420.155 79.9548 419.425 80.5455 419.638 80.4861C419.831 80.4376 422.403 79.2275 421.872 79.8537C421.457 80.0689 421.039 80.2838 420.625 80.4948C420.449 80.499 420.27 80.5044 420.092 80.5091C419.727 80.7903 419.367 81.0674 419 81.3466C418.229 81.5321 416.677 82.0555 418.305 81.0165C417.689 81.3612 417.064 81.7073 416.444 82.0473C416.159 82.3016 415.875 82.5552 415.59 82.8078C415.696 82.5908 415.802 82.3737 415.907 82.1564C417.241 81.4638 418.569 80.7601 419.879 80.0471ZM437.62 67.8378C437.6 67.9503 437.58 68.0628 437.559 68.1755C439.512 66.4299 442.615 63.7772 441.133 65.6165C438.419 67.9103 435.667 70.1648 432.886 72.3904C432.666 72.4913 432.445 72.5928 432.222 72.6949C434.447 71.2296 433.227 71.0136 435.205 69.7846C435.537 69.5768 434.853 70.5383 436.636 68.8475C436.522 68.8427 436.408 68.838 436.293 68.8334C436.728 68.5087 437.184 68.1663 437.62 67.8378ZM454.266 53.2523C451.749 55.7381 453.681 53.486 454.481 52.6711C454.522 52.6206 454.655 52.4805 454.699 52.4332C454.926 52.2228 455.125 52.0623 455.255 51.9843C455.253 51.9855 455.252 51.9868 455.251 51.988C456.534 51.249 455.905 51.8829 455.029 52.7585C454.989 52.8007 454.87 52.9258 454.834 52.9708C454.351 53.5437 453.451 54.3586 453.367 54.4451C453.107 54.7136 452.81 55.6604 450.825 56.631C452.041 55.5051 453.245 54.3562 454.266 53.2523ZM443.688 62.8258C443.964 62.5728 443.879 62.7928 444.001 62.6875C444.002 62.6865 444.003 62.6856 444.004 62.6847C445.834 61.1276 449.985 57.2887 450.652 57.1366C449.442 58.3635 443.483 63.6164 442.942 63.7132C443.187 63.4218 443.441 63.1213 443.688 62.8258ZM430.696 73.6555C429.379 74.3763 431.996 72.3117 432.748 71.8575C432.894 71.773 432.059 72.9104 430.696 73.6555ZM333.624 125.357C330.975 125.15 334.424 125.752 333.192 125.817C333.708 125.862 334.225 125.886 334.742 125.89C334.361 125.723 333.985 125.545 333.624 125.357ZM247.96 26.7096C247.152 27.2816 247.611 27.111 247.543 27.163C247.029 27.5553 246.493 27.877 246.317 28.0507C243.214 31.4248 245.466 29.3574 245.497 29.3368C245.657 29.3679 244.952 30.3033 246.198 29.2656C246.869 28.5469 247.591 27.8734 248.362 27.2502C248.805 27.0189 249.248 26.8084 249.7 26.6115C251.282 25.4698 249.074 26.7366 248.723 26.758C248.575 26.7586 250.087 25.5988 247.96 26.7096ZM328.538 123.874C327.978 123.984 326.68 123.974 327.833 124.497C327.835 124.497 327.836 124.497 327.837 124.498C328.05 124.594 328.966 124.834 329.233 124.958C331.327 125.113 330.611 124.626 328.538 123.874ZM264.279 21.5891C265.719 21.6423 267.121 21.7648 268.469 21.9198C268.479 21.9207 268.49 21.9217 268.501 21.9226C268.488 21.9448 268.476 21.9669 268.464 21.9891C268.436 22.1056 268.408 22.2221 268.38 22.3387C267.658 22.2475 266.926 22.1661 266.179 22.0997C265.914 22.1542 265.649 22.2106 265.384 22.2691C266.314 22.4512 267.221 22.6593 268.105 22.8828C268.203 22.8846 268.3 22.8865 268.397 22.8885C270.962 23.0949 272.358 24.2203 273.449 25.0671C272.952 24.5308 272.395 23.9994 271.598 23.4763C275.332 25.9411 273.986 25.6519 275.64 27.7289C276.254 28.3207 276.834 28.9404 277.369 29.535C277.891 30.5983 278.326 31.6179 278.739 32.6543C279.654 34.2379 279.806 34.347 279.373 33.1804C279.953 33.9162 280.15 34.9076 280.688 35.874C280.731 35.95 280.806 35.7327 280.841 35.8012C283.271 40.7888 282.669 40.7164 283.006 41.5162C283.232 42.0794 284.409 44.2551 284.511 44.2569C284.643 44.2586 283.284 39.2981 286.182 46.7627C285.076 42.7515 282.867 38.5355 283.565 41.5546C283.149 40.3036 280.627 35.0473 280.411 34.6725C280.186 34.1681 280.461 34.2672 280.139 33.6232C279.916 33.2306 279.159 32.5352 277.654 29.3531C277.346 29.0103 277.047 28.6937 276.709 28.3402C276.506 27.9415 276.315 27.5741 276.068 27.1537C276.824 27.7729 277.517 28.3994 278.17 29.0118C275.958 26.3819 274.836 22.8285 269.094 21.7955C268.89 21.7624 268.686 21.7376 268.484 21.7207C266.949 21.5667 266.185 21.5011 266.914 21.3473C266.391 21.3209 265.864 21.3014 265.333 21.2902C264.979 21.386 264.632 21.4856 264.279 21.5891ZM319.55 121.75C318.231 121.083 317.596 121.341 317.797 121.445C318.949 122.015 320.245 122.094 319.55 121.75ZM251.192 25.0278C253.198 24.1534 255.269 23.6078 257.292 23.3058C257.261 23.1596 257.23 23.0134 257.2 22.8672C255.175 23.3221 253.131 24.0198 251.192 25.0278ZM334.036 125.058C334.151 125.18 334.269 125.301 334.39 125.421C335.907 125.116 337.447 125.57 338.224 125.347C338.388 125.299 338.024 125.148 337.709 125.138C337.484 125.197 334.289 125.111 334.036 125.058ZM399.949 89.6209C399.347 90.0291 398.747 90.4418 398.149 90.8597C398.123 90.73 398.097 90.6003 398.071 90.4706C398.374 90.2761 398.677 90.0829 398.981 89.8908C399.304 89.7996 399.626 89.7097 399.949 89.6209ZM392.853 93.9391C391.732 94.6267 390.625 95.3364 389.526 96.0748C393.658 93.1942 390.173 95.4137 392.659 93.6285C392.723 93.732 392.788 93.8356 392.853 93.9391ZM382.042 101.029C382.127 100.879 382.212 100.728 382.297 100.577C383.303 99.8774 384.332 99.1594 385.368 98.4342C384.566 98.6766 383.759 98.9225 382.967 99.1566C382.593 99.4166 382.223 99.6732 381.852 99.9302C381.915 100.297 381.979 100.663 382.042 101.029ZM227.508 55.2538C227.065 55.8452 225.69 57.9999 225.811 57.9759C226.563 57.1794 227.276 56.4176 228.004 55.6211C227.887 55.5273 227.77 55.4335 227.653 55.3397C227.802 55.2656 227.95 55.1921 228.098 55.119C228.413 54.6043 228.737 54.0704 229.037 53.564C229.312 53.4087 229.61 53.2205 229.892 53.0524C229.95 52.7161 230.004 52.3837 230.054 52.0552C228.147 54.2635 228.417 54.3073 228.045 54.811C227.864 55.0514 227.675 55.1488 227.573 55.2071C227.552 55.2227 227.53 55.2382 227.508 55.2538ZM252.183 23.5199C247.826 25.4115 245.935 27.6723 243.493 29.997C244.419 29.3978 247.214 26.2432 251.225 24.3412C255.187 22.3542 259.669 21.7958 261.848 21.972C262.297 21.8318 262.745 21.6999 263.197 21.5754C260.826 21.7388 259.084 21.7529 257.859 21.9398C256.886 22.096 257.01 22.2031 256.936 22.2144C256.933 22.2152 256.929 22.2159 256.926 22.2167C254.65 22.6915 253.897 22.8429 252.183 23.5199ZM336.138 124.565C335.383 124.422 334.11 124.358 334.07 124.609C334.787 124.744 335.517 124.837 336.264 124.886C336.109 124.825 336.268 124.591 336.138 124.565ZM380.43 101.265C379.773 101.618 378.359 102.683 379.118 102.433C379.265 102.38 380.597 101.267 379.989 102.18C381.386 101.205 380.809 101.061 380.43 101.265ZM292.907 67.6881C293.1 68.2962 293.292 68.9092 293.485 69.527C293.628 69.6383 293.771 69.7495 293.914 69.8613C293.583 69.1464 293.242 68.4046 292.907 67.6881ZM342.654 123.226C343.506 123.504 344.559 122.629 346.026 122.499C346.535 122.301 347.005 122.11 347.509 121.897C347.51 121.896 347.511 121.896 347.512 121.895C347.471 121.761 347.429 121.626 347.387 121.492C345.81 122.163 344.214 122.759 342.654 123.226ZM278.301 29.5887C278.478 29.9983 278.643 30.4019 278.812 30.8223C279.265 31.4526 279.707 32.1003 280.121 32.7237C279.987 32.352 279.827 31.9405 279.674 31.5523C279.248 30.916 278.771 30.2235 278.301 29.5887ZM351.218 119.618C349.473 120.412 349.011 121.127 351.225 120.042C352.141 119.581 353.041 118.76 351.218 119.618ZM201.834 82.709C202.387 82.3102 202.925 81.9177 203.473 81.5109C203.59 81.2915 203.705 81.0725 203.82 80.8539C203.166 81.4764 202.505 82.094 201.834 82.709ZM388.405 95.7555C388.387 95.8825 388.369 96.0095 388.351 96.1365C388.301 96.1689 388.252 96.2013 388.203 96.2338C387.72 96.5523 387.241 96.8676 386.766 97.1799C386.841 97.0137 386.916 96.8473 386.992 96.6806C387.338 96.4542 387.686 96.2262 388.037 95.9967C388.159 95.9158 388.282 95.8355 388.405 95.7555ZM205.354 79.8417C205.777 79.4995 206.189 79.164 206.608 78.8176C206.85 78.5425 207.09 78.2681 207.326 77.9946C206.925 78.2942 206.516 78.597 206.107 78.8957C205.859 79.2101 205.608 79.5254 205.354 79.8417ZM367.341 110.108C366.663 110.419 364.208 112.418 366.622 110.967C368.127 110.056 367.447 110.059 367.341 110.108ZM370.767 107.711C368.173 109.175 370.66 108.846 373.178 106.295C370.295 108.353 370.914 107.626 370.767 107.711ZM392.385 92.2754C392.453 92.2342 392.592 92.3311 393.139 92.0045C395.108 90.8229 397.751 89.4196 399.168 88.6726C402.616 86.7914 412.727 81.5232 414.045 81.3244C414.332 81.2849 413.9 81.8246 414.006 81.7871C414.319 81.6752 415.918 80.6969 415.707 81.0407C414.076 81.8822 412.426 82.7121 410.761 83.5431C411.104 83.2062 411.443 82.871 411.784 82.534C407.68 84.6774 409.038 83.9841 407.983 84.8717C407.22 85.1132 406.452 85.3577 405.684 85.6043C404.189 86.4964 402.685 87.4023 401.181 88.3335C401.492 88.0649 401.802 87.7975 402.114 87.5308C399.679 88.6064 400.384 88.3692 399.202 89.2589C399.155 89.1781 399.108 89.0973 399.061 89.0166C396.893 90.4534 396.317 90.4794 395.818 90.7574C394.792 91.3595 394.07 92.9729 389.681 94.5477C388.8 95.57 388.265 95.489 387.808 95.6722C387.602 95.7523 387.418 95.8908 387.238 96.2334C385.749 96.8975 386.371 96.3522 387.646 95.4415C388.877 94.5575 390.693 93.4241 391.878 92.6981C391.879 92.6973 391.88 92.6965 391.881 92.6957C392.069 92.5807 391.719 92.6792 392.385 92.2754ZM379.497 101.751C380.73 100.312 374.745 104.377 377.109 103.602C377.413 103.421 377.718 103.239 378.026 103.055C378.511 102.624 379.028 102.171 379.5 101.748C379.499 101.749 379.498 101.75 379.497 101.751ZM322.492 121.191C316.452 119.504 319.743 120.854 321.871 121.222C322.294 121.292 322.542 121.286 322.492 121.191ZM246.142 26.7693C246.076 26.9002 246.012 27.0316 245.949 27.1634C248.154 24.8899 253.649 22.8134 253.443 22.5795C250.859 23.5043 248.315 24.9193 246.142 26.7693ZM267.321 20.7676C266.796 20.7004 264.523 20.59 264.795 20.7487C265.784 20.8626 266.748 21.0069 267.685 21.1697C267.965 21.1455 268.253 21.1236 268.529 21.1023C269.014 21.1146 269.487 21.1677 269.94 21.2523C269.532 21.1487 269.051 21.052 268.537 20.9977C268.012 20.9049 267.434 20.7783 267.321 20.7676Z" fill="#15665E"/>
</g>
<path d="M26.125 101V53H58.25C62.9375 53 66.7083 53.2292 69.5625 53.6875C72.4375 54.1458 74.6146 54.9167 76.0938 56C77.5729 57.0625 78.5729 58.5104 79.0938 60.3438C79.6146 62.1562 79.875 64.4167 79.875 67.125V68.375C79.875 70.9583 79.6042 73.1562 79.0625 74.9688C78.5417 76.7604 77.5208 78.2083 76 79.3125C74.4792 80.4167 72.2812 81.2292 69.4062 81.75C66.5312 82.25 62.75 82.5 58.0625 82.5H32.125V101H26.125ZM73.875 67.125C73.875 65.1458 73.6875 63.5625 73.3125 62.375C72.9375 61.1875 72.1875 60.2917 71.0625 59.6875C69.9375 59.0833 68.2604 58.6875 66.0312 58.5C63.8021 58.2917 60.8229 58.1875 57.0938 58.1875H32.125V77.3125H57.0938C60.8229 77.3125 63.8021 77.1979 66.0312 76.9688C68.2604 76.7188 69.9375 76.2812 71.0625 75.6562C72.1875 75.0104 72.9375 74.1042 73.3125 72.9375C73.6875 71.75 73.875 70.2292 73.875 68.375V67.125ZM86.375 101V53H92.375V69.7812C93.2708 68.5729 94.375 67.5625 95.6875 66.75C97.0208 65.9375 98.7917 65.3333 101 64.9375C103.229 64.5208 106.146 64.3125 109.75 64.3125C114.458 64.3125 118.167 64.7708 120.875 65.6875C123.604 66.6042 125.542 68.2396 126.688 70.5938C127.833 72.9479 128.406 76.2812 128.406 80.5938V101H122.375V80.5938C122.375 78.1354 122.167 76.1562 121.75 74.6562C121.333 73.1562 120.615 72.0208 119.594 71.25C118.594 70.4792 117.208 69.9688 115.438 69.7188C113.667 69.4479 111.417 69.3125 108.688 69.3125C104.521 69.3125 101.25 69.6562 98.875 70.3438C96.5 71.0312 94.8229 72.1146 93.8438 73.5938C92.8646 75.0521 92.375 76.9583 92.375 79.3125V101H86.375ZM142 113V108C144.146 108 145.917 107.948 147.312 107.844C148.729 107.76 149.906 107.5 150.844 107.062C151.802 106.646 152.656 105.958 153.406 105C154.177 104.042 154.979 102.708 155.812 101H153.812L133.812 65H140.688L157.812 96.5312L172.219 65H179.25L161 103C160.188 104.688 159.344 106.156 158.469 107.406C157.615 108.656 156.531 109.698 155.219 110.531C153.927 111.365 152.229 111.979 150.125 112.375C148.021 112.792 145.312 113 142 113ZM185.375 77.625V76.375C185.375 72.125 185.583 68.5625 186 65.6875C186.417 62.7917 187.135 60.4375 188.156 58.625C189.177 56.8125 190.562 55.4271 192.312 54.4688C194.083 53.5104 196.302 52.8646 198.969 52.5312C201.635 52.1771 204.844 52 208.594 52H221.188C225.479 52 229.094 52.2083 232.031 52.625C234.99 53.0208 237.365 53.8229 239.156 55.0312C240.969 56.2188 242.281 57.9792 243.094 60.3125C243.906 62.625 244.312 65.6979 244.312 69.5312H238.312C238.312 66.5104 238.042 64.1667 237.5 62.5C236.958 60.8125 236.042 59.5938 234.75 58.8438C233.479 58.0938 231.74 57.6354 229.531 57.4688C227.323 57.2812 224.542 57.1875 221.188 57.1875H208.594C205.615 57.1875 203.104 57.2812 201.062 57.4688C199.021 57.6354 197.354 58.0417 196.062 58.6875C194.792 59.3125 193.812 60.3125 193.125 61.6875C192.458 63.0625 192 64.9375 191.75 67.3125C191.5 69.6875 191.375 72.7083 191.375 76.375V77.625C191.375 81.1667 191.5 84.1042 191.75 86.4375C192 88.7708 192.458 90.6354 193.125 92.0312C193.812 93.4271 194.792 94.4688 196.062 95.1562C197.354 95.8438 199.021 96.2917 201.062 96.5C203.104 96.7083 205.615 96.8125 208.594 96.8125H221.188C224.542 96.8125 227.323 96.7396 229.531 96.5938C231.74 96.4479 233.479 96.0208 234.75 95.3125C236.042 94.6042 236.958 93.4271 237.5 91.7812C238.042 90.1146 238.312 87.7812 238.312 84.7812H244.312C244.312 88.6146 243.906 91.6771 243.094 93.9688C242.281 96.2604 240.969 97.9896 239.156 99.1562C237.365 100.302 234.99 101.062 232.031 101.438C229.094 101.812 225.479 102 221.188 102H208.594C203.906 102 200.052 101.677 197.031 101.031C194.01 100.406 191.646 99.2396 189.938 97.5312C188.25 95.8229 187.062 93.3646 186.375 90.1562C185.708 86.9479 185.375 82.7708 185.375 77.625ZM269.438 101.688C265.125 101.688 261.562 101.458 258.75 101C255.958 100.562 253.875 99.5833 252.5 98.0625C251.146 96.5417 250.469 94.1771 250.469 90.9688C250.469 87.6979 251.104 85.3021 252.375 83.7812C253.667 82.2396 255.698 81.2396 258.469 80.7812C261.26 80.3229 264.917 80.0938 269.438 80.0938C273.104 80.0938 276.177 80.1771 278.656 80.3438C281.135 80.5104 283.354 80.8021 285.312 81.2188C285.271 78.4479 285.083 76.2708 284.75 74.6875C284.417 73.0833 283.792 71.8958 282.875 71.125C281.958 70.3542 280.615 69.8646 278.844 69.6562C277.094 69.4271 274.76 69.3125 271.844 69.3125C268.51 69.3125 265.896 69.3854 264 69.5312C262.125 69.6771 260.76 69.9375 259.906 70.3125C259.052 70.6875 258.51 71.2292 258.281 71.9375C258.073 72.6458 257.969 73.5625 257.969 74.6875H251.969C251.969 72.4375 252.271 70.625 252.875 69.25C253.5 67.875 254.552 66.8333 256.031 66.125C257.51 65.4167 259.531 64.9375 262.094 64.6875C264.677 64.4375 267.927 64.3125 271.844 64.3125C276.052 64.3125 279.438 64.5833 282 65.125C284.583 65.6667 286.542 66.6458 287.875 68.0625C289.229 69.4583 290.135 71.4167 290.594 73.9375C291.073 76.4583 291.312 79.7083 291.312 83.6875V101H285.312V98.5312C284.604 99.2812 283.625 99.8854 282.375 100.344C281.125 100.802 279.458 101.135 277.375 101.344C275.312 101.573 272.667 101.688 269.438 101.688ZM269.438 96.8125C273 96.8125 275.844 96.7708 277.969 96.6875C280.094 96.6042 281.677 96.375 282.719 96C283.781 95.625 284.479 95.0208 284.812 94.1875C285.146 93.3542 285.312 92.1875 285.312 90.6875V85.1562L269.438 84.9688C266.625 84.9271 264.354 84.9688 262.625 85.0938C260.917 85.1979 259.615 85.4479 258.719 85.8438C257.823 86.2188 257.219 86.8229 256.906 87.6562C256.615 88.4688 256.469 89.5729 256.469 90.9688C256.469 92.3229 256.615 93.3958 256.906 94.1875C257.219 94.9792 257.823 95.5625 258.719 95.9375C259.615 96.3125 260.917 96.5521 262.625 96.6562C264.354 96.7604 266.625 96.8125 269.438 96.8125ZM301.188 101V53H307.188V101H301.188ZM317.188 101V67H323.188V101H317.188ZM317.188 59V53H323.188V59H317.188ZM330.188 101L348.625 82.6875L331.062 65H339.062L352.781 78.9062L366.188 65H374.188L356.625 82.6562L375.062 101H367.062L352.625 85.9375L338.188 101H330.188Z" fill="#333333"/>
<defs>
<filter id="filter0_g_0_1" x="0" y="0.440614" width="484.92" height="157.094" filterUnits="userSpaceOnUse" color-interpolation-filters="sRGB">
<feFlood flood-opacity="0" result="BackgroundImageFix"/>
<feBlend mode="normal" in="SourceGraphic" in2="BackgroundImageFix" result="shape"/>
<feTurbulence type="fractalNoise" baseFrequency="0.12870012223720551 0.12870012223720551" numOctaves="3" seed="5749" />
<feDisplacementMap in="shape" scale="40" xChannelSelector="R" yChannelSelector="G" result="displacedImage" width="100%" height="100%" />
<feMerge result="effect1_texture_0_1">
<feMergeNode in="displacedImage"/>
</feMerge>
</filter>
</defs>
</svg>
